<?xml version="1.0" encoding="UTF-8"?>
<svg version="1.1" viewBox="0 0 32 32" xmlns="http://www.w3.org/2000/svg" xmlns:xlink="http://www.w3.org/1999/xlink">
<defs>
<linearGradient id="b" x2="0" y1="545.8" y2="517.8" gradientTransform="matrix(.92857 0 0 .92857 28.612 37.986)" gradientUnits="userSpaceOnUse">
<stop stop-color="#197cf1" offset="0"/>
<stop stop-color="#20bcfa" offset="1"/>
</linearGradient>
<linearGradient id="c" x2="0" y1="30" y2="2" gradientUnits="userSpaceOnUse">
<stop stop-color="#7cbaf8" offset="0"/>
<stop stop-color="#f4fcff" offset="1"/>
</linearGradient>
<linearGradient id="a" x1="9" x2="23" y1="9" y2="23" gradientUnits="userSpaceOnUse">
<stop stop-color="#292c2f" offset="0"/>
<stop stop-opacity="0" offset="1"/>
</linearGradient>
</defs>
<g transform="translate(-384.57 -515.8)">
<rect x="387.57" y="518.8" width="26" height="26" rx="13" fill="url(#b)"/>
<path transform="translate(384.57 515.8)" d="m17 9-2 2 2 2-2 10 8 8h3 3 2v-4-4l-14-14z" fill="url(#a)" fill-rule="evenodd" opacity=".2"/>
<path transform="translate(384.57 515.8)" d="m16 2c-7.5872 0-13.711 5.9794-13.975 13.5-0.0058692 0.16736-0.025391 0.33116-0.025391 0.5 0 7.756 6.244 14 14 14 7.756 0 14-6.244 14-14 0-0.16884-0.01952-0.33264-0.02539-0.5-0.26374-7.5206-6.3875-13.5-13.975-13.5zm0 1c7.202 0 13 5.798 13 13 0 7.202-5.798 13-13 13-7.202 0-13-5.798-13-13 0-7.202 5.798-13 13-13zm-1 6v2h2v-2zm0 4v10h2v-10z" fill="url(#c)"/>
</g>
</svg>
