<svg xmlns="http://www.w3.org/2000/svg" xmlns:xlink="http://www.w3.org/1999/xlink" version="1.0" width="32" height="32"><defs><linearGradient id="prefix__a"><stop offset="0"/><stop offset="1" stop-opacity="0"/></linearGradient><linearGradient id="prefix__b"><stop offset="0" stop-color="#1f4b6a"/><stop offset="1" stop-color="#4083c2"/></linearGradient><linearGradient x1="18.379" y1="44.98" x2="18.379" y2="3.082" id="prefix__g" xlink:href="#prefix__b" gradientUnits="userSpaceOnUse" gradientTransform="translate(-1.104 -1.104) scale(.71266)"/><linearGradient id="prefix__c"><stop offset="0" stop-color="#8badea"/><stop offset=".262" stop-color="#6396cd"/><stop offset=".661" stop-color="#3b7caf"/><stop offset="1" stop-color="#194c70"/></linearGradient><linearGradient id="prefix__d"><stop offset="0" stop-color="#fff"/><stop offset="1" stop-color="#fff" stop-opacity="0"/></linearGradient><linearGradient x1="63.397" y1="-12.489" x2="63.397" y2="5.468" id="prefix__h" xlink:href="#prefix__d" gradientUnits="userSpaceOnUse" gradientTransform="matrix(1.54365 0 0 1.54362 -80.016 21.42)"/><radialGradient cx="62.625" cy="4.625" r="10.625" fx="62.625" fy="4.625" id="prefix__e" xlink:href="#prefix__a" gradientUnits="userSpaceOnUse" gradientTransform="matrix(1.50588 0 0 .37647 -78.306 26.259)"/><radialGradient cx="23.896" cy="3.99" r="20.397" fx="23.896" fy="3.99" id="prefix__f" xlink:href="#prefix__c" gradientUnits="userSpaceOnUse" gradientTransform="matrix(0 1.70088 -2.24513 0 24.958 -40.236)"/></defs><path d="M32 28c0 2.21-7.163 4-16 4S0 30.21 0 28s7.163-4 16-4 16 1.79 16 4z" style="marker:none" opacity=".3" fill="url(#prefix__e)" fill-rule="evenodd" overflow="visible"/><path d="M16 1.502C8 1.502 1.502 8 1.502 16 1.502 24 8 30.498 16 30.498 24 30.498 30.498 24 30.498 16 30.498 8 24 1.502 16 1.502z" fill="url(#prefix__f)" stroke="url(#prefix__g)" stroke-width="1.004" stroke-linecap="round" stroke-linejoin="round"/><path d="M29.5 16c0 7.456-6.045 13.5-13.5 13.5-7.456 0-13.5-6.044-13.5-13.5S8.544 2.5 16 2.5c7.455 0 13.5 6.044 13.5 13.5h0z" opacity=".4" fill="none" stroke="url(#prefix__h)"/><path d="M11.8 14.788c.191.52.406.94.865.365.568-.339 2.473-1.82 2.282-.369-.61 2.687-1.352 5.346-1.92 8.04-.593 1.476.755 2.811 2.162 1.852 1.495-.617 2.782-1.621 4.097-2.542-.18-.44-.299-1.072-.794-.497-.651.295-2.073 1.688-2.337.54.547-2.91 1.56-5.712 2.207-8.598.596-1.327-.377-3.004-1.834-1.906-1.745.76-3.204 2.002-4.728 3.115zm6.477-9.786c-1.78-.094-2.712 2.776-1.02 3.562 1.373.563 2.868-.845 2.532-2.252-.104-.733-.761-1.334-1.512-1.31z" style="text-align:start;line-height:100%;-inkscape-font-specification:URW Palladio L Bold" font-size="40" font-weight="700" opacity=".2" font-family="URW Palladio L"/><path d="M11.8 15.788c.191.52.406.94.865.365.568-.339 2.473-1.82 2.282-.369-.61 2.687-1.352 5.346-1.92 8.04-.593 1.476.755 2.811 2.162 1.852 1.495-.617 2.782-1.621 4.097-2.542-.18-.44-.299-1.072-.794-.497-.651.295-2.073 1.688-2.337.54.547-2.91 1.56-5.712 2.207-8.598.596-1.327-.377-3.004-1.834-1.906-1.745.76-3.204 2.002-4.728 3.115zm6.477-9.786c-1.78-.094-2.712 2.776-1.02 3.562 1.373.563 2.868-.845 2.532-2.252-.104-.733-.761-1.334-1.512-1.31z" style="text-align:start;line-height:100%;-inkscape-font-specification:URW Palladio L Bold" font-size="40" font-weight="700" fill="#fff" font-family="URW Palladio L"/></svg>