<svg width="32" height="32" fill="none" xmlns="http://www.w3.org/2000/svg"><g clip-path="url(#prefix__clip0_1178_8455)" fill="#E6D4BF"><path d="M30.48 22.09h-1.53v1.53h-1.52v1.52h-1.52v1.52h-1.53v1.53h-4.57v-1.53h-1.52v-1.52h-1.53v-3.05h3.05v1.53h1.53v1.52h1.52v-1.52h1.52v-1.53h1.53v-1.52h1.52v-1.53h3.05v-1.52h-1.53V16h-1.52v-1.53h-7.62V16h-1.52v1.52h-1.53v1.52h-1.52v7.62h1.52v1.53h1.53v1.52h1.52v1.53h7.62v-1.53h1.52v-1.52h1.53v-1.53H32v-7.62h-1.52v3.05zM30.48 8.38h-1.53v3.05h1.53V8.38zM28.95 6.85h-1.52v1.53h1.52V6.85zM28.95 11.43h-1.52v1.52h1.52v-1.52zM27.43 5.33h-1.52v1.52h1.52V5.33zM25.91 3.81h-3.05v1.52h3.05V3.81zM22.86 2.28h-3.05v1.53h3.05V2.28zM21.34 6.85h-1.53v6.1h1.53v-6.1zM19.81 5.33h-1.52v1.52h1.52V5.33zM18.29 8.38h-1.53v3.05h1.53V8.38zM16.76 6.85h-1.52v1.53h1.52V6.85zM16.76 14.47h-4.57V16h4.57v-1.53zM18.29 3.81h-6.1v1.52h6.1V3.81zM19.81.76h-9.14v1.52h9.14V.76zM12.19 5.33h-1.52v1.52h1.52V5.33zM12.19 12.95h-1.52v1.52h1.52v-1.52zM13.72 17.52h-3.05v1.52h3.05v-1.52z"/><path d="M10.67 2.28H7.62v1.53h3.05V2.28zM10.67 6.85H9.15v6.1h1.52v-6.1zM10.67 16H7.62v1.52h3.05V16zM7.62 3.81H4.57v1.52h3.05V3.81zM7.62 14.47H4.57V16h3.05v-1.53zM4.57 5.33H3.05v1.52h1.52V5.33zM4.57 12.95H3.05v1.52h1.52v-1.52zM3.05 6.85H1.53v1.53h1.52V6.85zM3.05 11.43H1.53v1.52h1.52v-1.52zM1.53 8.38H0v3.05h1.53V8.38z"/></g><defs><clipPath id="prefix__clip0_1178_8455"><path fill="#fff" d="M0 0h32v32H0z"/></clipPath></defs></svg>