<svg width="32" height="32" fill="none" xmlns="http://www.w3.org/2000/svg"><g clip-path="url(#prefix__clip0_1178_16876)" fill="#E6D4BF"><path d="M32 18.285h-1.52v1.53H32v-1.53zM30.48 16.765h-3.05v1.52h3.05v-1.52zM28.95 13.715h-1.52v1.53h1.52v-1.53z"/><path d="M22.86 15.245v-3.05h-1.52v-1.53h-1.53v-3.04h1.53v-1.53h6.09v1.53h1.52v6.09h1.53v-9.14h-1.53v-1.53h-1.52v-1.52h-6.09v1.52h-1.53v1.53h-1.52v4.57h-4.57v-4.57h-1.53v-1.53h-1.52v-1.52h-6.1v1.52H3.05v1.53H1.53v9.14h1.52v-6.09h1.52v-1.53h6.1v1.53h1.52v3.04h-1.52v1.53H9.15v3.05H4.57v1.52h4.58v6.09h1.52v-7.61h1.52v-1.53h7.62v1.53h1.53v7.61h1.52v-6.09h4.57v-1.52h-4.57zM25.91 28.955h-1.53v1.52h1.53v-1.52zM24.38 27.435h-1.52v1.52h1.52v-1.52zM22.86 25.905h-3.05v1.53h3.05v-1.53zM21.34 22.855h-1.53v1.53h1.53v-1.53z"/><path d="M19.81 16.765h-1.52v3.05h1.52v-3.05zM19.81 24.385h-7.62v1.52h7.62v-1.52zM18.29 21.335h-4.57v1.52h4.57v-1.52zM13.72 16.765h-1.53v3.05h1.53v-3.05zM12.19 22.855h-1.52v1.53h1.52v-1.53zM12.19 25.905H9.15v1.53h3.04v-1.53zM9.15 27.435H7.62v1.52h1.53v-1.52zM7.62 28.955H6.1v1.52h1.52v-1.52zM4.57 13.715H3.05v1.53h1.52v-1.53zM4.57 16.765H1.53v1.52h3.04v-1.52zM1.53 18.285H0v1.53h1.53v-1.53z"/></g><defs><clipPath id="prefix__clip0_1178_16876"><path fill="#fff" d="M0 0h32v32H0z"/></clipPath></defs></svg>