<?xml version="1.0" encoding="UTF-8"?>
<svg version="1.1" viewBox="0 0 64 64" xmlns="http://www.w3.org/2000/svg" xmlns:xlink="http://www.w3.org/1999/xlink">
<defs>
<linearGradient id="a" x1="2066.7" x2="2066.7" y1="629.94" y2="421.87" gradientTransform="matrix(.2633 0 0 .2633 -509.14 -105.08)" gradientUnits="userSpaceOnUse">
<stop stop-color="#5ac3de" offset="0"/>
<stop stop-color="#24afe4" offset=".092603"/>
<stop stop-color="#40f5b8" offset=".92603"/>
<stop stop-color="#6cfece" offset="1"/>
</linearGradient>
</defs>
<path d="m11.504 5.3098c-2.958 0-5.3391 2.3816-5.3391 5.3396l4.3677 40.357c0.81882 5.7915 4.4534 9.9855 9.9855 9.9855h23.099c5.5321 0 9.4218-4.4534 9.9855-9.9855l4.3672-40.357c0-2.958-2.3811-5.3396-5.3391-5.3396h-36.48z" fill="url(#a)" stroke-linecap="round" stroke-linejoin="round" stroke-opacity=".057229" stroke-width=".78991" style="paint-order:stroke markers fill"/>
<path d="m29.01 20.293s1.6608 1.3311 2.7267 2.7267c1.066 1.3956 3.1792 5.903 3.1792 5.903l-0.90793 0.45544 5.4505 0.90793 1.8188-4.9951-0.91088 0.45248c-0.99571-2.1696-2.2162-4.1216-4.0872-5.4505zm-1.1002 0.65359c-0.24842 0.0062-0.48856 0.08399-0.7157 0.25434-1.817 1.3628-3.1792 4.998-3.1792 4.998l4.9951 2.7238 2.7267-4.5426s-2.0879-3.477-3.8269-3.4336zm-2.7681 8.7688-5.2228 0.99074 0.8547 0.55304c-1.3552 1.9652-2.4085 4.0119-2.5937 6.2993l3.7175 6.2461s0.29524-2.1084 0.94933-3.7382c0.65416-1.6298 3.4454-5.7492 3.4454-5.7492l0.85469 0.54712zm18.312 1.2658-4.9862 2.7356 2.3541 4.7467s4.0555 0.11564 4.9566-1.3722c0.12874-0.21255 0.1925-0.45622 0.17153-0.73936-0.16777-2.2651-2.4961-5.3707-2.4961-5.3707zm-8.0649 6.6986-3.7056 4.1019 3.2265 4.2262 0.10943-1.0114c2.3641 0.33149 4.6681 0.35623 6.7962-0.50276l3.9186-6.1219s-2.0176 0.68004-3.7678 0.82512c-1.7501 0.14508-6.6838-0.50572-6.6838-0.50572zm-11.374 1.6916s-1.9204 3.5732-0.99369 5.0454c0.13239 0.2103 0.32303 0.37695 0.58557 0.48502 2.1003 0.86451 5.9208 0.17449 5.9208 0.17449l-0.21589-5.6842z" fill="#fff" fill-opacity=".98894" fill-rule="evenodd"/>
</svg>
