<svg width="32" height="32" fill="none" xmlns="http://www.w3.org/2000/svg"><path d="M25.905 8.38v16.76h1.53V8.38h3.04V6.86h-1.52V5.33h-6.1V2.28h-1.52v3.05h-10.67V2.28h-1.52v3.05h-6.09v1.53h-1.53v1.52h3.05v16.76h1.52V8.38h19.81zM25.905 25.14h-1.52v4.57h1.52v-4.57zM24.385 29.71H7.625v1.53h16.76v-1.53z" fill="#E6D4BF"/><path d="M22.855 11.43h-1.52v12.19h1.52V11.43zM21.335 23.62h-1.52v3.04h1.52v-3.04zM16.765 11.43h-1.52v15.23h1.52V11.43zM21.335.76h-10.67v1.52h10.67V.76zM12.195 23.62h-1.53v3.04h1.53v-3.04zM10.665 11.43h-1.52v12.19h1.52V11.43zM7.625 25.14h-1.53v4.57h1.53v-4.57z" fill="#E6D4BF"/></svg>