<svg xmlns="http://www.w3.org/2000/svg" xmlns:xlink="http://www.w3.org/1999/xlink" width="48" height="48"><defs><linearGradient id="prefix__a"><stop offset="0" stop-opacity="0"/><stop offset=".5"/><stop offset="1" stop-opacity="0"/></linearGradient><linearGradient x1="11.508" y1="39" x2="11.508" y2="47.016" id="prefix__k" xlink:href="#prefix__a" gradientUnits="userSpaceOnUse"/><linearGradient id="prefix__b"><stop offset="0"/><stop offset="1" stop-opacity="0"/></linearGradient><linearGradient id="prefix__c"><stop offset="0" stop-color="#9d9b97"/><stop offset="1" stop-color="#706d69"/></linearGradient><linearGradient x1="11.579" y1="21.054" x2="35.079" y2="52.564" id="prefix__l" xlink:href="#prefix__c" gradientUnits="userSpaceOnUse" gradientTransform="matrix(1.03034 0 0 1 -3.305 1)"/><linearGradient id="prefix__d"><stop offset="0" stop-color="#2e3436"/><stop offset="1" stop-color="#555753"/></linearGradient><linearGradient x1="8.125" y1="18.625" x2="8.125" y2="1.562" id="prefix__m" xlink:href="#prefix__d" gradientUnits="userSpaceOnUse" gradientTransform="matrix(1.03034 0 0 1 -3.305 1)"/><linearGradient id="prefix__e"><stop offset="0" stop-color="#fff"/><stop offset="1" stop-color="#fff" stop-opacity="0"/></linearGradient><linearGradient x1="7.625" y1="4.938" x2="9.188" y2="22.625" id="prefix__n" xlink:href="#prefix__e" gradientUnits="userSpaceOnUse" gradientTransform="matrix(1.03034 0 0 1 -3.305 1)"/><linearGradient id="prefix__f"><stop offset="0" stop-color="#fff"/><stop offset="1" stop-color="#fff" stop-opacity="0"/></linearGradient><linearGradient x1="10.375" y1="11.063" x2="10.25" y2="5.621" id="prefix__o" xlink:href="#prefix__f" gradientUnits="userSpaceOnUse" gradientTransform="matrix(1.03034 0 0 1 -3.305 2)"/><linearGradient x1="14.498" y1="20.82" x2="14.911" y2="22.593" id="prefix__p" xlink:href="#prefix__g" gradientUnits="userSpaceOnUse" gradientTransform="matrix(.99184 0 0 1.00018 18.161 .994)"/><linearGradient x1="14.498" y1="20.82" x2="14.911" y2="22.593" id="prefix__q" xlink:href="#prefix__g" gradientUnits="userSpaceOnUse" gradientTransform="matrix(.99184 0 0 1.00018 18.161 6.996)"/><linearGradient id="prefix__g"><stop offset="0" stop-color="#fff"/><stop offset="1" stop-color="#fff" stop-opacity="0"/></linearGradient><linearGradient x1="14.498" y1="20.82" x2="17.693" y2="24.906" id="prefix__r" xlink:href="#prefix__g" gradientUnits="userSpaceOnUse" gradientTransform="matrix(.99184 0 0 1.00018 18.161 12.997)"/><linearGradient x1="29.225" y1="38.714" x2="30" y2="39.5" id="prefix__s" xlink:href="#prefix__h" gradientUnits="userSpaceOnUse" gradientTransform="translate(-3 1)"/><linearGradient x1="20.651" y1="38" x2="22.345" y2="40.419" id="prefix__t" xlink:href="#prefix__h" gradientUnits="userSpaceOnUse" gradientTransform="matrix(.99184 0 0 1.00018 -9.59 .994)"/><linearGradient x1="29.225" y1="38.714" x2="30" y2="39.5" id="prefix__u" xlink:href="#prefix__h" gradientUnits="userSpaceOnUse" gradientTransform="translate(-14.187 -5.92)"/><linearGradient x1="29.225" y1="38.714" x2="30" y2="39.5" id="prefix__v" xlink:href="#prefix__h" gradientUnits="userSpaceOnUse" gradientTransform="translate(-14.187 -12.248)"/><linearGradient x1="29.225" y1="38.714" x2="30" y2="39.5" id="prefix__w" xlink:href="#prefix__h" gradientUnits="userSpaceOnUse" gradientTransform="translate(-14.187 -18.168)"/><linearGradient x1="29.225" y1="38.714" x2="30" y2="39.5" id="prefix__x" xlink:href="#prefix__h" gradientUnits="userSpaceOnUse" gradientTransform="translate(-14.187 -5.92)"/><linearGradient x1="29.225" y1="38.714" x2="30" y2="39.5" id="prefix__y" xlink:href="#prefix__h" gradientUnits="userSpaceOnUse" gradientTransform="translate(-14.187 -12.248)"/><linearGradient x1="29.225" y1="38.714" x2="30" y2="39.5" id="prefix__z" xlink:href="#prefix__h" gradientUnits="userSpaceOnUse" gradientTransform="translate(-14.187 -18.168)"/><linearGradient x1="29.225" y1="38.714" x2="30" y2="39.5" id="prefix__A" xlink:href="#prefix__h" gradientUnits="userSpaceOnUse" gradientTransform="translate(-14.187 -5.92)"/><linearGradient x1="29.225" y1="38.714" x2="30" y2="39.5" id="prefix__B" xlink:href="#prefix__h" gradientUnits="userSpaceOnUse" gradientTransform="translate(-14.187 -12.248)"/><linearGradient id="prefix__h"><stop offset="0" stop-color="#888986"/><stop offset="1" stop-color="#888986" stop-opacity="0"/></linearGradient><linearGradient x1="29.225" y1="38.714" x2="30" y2="39.5" id="prefix__C" xlink:href="#prefix__h" gradientUnits="userSpaceOnUse" gradientTransform="translate(-14.187 -18.168)"/><radialGradient cx="3" cy="43" r="2" fx="3" fy="43" id="prefix__j" xlink:href="#prefix__b" gradientUnits="userSpaceOnUse" gradientTransform="matrix(2 0 0 2 35 -43)"/><radialGradient cx="3" cy="43" r="2" fx="3" fy="43" id="prefix__i" xlink:href="#prefix__b" gradientUnits="userSpaceOnUse" gradientTransform="matrix(2 0 0 2 -13 -129)"/></defs><g opacity=".4"><path transform="matrix(-.88578 0 0 -.99037 2.741 1.453)" style="marker:none" fill="url(#prefix__i)" overflow="visible" d="M-7-47h4v8h-4z"/><path style="marker:none" fill="url(#prefix__j)" overflow="visible" d="M41 39h4v8h-4z" transform="matrix(.88578 0 0 .99037 2.741 1.453)"/><path style="marker:none" fill="url(#prefix__k)" overflow="visible" d="M7 39h34v8H7z" transform="matrix(.88578 0 0 .99037 2.741 1.453)"/></g><rect width="32.97" height="36.459" rx="2.962" ry="2.875" x="7.515" y="9.041" style="marker:none" fill="url(#prefix__l)" stroke="#555753" stroke-width="1.015" stroke-linecap="round" stroke-miterlimit="6" stroke-dashoffset="1.4" overflow="visible"/><rect width="30.804" height="41" rx="1.982" ry="1.924" x="8.651" y="3.5" style="marker:none" opacity=".3" fill="none" stroke="#fff" stroke-width="1.015" stroke-linecap="round" stroke-miterlimit="6" stroke-dashoffset="1.4" overflow="visible"/><path d="M40.485 18V5.375c0-1.593-1.321-2.875-2.962-2.875H10.616c-1.642 0-3.091 1.282-3.091 2.875V18" style="marker:none" fill="url(#prefix__m)" stroke="#2e3436" stroke-width="1.015" stroke-miterlimit="6" stroke-dashoffset="1.4" overflow="visible"/><rect width="27.818" height="9" rx="1.212" ry="1.176" x="10.091" y="8" style="marker:none" fill="#d5d4c4" overflow="visible"/><path d="M39.455 17.51V5.348c0-1.05-.823-1.848-1.904-1.848h-26.83c-1.081 0-2.061.798-2.061 1.848V17.51" style="marker:none" opacity=".2" fill="none" stroke="url(#prefix__n)" stroke-width="1.015" stroke-linecap="square" stroke-miterlimit="6" stroke-dashoffset="1.4" overflow="visible"/><path d="M11.315 8c-.672 0-1.224.536-1.224 1.187v5.032c12.057-4.661 19.788-2.227 27.818 1.312V9.187c0-.651-.552-1.187-1.224-1.187h-25.37z" style="marker:none" opacity=".4" fill="url(#prefix__o)" overflow="visible"/><rect width="5.951" height="4.001" rx="1.038" ry="1.047" x="31.551" y="20.498" style="marker:none" fill="#a4895b" stroke="#816c48" stroke-width=".996" stroke-linecap="square" stroke-miterlimit="6" stroke-dashoffset="1.4" overflow="visible"/><rect width="3.967" height="2" rx="0" ry="0" x="32.543" y="21.498" style="marker:none" opacity=".4" fill="none" stroke="url(#prefix__p)" stroke-width=".996" stroke-linecap="square" stroke-linejoin="round" stroke-miterlimit="6" stroke-dashoffset="1.4" overflow="visible"/><rect width="5.951" height="4.001" rx="1.038" ry="1.047" x="31.551" y="26.499" style="marker:none" fill="#a4895b" stroke="#816c48" stroke-width=".996" stroke-linecap="square" stroke-miterlimit="6" stroke-dashoffset="1.4" overflow="visible"/><rect width="3.967" height="2" rx="0" ry="0" x="32.543" y="27.499" style="marker:none" opacity=".4" fill="none" stroke="url(#prefix__q)" stroke-width=".996" stroke-linecap="square" stroke-linejoin="round" stroke-miterlimit="6" stroke-dashoffset="1.4" overflow="visible"/><rect width="5.951" height="10.002" rx="1.038" ry="1.047" x="31.551" y="32.5" style="marker:none" fill="#dab425" stroke="#816c48" stroke-width=".996" stroke-linecap="square" stroke-miterlimit="6" stroke-dashoffset="1.4" overflow="visible"/><rect width="3.967" height="8.001" rx="0" ry="0" x="32.543" y="33.5" style="marker:none" opacity=".4" fill="none" stroke="url(#prefix__r)" stroke-width=".996" stroke-linecap="square" stroke-linejoin="round" stroke-miterlimit="6" stroke-dashoffset="1.4" overflow="visible"/><rect width="5" height="4" rx="1.047" ry="1.047" x="24.5" y="38.5" style="marker:none" fill="#555753" stroke="#2e3436" stroke-linecap="square" stroke-miterlimit="6" stroke-dashoffset="1.4" overflow="visible"/><path d="M11.275 5.105v.497a.795.795 0 00-.213-.126.61.61 0 00-.221-.04.414.414 0 00-.34.149c-.08.099-.12.237-.12.415s.04.317.12.417a.417.417 0 00.34.148.63.63 0 00.434-.169v.498a1.248 1.248 0 01-.5.106c-.293 0-.523-.088-.688-.264-.166-.177-.249-.422-.249-.736s.083-.56.249-.735c.165-.177.395-.265.688-.265a1.29 1.29 0 01.5.105m1.227.33a.294.294 0 00-.265.147c-.06.096-.09.235-.09.418 0 .182.03.322.09.42.061.096.15.145.265.145.113 0 .2-.049.26-.145.06-.098.09-.238.09-.42 0-.183-.03-.322-.09-.418a.288.288 0 00-.26-.147m0-.435c.28 0 .498.088.655.265.158.177.237.422.237.735s-.079.558-.237.735C13 6.91 12.782 7 12.502 7c-.281 0-.501-.089-.66-.265-.158-.177-.237-.422-.237-.735s.08-.558.237-.735c.159-.177.379-.265.66-.265m2.587.105v.497a.795.795 0 00-.214-.126.61.61 0 00-.22-.04.414.414 0 00-.34.149c-.081.099-.122.237-.122.415s.04.317.121.417a.417.417 0 00.34.148.63.63 0 00.435-.169v.498a1.248 1.248 0 01-.5.106c-.294 0-.523-.088-.69-.264-.165-.177-.248-.422-.248-.736s.083-.56.249-.735c.166-.177.395-.265.689-.265a1.29 1.29 0 01.5.105m1.226.33a.294.294 0 00-.264.147c-.06.096-.09.235-.09.418 0 .182.03.322.09.42.06.096.149.145.264.145.114 0 .2-.049.26-.145.06-.098.09-.238.09-.42 0-.183-.03-.322-.09-.418a.288.288 0 00-.26-.147m0-.435c.28 0 .499.088.656.265.157.177.236.422.236.735s-.079.558-.236.735c-.157.176-.376.265-.656.265s-.5-.089-.66-.265c-.158-.177-.236-.422-.236-.735s.078-.558.236-.735c.16-.177.38-.265.66-.265m2.001 1.093c-.108 0-.19.022-.245.065-.055.043-.082.107-.082.19 0 .078.022.138.066.182a.254.254 0 00.184.065c.098 0 .18-.04.247-.122a.477.477 0 00.1-.31v-.07h-.27m.795-.23v1.088h-.524v-.283a.729.729 0 01-.236.254.61.61 0 01-.318.078.534.534 0 01-.411-.172.644.644 0 01-.157-.449c0-.223.065-.387.196-.491.132-.105.338-.157.619-.157h.307v-.047c0-.097-.033-.167-.098-.211-.065-.046-.166-.068-.304-.068-.11 0-.215.013-.31.039a.975.975 0 00-.268.117v-.464A2.5 2.5 0 0118.28 5c.293 0 .505.068.635.204.13.135.196.355.196.66" font-size="3.172" font-weight="700" fill="#eeeeec" font-family="Bitstream Vera Sans"/><path style="marker:none" opacity=".3" fill="#fcaf3e" overflow="visible" d="M28.636 5h8.243v2h-8.243z"/><rect width="3" height="2" rx="0" ry="0" x="25.5" y="39.5" style="marker:none" fill="none" stroke="url(#prefix__s)" stroke-linecap="square" stroke-linejoin="round" stroke-miterlimit="6" stroke-dashoffset="1.4" overflow="visible"/><rect width="12.147" height="4.001" rx="1.038" ry="1.047" x="10.498" y="38.501" style="marker:none" fill="#555753" stroke="#2e3436" stroke-width=".996" stroke-linecap="square" stroke-miterlimit="6" stroke-dashoffset="1.4" overflow="visible"/><rect width="10.264" height="2" rx="0" ry="0" x="11.389" y="39.501" style="marker:none" fill="none" stroke="url(#prefix__t)" stroke-width=".996" stroke-linecap="square" stroke-linejoin="round" stroke-miterlimit="6" stroke-dashoffset="1.4" overflow="visible"/><g transform="matrix(.9993 0 0 1.00003 -2.802 .92)" stroke-linecap="square" stroke-miterlimit="6" stroke-dashoffset="1.4"><rect width="5" height="4" rx="1.047" ry="1.047" x="13.313" y="31.58" style="marker:none" fill="#555753" stroke="#2e3436" overflow="visible"/><rect width="3" height="2" rx="0" ry="0" x="14.313" y="32.58" style="marker:none" fill="none" stroke="url(#prefix__u)" stroke-linejoin="round" overflow="visible"/></g><g transform="matrix(.9993 0 0 1.00003 -2.802 1.247)" stroke-linecap="square" stroke-miterlimit="6" stroke-dashoffset="1.4"><rect width="5" height="4" rx="1.047" ry="1.047" x="13.313" y="25.252" style="marker:none" fill="#555753" stroke="#2e3436" overflow="visible"/><rect width="3" height="2" rx="0" ry="0" x="14.313" y="26.252" style="marker:none" fill="none" stroke="url(#prefix__v)" stroke-linejoin="round" overflow="visible"/></g><g transform="matrix(.9993 0 0 1.00003 -2.802 1.167)" stroke-linecap="square" stroke-miterlimit="6" stroke-dashoffset="1.4"><rect width="5" height="4" rx="1.047" ry="1.047" x="13.313" y="19.332" style="marker:none" fill="#555753" stroke="#2e3436" overflow="visible"/><rect width="3" height="2" rx="0" ry="0" x="14.313" y="20.332" style="marker:none" fill="none" stroke="url(#prefix__w)" stroke-linejoin="round" overflow="visible"/></g><g transform="matrix(.9993 0 0 1.00003 4.198 .921)" stroke-linecap="square" stroke-miterlimit="6" stroke-dashoffset="1.4"><rect width="5" height="4" rx="1.047" ry="1.047" x="13.313" y="31.58" style="marker:none" fill="#555753" stroke="#2e3436" overflow="visible"/><rect width="3" height="2" rx="0" ry="0" x="14.313" y="32.58" style="marker:none" fill="none" stroke="url(#prefix__x)" stroke-linejoin="round" overflow="visible"/></g><g transform="matrix(.9993 0 0 1.00003 4.198 1.25)" stroke-linecap="square" stroke-miterlimit="6" stroke-dashoffset="1.4"><rect width="5" height="4" rx="1.047" ry="1.047" x="13.313" y="25.252" style="marker:none" fill="#555753" stroke="#2e3436" overflow="visible"/><rect width="3" height="2" rx="0" ry="0" x="14.313" y="26.252" style="marker:none" fill="none" stroke="url(#prefix__y)" stroke-linejoin="round" overflow="visible"/></g><g transform="matrix(.9993 0 0 1.00003 4.198 1.169)" stroke-linecap="square" stroke-miterlimit="6" stroke-dashoffset="1.4"><rect width="5" height="4" rx="1.047" ry="1.047" x="13.313" y="19.332" style="marker:none" fill="#555753" stroke="#2e3436" overflow="visible"/><rect width="3" height="2" rx="0" ry="0" x="14.313" y="20.332" style="marker:none" fill="none" stroke="url(#prefix__z)" stroke-linejoin="round" overflow="visible"/></g><g transform="translate(11.187 .92)" stroke-linecap="square" stroke-miterlimit="6" stroke-dashoffset="1.4"><rect width="5" height="4" rx="1.047" ry="1.047" x="13.313" y="31.58" style="marker:none" fill="#555753" stroke="#2e3436" overflow="visible"/><rect width="3" height="2" rx="0" ry="0" x="14.313" y="32.58" style="marker:none" fill="none" stroke="url(#prefix__A)" stroke-linejoin="round" overflow="visible"/></g><g transform="translate(11.187 1.248)" stroke-linecap="square" stroke-miterlimit="6" stroke-dashoffset="1.4"><rect width="5" height="4" rx="1.047" ry="1.047" x="13.313" y="25.252" style="marker:none" fill="#555753" stroke="#2e3436" overflow="visible"/><rect width="3" height="2" rx="0" ry="0" x="14.313" y="26.252" style="marker:none" fill="none" stroke="url(#prefix__B)" stroke-linejoin="round" overflow="visible"/></g><rect width="5" height="4" rx="1.047" ry="1.047" x="13.313" y="19.332" transform="translate(11.187 1.168)" style="marker:none" fill="#555753" stroke="#2e3436" stroke-linecap="square" stroke-miterlimit="6" stroke-dashoffset="1.4" overflow="visible"/><rect width="3" height="2" rx="0" ry="0" x="14.313" y="20.332" transform="translate(11.187 1.168)" style="marker:none" fill="none" stroke="url(#prefix__C)" stroke-linecap="square" stroke-linejoin="round" stroke-miterlimit="6" stroke-dashoffset="1.4" overflow="visible"/></svg>