<svg width="32" height="32" fill="none" xmlns="http://www.w3.org/2000/svg"><g clip-path="url(#prefix__clip0_1178_17694)" fill="#E6D4BF"><path d="M27.425 3.05h-1.52v25.9h1.52V3.05zM25.905 28.95h-1.52v1.53h1.52v-1.53zM25.905 1.52h-1.52v1.53h1.52V1.52zM24.385 24.38h-10.67v4.57h10.67v-4.57zM24.385 30.48H7.615V32h16.77v-1.52zM24.385 18.29h-4.57v4.57h4.57v-4.57zm-1.53 3.04h-1.52v-1.52h1.52v1.52zM24.385 12.19h-4.57v4.57h4.57v-4.57zm-1.53 3.05h-1.52v-1.53h1.52v1.53zM7.615 3.05v7.62h16.77V3.05H7.615zm15.24 6.09H9.145V4.57h13.71v4.57z"/><path d="M21.335 6.1h-1.52v1.52h1.52V6.1zM18.285 6.1h-1.52v1.52h1.52V6.1zM18.285 18.29h-4.57v4.57h4.57v-4.57zm-1.52 3.04h-1.53v-1.52h1.53v1.52zM18.285 12.19h-4.57v4.57h4.57v-4.57zm-1.52 3.05h-1.53v-1.53h1.53v1.53zM12.2 28.95v-4.57H7.615v4.57H12.2zm-3.05-3.04h1.52v1.52H9.145l.005-1.52zM12.2 18.29H7.615v4.57H12.2v-4.57zm-1.53 3.04H9.145v-1.52h1.52l.005 1.52zM12.2 12.19H7.615v4.57H12.2v-4.57zm-1.53 3.05H9.145v-1.53h1.52l.005 1.53zM24.385 0H7.615v1.52h16.77V0zM7.615 28.95h-1.52v1.53h1.52v-1.53zM7.615 1.52h-1.52v1.53h1.52V1.52zM6.095 3.05h-1.52v25.9h1.52V3.05z"/></g><defs><clipPath id="prefix__clip0_1178_17694"><path fill="#fff" d="M0 0h32v32H0z"/></clipPath></defs></svg>