<svg width="256" height="256" viewBox="0 0 256 256" fill="none" xmlns="http://www.w3.org/2000/svg">
<g clip-path="url(#clip0_12_2)">
<path d="M127.985 70.4963L227.562 70.4964C217.471 53.0135 202.956 38.4954 185.475 28.4018C167.994 18.3082 148.163 12.995 127.977 12.9964C107.792 12.9978 87.9619 18.3138 70.4822 28.4098C53.0025 38.5059 38.489 53.026 28.4011 70.5104L78.1896 156.746L78.2339 156.735C73.1691 148.001 70.4963 138.086 70.4849 127.99C70.4736 117.894 73.1241 107.973 78.1693 99.2276C83.2144 90.4823 90.4759 83.2216 99.2218 78.1774C107.968 73.1332 117.889 70.4838 127.985 70.4963V70.4963Z" fill="url(#paint0_linear_12_2)"/>
<path d="M177.807 156.739L128.019 242.975C148.205 242.978 168.035 237.666 185.517 227.574C202.999 217.481 217.516 202.964 227.607 185.482C237.699 168 243.01 148.169 243.006 127.983C243.003 107.797 237.685 87.9682 227.587 70.4896L128.01 70.4897L127.998 70.5338C138.094 70.5145 148.017 73.1572 156.766 78.1955C165.516 83.2338 172.782 90.4896 177.833 99.2315C182.884 107.973 185.541 117.892 185.537 127.989C185.532 138.085 182.866 148.001 177.807 156.739V156.739Z" fill="url(#paint1_linear_12_2)"/>
<path d="M78.2079 156.765L28.4196 70.5288C18.3241 88.0088 13.0088 107.839 13.0081 128.025C13.0073 148.21 18.3212 168.041 28.4153 185.521C38.5094 203.002 53.0281 217.517 70.5113 227.607C87.9946 237.697 107.826 243.006 128.012 243L177.8 156.764L177.768 156.731C172.737 165.485 165.487 172.757 156.749 177.815C148.011 182.873 138.094 185.538 127.998 185.541C117.902 185.544 107.983 182.886 99.2415 177.834C90.5002 172.782 83.2452 165.515 78.2079 156.765V156.765Z" fill="url(#paint2_linear_12_2)"/>
<path d="M128 185.5C159.756 185.5 185.5 159.756 185.5 128C185.5 96.2436 159.756 70.5 128 70.5C96.2436 70.5 70.5 96.2436 70.5 128C70.5 159.756 96.2436 185.5 128 185.5Z" fill="white"/>
<path d="M128 173.521C153.14 173.521 173.521 153.14 173.521 128C173.521 102.859 153.14 82.4791 128 82.4791C102.86 82.4791 82.4792 102.859 82.4792 128C82.4792 153.14 102.86 173.521 128 173.521Z" fill="#1A73E8"/>
</g>
<defs>
<linearGradient id="paint0_linear_12_2" x1="215.139" y1="63.3204" x2="115.559" y2="235.798" gradientUnits="userSpaceOnUse">
<stop stop-color="#D93025"/>
<stop offset="1" stop-color="#EA4335"/>
</linearGradient>
<linearGradient id="paint1_linear_12_2" x1="234.115" y1="84.8719" x2="34.9546" y2="84.8717" gradientUnits="userSpaceOnUse">
<stop stop-color="#FCC934"/>
<stop offset="1" stop-color="#FBBC04"/>
</linearGradient>
<linearGradient id="paint2_linear_12_2" x1="140.449" y1="235.82" x2="40.8688" y2="63.3413" gradientUnits="userSpaceOnUse">
<stop stop-color="#1E8E3E"/>
<stop offset="1" stop-color="#34A853"/>
</linearGradient>
<clipPath id="clip0_12_2">
<rect width="230" height="230" fill="white" transform="translate(13 13)"/>
</clipPath>
</defs>
</svg>
