<svg width="32" height="32" fill="none" xmlns="http://www.w3.org/2000/svg"><g clip-path="url(#prefix__clip0_1178_8870)" fill="#E6D4BF"><path d="M1.52 9.14h28.96v19.81H32V3.05h-1.52v4.57H1.52V3.05H0v25.9h1.52V9.14zM30.48 28.95H1.52v1.53h28.96v-1.53z"/><path d="M4.57 12.19v13.72h22.86V12.19H4.57zm9.14 7.62h-1.52v1.52h-1.52v1.53H9.14v-1.53h1.53v-1.52h1.52v-1.52h-1.52v-1.53H9.14v-1.52h1.53v1.52h1.52v1.53h1.52v1.52zm9.15 0h-6.1v-1.52h6.1v1.52zM10.67 4.57H9.14V6.1h1.53V4.57zM7.62 4.57H6.1V6.1h1.52V4.57zM4.57 4.57H3.05V6.1h1.52V4.57zM30.48 1.52H1.52v1.53h28.96V1.52z"/></g><defs><clipPath id="prefix__clip0_1178_8870"><path fill="#fff" d="M0 0h32v32H0z"/></clipPath></defs></svg>