<svg width="32" height="32" fill="none" xmlns="http://www.w3.org/2000/svg"><g clip-path="url(#prefix__clip0_1178_7862)" fill="#E6D4BF"><path d="M28.95 7.62v1.52h1.53v1.53h-1.53v1.52H32V7.62h-3.05zM30.48 13.71h-1.53v1.53h1.53v-1.53zM30.48 4.57h-1.53v1.52h1.53V4.57zM28.95 15.24h-1.52v1.52h1.52v-1.52zM28.95 12.19h-1.52v1.52h1.52v-1.52zM28.95 6.09h-1.52v1.53h1.52V6.09zM28.95 3.05h-1.52v1.52h1.52V3.05zM27.43 16.76h-1.52v1.52h1.52v-1.52zM27.43 1.52h-1.52v1.53h1.52V1.52zM25.91 15.24h-1.53v1.52h1.53v-1.52zM25.91 3.05h-1.53v1.52h1.53V3.05zM19.81 0v3.05h1.53V1.52h1.52v1.53h1.52V0h-4.57zM22.86 25.9h-1.52v1.53h1.52V25.9zM19.81 16.76v1.52h3.05v3.05h-3.05v1.53h4.57v-6.1h-4.57zM21.34 27.43h-1.53v1.52h1.53v-1.52zM21.34 24.38h-1.53v1.52h1.53v-1.52zM21.34 13.71h-1.53v1.53h1.53v-1.53zM19.81 12.19h1.53v1.52h3.04v-1.52h1.53V7.62h-1.53v1.52h-1.52V7.62h1.52V6.09h-4.57v1.53h-1.52v3.05h1.52v1.52zM19.81 28.95h-1.52v1.53h1.52v-1.53zM19.81 22.86h-1.52v1.52h1.52v-1.52zM19.81 15.24h-1.52v1.52h1.52v-1.52zM19.81 3.05h-1.52v1.52h1.52V3.05zM18.29 27.43h-1.53v1.52h1.53v-1.52zM18.29 10.67h-1.53v1.52h1.53v-1.52zM18.29 1.52h-1.53v1.53h1.53V1.52zM16.76 25.9h-1.52v1.53h1.52V25.9zM16.76 18.28h-1.52v3.05h1.52v-3.05zM16.76 12.19h-1.52v1.52h1.52v-1.52zM16.76 3.05h-1.52v1.52h1.52V3.05zM13.72 30.48h-3.05v-3.05H9.15V32h6.09v-4.57h-1.52v3.05zM15.24 21.33h-1.52v1.53h1.52v-1.53zM15.24 16.76h-1.52v1.52h1.52v-1.52zM15.24 4.57h-1.52v1.52h1.52V4.57zM13.72 15.24h-3.05v1.52h3.05v-1.52zM13.72 22.86h-3.05v1.52h3.05v-1.52zM10.67 21.33H9.15v1.53h1.52v-1.53zM10.67 16.76H9.15v1.52h1.52v-1.52zM10.67 9.14h3.05v3.05h1.52V7.62H9.15v4.57h1.52V9.14zM9.15 25.9H7.62v1.53h1.53V25.9zM9.15 18.28H7.62v3.05h1.53v-3.05zM9.15 12.19H7.62v1.52h1.53v-1.52zM7.62 27.43H6.1v1.52h1.52v-1.52zM7.62 10.67H6.1v1.52h1.52v-1.52zM6.1 28.95H4.57v1.53H6.1v-1.53zM6.1 22.86H4.57v1.52H6.1v-1.52zM6.1 15.24H4.57v1.52H6.1v-1.52zM6.1 9.14H4.57v1.53H6.1V9.14zM4.57 27.43H3.05v1.52h1.52v-1.52zM4.57 24.38H3.05v1.52h1.52v-1.52zM1.53 21.33v-3.05h3.04v-1.52H0v6.1h4.57v-1.53H1.53zM4.57 13.71H3.05v1.53h1.52v-1.53zM4.57 10.67H3.05v1.52h1.52v-1.52zM3.05 25.9H1.53v1.53h1.52V25.9zM3.05 12.19H1.53v1.52h1.52v-1.52z"/></g><defs><clipPath id="prefix__clip0_1178_7862"><path fill="#fff" d="M0 0h32v32H0z"/></clipPath></defs></svg>