<svg width="32" height="32" fill="none" xmlns="http://www.w3.org/2000/svg"><g clip-path="url(#prefix__clip0_1178_8077)" fill="#E6D4BF"><path d="M2.29 9.14h27.42v21.34h1.53V4.57h-1.53V3.05h-4.57V6.1h-1.52V3.05H8.38V6.1H6.86V3.05H2.29v1.52H.76v25.91h1.53V9.14zM29.71 30.48H2.29V32h27.42v-1.52zM25.14 0h-1.52v3.05h1.52V0z"/><path d="M17.52 15.24v6.09h4.57v3.05h-4.57v1.52h6.1v-6.09h-4.57v-3.05h4.57v-1.52h-6.1zM12.95 15.24h-1.52v1.52H8.38v1.53h3.05v6.09H8.38v1.52H16v-1.52h-3.05v-9.14zM8.38 0H6.86v3.05h1.52V0z"/></g><defs><clipPath id="prefix__clip0_1178_8077"><path fill="#fff" d="M0 0h32v32H0z"/></clipPath></defs></svg>