<svg width="32" height="32" fill="none" xmlns="http://www.w3.org/2000/svg"><g clip-path="url(#prefix__clip0_1178_9007)" fill="#E6D4BF"><path d="M32 19.81h-3.05v3.05H32v-3.05zM32 28.96h-3.05V32H32v-3.04zM32 24.39h-7.62v3.04H32v-3.04zM30.48 9.15h-1.53v1.52h1.53V9.15zM27.43 15.24h1.52v-4.57H25.9v1.52h1.53v3.05zM27.43 15.24H25.9v1.53h1.53v-1.53zM27.43 28.96h-7.62V32h7.62v-3.04zM25.9 12.19h-1.52v1.53h1.52v-1.53zM25.9 4.58h1.53V3.05h-4.57v1.53h1.52v4.57h1.52V4.58zM25.9 16.77h-3.04v1.52h3.04v-1.52zM24.38 9.15h-1.52v3.04h1.52V9.15zM22.86 4.58h-1.53V6.1h1.53V4.58zM22.86 24.39h-9.15v3.04h9.15v-3.04zM27.43 19.81h-9.14v3.05h9.14v-3.05zM21.33 9.15h-1.52v1.52h1.52V9.15zM21.33 6.1h-1.52v1.52h1.52V6.1zM19.81 4.58h-1.52V6.1h1.52V4.58z"/><path d="M16.76 7.62v1.53h-1.52v1.52h-1.53v1.52h1.53v1.53h-1.53v-1.53h-3.04v1.53h1.52v3.05h1.52v1.52h6.1v-1.52h1.52v-4.58h-1.52v-1.52h-1.52v1.52h-1.53v-1.52h1.53V7.62h-1.53zm1.53 6.1h1.52v1.52h-1.52v-1.52zm-1.53 3.05h-1.52v-1.53h1.52v1.53zM19.81 1.53V0h-4.57v1.53h1.52v3.05h1.53V1.53h1.52zM18.29 28.96H9.14V32h9.15v-3.04zM16.76 19.81H7.62v3.05h9.14v-3.05z"/><path d="M15.24 1.53h-1.53V6.1h1.53V1.53zM13.71 6.1h-1.52v1.52h1.52V6.1zM12.19 4.58h-1.52V6.1h1.52V4.58zM12.19 24.39H4.57v3.04h7.62v-3.04zM10.67 6.1H9.14v4.57h1.53V6.1zM10.67 3.05H9.14v1.53h1.53V3.05zM10.67 16.77H7.62v1.52h3.05v-1.52zM9.14 10.67H7.62v1.52h1.52v-1.52zM9.14 4.58H7.62V6.1h1.52V4.58zM7.62 15.24H6.1v1.53h1.52v-1.53zM7.62 28.96H0V32h7.62v-3.04zM3.05 9.15v1.52h1.52v4.57H6.1v-4.57h1.52V9.15H3.05zM3.05 24.39H0v3.04h3.05v-3.04zM6.1 19.81H0v3.05h6.1v-3.05zM3.05 7.62H1.52v1.53h1.53V7.62z"/></g><defs><clipPath id="prefix__clip0_1178_9007"><path fill="#fff" d="M0 0h32v32H0z"/></clipPath></defs></svg>