<svg width="32" height="32" fill="none" xmlns="http://www.w3.org/2000/svg"><g clip-path="url(#prefix__g)" fill="#E6D4BF"><path d="M30.48 10.66h-9.15v1.53h-1.52v1.52h-1.52v1.52h-1.53V4.57h1.53V1.52h-1.53V0h-1.52v1.52h-1.53v3.05h-1.52v3.05h-1.52v3.04H1.52v1.53H0v1.52h1.52v1.52h1.53v1.53H6.1v1.52h1.52v3.05h1.52v-1.52h3.05v-1.53h3.05v1.53h-1.53v1.52h-1.52v1.52h-1.52v1.53H9.14v1.52H7.62v1.53H6.1v1.52H4.57v-1.52H3.05v3.04h1.52V32h3.05v-1.53h1.52v-1.52h3.05v-1.52h1.52V25.9h1.53v-1.52h1.52v-4.57h1.53v1.52h1.52v1.52h1.52v1.53h1.53v1.52h1.52v1.53h1.52v3.04h-1.52V32h3.05v-1.53h1.52v-3.04h-1.52v-3.05H25.9v-3.05h-1.52v-3.05h1.52v-1.52h-3.04v1.52h-6.1v-1.52h4.57v-1.53h1.53v-1.52h6.09v1.52h1.53v-1.52H32v-1.52h-1.52v-1.53zm-16.77 6.1h-3.04v-1.53H7.62v-1.52H4.57v-1.52h7.62v1.52h1.52v3.05z"/><path d="M28.95 15.23H25.9v1.53h3.05v-1.53zM24.38 28.95h-1.52v1.52h1.52v-1.52zM22.86 27.43h-3.05v1.52h3.05v-1.52zM21.33 7.62h-1.52v3.04h1.52V7.62zM19.81 25.9h-1.52v1.53h1.52V25.9zM19.81 4.57h-1.52v3.05h1.52V4.57zM18.29 24.38h-1.53v1.52h1.53v-1.52zM7.62 21.33H6.1v3.05h1.52v-3.05zM6.1 24.38H4.57v3.05H6.1v-3.05z"/></g><defs><clipPath id="prefix__g"><path fill="#fff" d="M0 0h32v32H0z"/></clipPath></defs></svg>