<svg width="32" height="32" fill="none" xmlns="http://www.w3.org/2000/svg"><path d="M30.48 27.43h-6.09V1.52h6.09V0H4.58v1.52h18.28v7.62h-4.57v1.53h4.57v4.57h-1.52v1.52h-3.05v-1.52h-1.52v1.52H12.2v-3.04h-1.53v3.04H3.05v-3.04H1.53v3.04H0v10.67h1.53v-9.14h13.71v9.14H1.53v1.52h1.52V32h1.53v-3.05h18.28V32h1.53v-3.05h6.09V32H32V1.52h-1.52v25.91z" fill="#E6D4BF"/><path d="M16.77 4.57h-6.1V6.1h6.1V4.57zM10.67 21.33H6.1v1.53h4.57v-1.53zM4.58 1.52H3.05v6.1h1.53v-6.1zM9.15 10.67v3.05h1.52v-1.53h4.57v3.05h1.53v-1.52h3.04v1.52h1.53v-3.05h-4.57v-1.52h-6.1V9.14H0v4.58h1.53v-3.05h7.62z" fill="#E6D4BF"/></svg>