<svg xmlns="http://www.w3.org/2000/svg" xmlns:xlink="http://www.w3.org/1999/xlink" version="1.0" width="48" height="48"><defs><linearGradient id="prefix__g"><stop offset="0" stop-opacity="0"/><stop offset=".5"/><stop offset="1" stop-opacity="0"/></linearGradient><linearGradient id="prefix__f"><stop offset="0"/><stop offset="1" stop-opacity="0"/></linearGradient><linearGradient id="prefix__e"><stop offset="0" stop-color="#aaa"/><stop offset="1" stop-color="#c8c8c8"/></linearGradient><linearGradient id="prefix__d"><stop offset="0" stop-color="#f4f4f4"/><stop offset="1" stop-color="#dbdbdb"/></linearGradient><linearGradient id="prefix__b"><stop offset="0" stop-color="#fff"/><stop offset="1" stop-color="#fff" stop-opacity="0"/></linearGradient><linearGradient id="prefix__a"><stop offset="0" stop-color="#fefefe"/><stop offset="1" stop-color="#cbcbcb"/></linearGradient><linearGradient x1="32.892" y1="8.059" x2="36.358" y2="5.457" id="prefix__p" xlink:href="#prefix__a" gradientUnits="userSpaceOnUse" gradientTransform="matrix(.9977 0 0 1.04069 .164 -1.106)"/><linearGradient x1="24" y1="2" x2="24" y2="46.017" id="prefix__n" xlink:href="#prefix__b" gradientUnits="userSpaceOnUse" gradientTransform="matrix(1 0 0 .97778 0 -.967)"/><linearGradient x1="25.132" y1=".985" x2="25.132" y2="47.013" id="prefix__k" xlink:href="#prefix__d" gradientUnits="userSpaceOnUse" gradientTransform="matrix(1 0 0 .95617 0 -1.915)"/><linearGradient x1="-51.786" y1="50.786" x2="-51.786" y2="2.906" id="prefix__l" xlink:href="#prefix__e" gradientUnits="userSpaceOnUse" gradientTransform="matrix(.8075 0 0 .89483 59.41 -2.98)"/><linearGradient x1="302.857" y1="366.648" x2="302.857" y2="609.505" id="prefix__h" xlink:href="#prefix__g" gradientUnits="userSpaceOnUse" gradientTransform="matrix(.06732 0 0 .0147 -.341 37.04)"/><radialGradient cx="102" cy="112.305" r="139.559" id="prefix__c" gradientUnits="userSpaceOnUse"><stop offset="0" stop-color="#b7b8b9"/><stop offset=".189" stop-color="#ececec"/><stop offset=".257" stop-color="#fafafa" stop-opacity="0"/><stop offset=".301" stop-color="#fff" stop-opacity="0"/><stop offset=".531" stop-color="#fafafa" stop-opacity="0"/><stop offset=".845" stop-color="#ebecec" stop-opacity="0"/><stop offset="1" stop-color="#e1e2e3" stop-opacity="0"/></radialGradient><radialGradient cx="102" cy="112.305" r="139.559" id="prefix__m" xlink:href="#prefix__c" gradientUnits="userSpaceOnUse" gradientTransform="matrix(.3617 0 0 -.39078 .851 47.517)"/><radialGradient cx="605.714" cy="486.648" r="117.143" fx="605.714" fy="486.648" id="prefix__j" xlink:href="#prefix__f" gradientUnits="userSpaceOnUse" gradientTransform="matrix(.02304 0 0 .0147 26.36 37.04)"/><radialGradient cx="605.714" cy="486.648" r="117.143" fx="605.714" fy="486.648" id="prefix__i" xlink:href="#prefix__f" gradientUnits="userSpaceOnUse" gradientTransform="matrix(-.02304 0 0 .0147 21.623 37.04)"/><filter x="-.148" y="-.164" width="1.297" height="1.329" color-interpolation-filters="sRGB" id="prefix__o"><feGaussianBlur stdDeviation=".774"/></filter></defs><path style="marker:none" opacity=".3" fill="url(#prefix__h)" overflow="visible" d="M7.738 42.43h32.508V46H7.738z"/><path d="M7.738 42.43V46c-1.187.007-2.869-.8-2.869-1.785 0-.986 1.325-1.785 2.869-1.785z" style="marker:none" opacity=".3" fill="url(#prefix__i)" overflow="visible"/><path d="M40.246 42.43V46c1.187.007 2.869-.8 2.869-1.785 0-.986-1.325-1.785-2.869-1.785z" style="marker:none" opacity=".3" fill="url(#prefix__j)" overflow="visible"/><path d="M6.5.497h24.06c1.408.475 8.966 5.882 10.94 9.627v34.379h-35V.497z" fill="url(#prefix__k)" stroke="url(#prefix__l)" stroke-linejoin="round"/><path d="M7.362 44c-.2 0-.362-.175-.362-.39V1.404c0-.216.162-.39.362-.39 7.483.107 15.775-.162 23.25.026l10.282 8.866L41 43.61c0 .216-.162.391-.362.391H7.362z" fill="url(#prefix__m)"/><path d="M40.5 10.259v33.263h-33V1.478h22.866" opacity=".6" fill="none" stroke="url(#prefix__n)" stroke-linejoin="round"/><path d="M28.617.921c4.283 0 2.154 8.483 2.154 8.483s10.357-1.802 10.357 2.82c0-2.61-11.302-10.73-12.51-11.303z" opacity=".4" fill-rule="evenodd" filter="url(#prefix__o)"/><path d="M28.617.921c3.187 0 2.336 7.662 2.336 7.662s10.175-.98 10.175 3.64c0-1.126.086-1.932-.134-2.283C39.416 7.415 32.6 1.75 30.137 1.009c-.184-.056-.593-.088-1.52-.088z" fill="url(#prefix__p)" fill-rule="evenodd"/></svg>