<svg xmlns="http://www.w3.org/2000/svg" xmlns:xlink="http://www.w3.org/1999/xlink" version="1.0" width="64" height="64"><defs><linearGradient id="prefix__a"><stop offset="0" stop-color="#bdbdbd"/><stop offset="1" stop-color="#d0d0d0"/></linearGradient><linearGradient id="prefix__b"><stop offset="0" stop-color="#f9f9f9"/><stop offset="1" stop-color="#c9c9c9"/></linearGradient><linearGradient x1="62.989" y1="13.183" x2="62.989" y2="16.19" id="prefix__o" xlink:href="#prefix__b" gradientUnits="userSpaceOnUse" gradientTransform="translate(-50.94 .752)"/><linearGradient id="prefix__c"><stop offset="0"/><stop offset="1" stop-opacity="0"/></linearGradient><linearGradient id="prefix__d"><stop offset="0"/><stop offset="1" stop-opacity="0"/></linearGradient><linearGradient id="prefix__e"><stop offset="0" stop-opacity="0"/><stop offset=".5"/><stop offset="1" stop-opacity="0"/></linearGradient><linearGradient x1="302.857" y1="366.648" x2="302.857" y2="609.505" id="prefix__q" xlink:href="#prefix__e" gradientUnits="userSpaceOnUse" gradientTransform="matrix(.0843 0 0 .03706 -6.115 25.412)"/><linearGradient id="prefix__f"><stop offset="0" stop-color="#bb5e12"/><stop offset="1" stop-color="#cd8033"/></linearGradient><linearGradient x1="82.453" y1="45.114" x2="65.34" y2="15.944" id="prefix__u" xlink:href="#prefix__f" gradientUnits="userSpaceOnUse" gradientTransform="matrix(1.00002 0 0 .99734 -53.767 .682)"/><linearGradient id="prefix__g"><stop offset="0" stop-color="#edd563"/><stop offset="1" stop-color="#e08223"/></linearGradient><linearGradient id="prefix__h"><stop offset="0" stop-color="#0a0a0a" stop-opacity=".498"/><stop offset="1" stop-color="#0a0a0a" stop-opacity="0"/></linearGradient><linearGradient x1="22.935" y1="49.629" x2="22.809" y2="36.658" id="prefix__v" xlink:href="#prefix__h" gradientUnits="userSpaceOnUse" gradientTransform="matrix(1.1447 0 0 .99775 -3.466 1.85)"/><linearGradient id="prefix__i"><stop offset="0" stop-color="#fff" stop-opacity=".4"/><stop offset="1" stop-color="#fff" stop-opacity="0"/></linearGradient><linearGradient id="prefix__j"><stop offset="0" stop-color="#fff" stop-opacity=".275"/><stop offset="1" stop-color="#fff" stop-opacity=".078"/></linearGradient><linearGradient x1="11.566" y1="22.292" x2="15.215" y2="33.955" id="prefix__x" xlink:href="#prefix__j" gradientUnits="userSpaceOnUse" gradientTransform="translate(0 .902)"/><linearGradient id="prefix__k"><stop offset="0" stop-color="#fff"/><stop offset="1" stop-color="#fff" stop-opacity="0"/></linearGradient><linearGradient x1="28.503" y1="137.539" x2="26.257" y2="125.391" id="prefix__B" xlink:href="#prefix__l" gradientUnits="userSpaceOnUse" gradientTransform="matrix(.32287 0 0 .32433 29.719 -13.758)"/><linearGradient id="prefix__l"><stop offset="0" stop-color="#fff"/><stop offset="1" stop-color="#fff" stop-opacity=".345"/></linearGradient><linearGradient id="prefix__m"><stop offset="0" stop-color="#fff"/><stop offset="1" stop-color="#fff" stop-opacity="0"/></linearGradient><linearGradient x1="28.739" y1="144.117" x2="26.257" y2="125.391" id="prefix__z" xlink:href="#prefix__l" gradientUnits="userSpaceOnUse" gradientTransform="matrix(.44564 0 0 .32433 44.653 -18.437)"/><linearGradient id="prefix__n"><stop offset="0"/><stop offset="1" stop-opacity="0"/></linearGradient><radialGradient cx="3" cy="5.017" r="21" fx="3" fy="5.017" id="prefix__p" xlink:href="#prefix__a" gradientUnits="userSpaceOnUse" gradientTransform="matrix(0 1.7143 -2.15933 0 12.81 3.609)"/><radialGradient cx="605.714" cy="486.648" r="117.143" fx="605.714" fy="486.648" id="prefix__s" xlink:href="#prefix__c" gradientUnits="userSpaceOnUse" gradientTransform="matrix(-.03213 0 0 .03706 23.363 25.412)"/><radialGradient cx="605.714" cy="486.648" r="117.143" fx="605.714" fy="486.648" id="prefix__r" xlink:href="#prefix__d" gradientUnits="userSpaceOnUse" gradientTransform="matrix(.03213 0 0 .03706 25.337 25.412)"/><radialGradient cx="63.969" cy="14.113" r="23.097" fx="63.969" fy="14.113" id="prefix__t" xlink:href="#prefix__g" gradientUnits="userSpaceOnUse" gradientTransform="matrix(1.56473 0 0 1.01318 -86.215 8.92)"/><radialGradient cx="7.265" cy="8.302" r="20.98" fx="7.265" fy="8.302" id="prefix__w" xlink:href="#prefix__i" gradientUnits="userSpaceOnUse" gradientTransform="matrix(0 1.20797 -1.62716 0 26.148 8.868)"/><radialGradient cx="17.059" cy="41.059" r="5.738" fx="14.688" fy="37.456" id="prefix__C" xlink:href="#prefix__k" gradientUnits="userSpaceOnUse" gradientTransform="matrix(.95844 -.17154 .03365 .91199 15.853 19.166)"/><radialGradient cx="17.059" cy="41.059" r="5.738" fx="14.758" fy="37.841" id="prefix__A" xlink:href="#prefix__m" gradientUnits="userSpaceOnUse" gradientTransform="matrix(1.00916 -.16363 .02203 .94329 33.038 14.99)"/><radialGradient cx="22.902" cy="45.867" r="7.906" fx="22.902" fy="45.867" id="prefix__y" xlink:href="#prefix__n" gradientUnits="userSpaceOnUse" gradientTransform="matrix(1.00913 0 0 .43337 9.372 39.148)"/></defs><g transform="matrix(1.34077 0 0 1.33 -.373 -2.51)"><path d="M4.217 9.112c-.69.008-1.226.493-1.226 1.15 0 5.515.032 9.74 0 14.751 1.435 0 42.435-3.71 42.435-5.303v-6.451c0-.658-.48-1.158-1.17-1.15H24c-2.047 0-3.499-3.007-5-3.007l-14.783.01z" fill="url(#prefix__o)" stroke="url(#prefix__p)" stroke-width=".749" stroke-linecap="round" stroke-linejoin="round"/><g opacity=".4"><path style="marker:none" fill="url(#prefix__q)" overflow="visible" d="M4 39h40.7v9H4z" transform="matrix(.95833 0 0 .66667 1 15.752)"/><path d="M44.7 39v9c1.655.017 4-2.017 4-4.5 0-2.485-1.846-4.5-4-4.5z" style="marker:none" fill="url(#prefix__r)" overflow="visible" transform="matrix(.95833 0 0 .66667 1 15.752)"/><path d="M4 39v9c-1.655.017-4-2.017-4-4.5C0 41.014 1.846 39 4 39z" style="marker:none" fill="url(#prefix__s)" overflow="visible" transform="matrix(.95833 0 0 .66667 1 15.752)"/></g><path d="M2.162 17.277c-1.072.123-.648 1.398-.734 2.115.393 8.448.938 16.725 1.328 25.173.342.963 1.595.47 2.388.592h39.582c1.09-.107.636-1.404.79-2.147.392-8.447.938-16.725 1.328-25.172-.251-.952-1.669-.423-2.413-.561H2.162z" fill="url(#prefix__t)" stroke="url(#prefix__u)" stroke-width=".748" stroke-linecap="round" stroke-linejoin="round"/><path d="M2.058 16.817h43.897c.634 0 1.045.445 1.045.998l-1.244 26.94c0 .552-.51.997-1.145.997H3.402c-.634 0-1.145-.445-1.145-.998l-1.244-26.94c0-.552.411-.997 1.045-.997z" opacity=".4" fill="url(#prefix__v)"/><path d="M46.277 18.102h-44c.239 7.845.77 16.354 1.156 24.531" fill="none" stroke="url(#prefix__w)" stroke-width=".749" stroke-linecap="round" stroke-linejoin="round"/><path d="M45.75 16.902c-14.55.074-29.105-.02-43.656 0-1.807.411-.835 2.467-.973 3.772.222 4.163.323 8.345.62 12.497 15.001-2.363 29.927-4.608 44.665-7.05.781-2.587.788-5.67.658-8.43-.23-.504-.787-.8-1.314-.789z" fill="url(#prefix__x)"/><rect width="14.171" height="1.595" rx="1" ry=".749" x="4.753" y="10.91" style="marker:none" fill="#edbd74" display="block" overflow="visible"/></g><path d="M40.461 59.025a7.978 3.426 0 01-15.956 0 7.978 3.426 0 1115.956 0z" opacity=".3" fill="url(#prefix__y)"/><path d="M55.77 22.519c-6.008.96-12.032 2.823-18.035 3.809-1.633.82-1.049 2.902-1.154 4.37v17.066c-4.195-.935-9.036 2.338-9.072 6.783-.189 2.855 2.566 5.22 5.337 4.96 3.756-.193 7.195-3.832 6.793-7.718V33.732c4.954-.715 9.897-2.5 14.85-3.216v14.689c-4.019-1.158-8.855 1.496-9.52 5.74-.558 2.5 1.19 5.014 3.577 5.73 4.468 1.464 9.466-2.856 8.94-7.476-.013-8.665.037-16.23 0-24.895-.106-.861-.779-1.829-1.717-1.785z" fill="#4d4d4d" stroke="#333" stroke-linecap="round" stroke-linejoin="round"/><path d="M55.009 45.657l.06-15.522c.625-.081.095-.013.94-.135.011 3.086.015 4.165.015 15.82 0 .087-.364-.043-1.015-.163z" opacity=".4" fill="url(#prefix__z)" fill-rule="evenodd"/><path d="M56.949 49.944c0 2.945-2.593 5.774-5.791 6.318-3.199.544-5.791-1.401-5.791-4.346 0-2.945 2.592-5.774 5.79-6.318 3.2-.544 5.792 1.401 5.792 4.346z" opacity=".6" fill="url(#prefix__A)"/><path d="M37.085 48.486v-20.47s.117-1.248 1.175-1.252c.092.16 17.857-3.882 17.857-3.882S57 24 49.114 25.689c-10.802 2.314-11.029 2.033-11.029 3.162v20.164c-.235-.2-.528-.409-1-.529z" opacity=".4" fill="url(#prefix__B)" fill-rule="evenodd"/><path d="M39.085 52.732c0 2.848-2.462 5.584-5.5 6.11-3.038.527-5.5-1.355-5.5-4.203 0-2.849 2.462-5.585 5.5-6.111 3.038-.527 5.5 1.355 5.5 4.204z" opacity=".6" fill="url(#prefix__C)"/></svg>