<svg xmlns="http://www.w3.org/2000/svg" xmlns:xlink="http://www.w3.org/1999/xlink" version="1.0" width="64" height="64"><defs><linearGradient id="prefix__a"><stop offset="0" stop-color="#bdbdbd"/><stop offset="1" stop-color="#d0d0d0"/></linearGradient><linearGradient id="prefix__b"><stop offset="0" stop-color="#f9f9f9"/><stop offset="1" stop-color="#c9c9c9"/></linearGradient><linearGradient x1="62.989" y1="13.183" x2="62.989" y2="16.19" id="prefix__q" xlink:href="#prefix__b" gradientUnits="userSpaceOnUse" gradientTransform="translate(-50.94 .752)"/><linearGradient id="prefix__c"><stop offset="0"/><stop offset="1" stop-opacity="0"/></linearGradient><linearGradient id="prefix__d"><stop offset="0"/><stop offset="1" stop-opacity="0"/></linearGradient><linearGradient id="prefix__e"><stop offset="0" stop-opacity="0"/><stop offset=".5"/><stop offset="1" stop-opacity="0"/></linearGradient><linearGradient x1="302.857" y1="366.648" x2="302.857" y2="609.505" id="prefix__s" xlink:href="#prefix__e" gradientUnits="userSpaceOnUse" gradientTransform="matrix(.0843 0 0 .03706 -6.115 25.412)"/><linearGradient id="prefix__f"><stop offset="0" stop-color="#bb5e12"/><stop offset="1" stop-color="#cd8033"/></linearGradient><linearGradient x1="82.453" y1="45.114" x2="65.34" y2="15.944" id="prefix__w" xlink:href="#prefix__f" gradientUnits="userSpaceOnUse" gradientTransform="matrix(1.00002 0 0 .99734 -53.767 .682)"/><linearGradient id="prefix__g"><stop offset="0" stop-color="#edd563"/><stop offset="1" stop-color="#e08223"/></linearGradient><linearGradient id="prefix__h"><stop offset="0" stop-color="#0a0a0a" stop-opacity=".498"/><stop offset="1" stop-color="#0a0a0a" stop-opacity="0"/></linearGradient><linearGradient x1="22.935" y1="49.629" x2="22.809" y2="36.658" id="prefix__x" xlink:href="#prefix__h" gradientUnits="userSpaceOnUse" gradientTransform="matrix(1.1447 0 0 .99775 -3.466 1.85)"/><linearGradient id="prefix__i"><stop offset="0" stop-color="#fff" stop-opacity=".4"/><stop offset="1" stop-color="#fff" stop-opacity="0"/></linearGradient><linearGradient id="prefix__j"><stop offset="0" stop-color="#fff" stop-opacity=".275"/><stop offset="1" stop-color="#fff" stop-opacity=".078"/></linearGradient><linearGradient x1="11.566" y1="22.292" x2="15.215" y2="33.955" id="prefix__z" xlink:href="#prefix__j" gradientUnits="userSpaceOnUse" gradientTransform="translate(0 .902)"/><linearGradient x1="32.892" y1="8.059" x2="36.358" y2="5.457" id="prefix__F" xlink:href="#prefix__k" gradientUnits="userSpaceOnUse" gradientTransform="matrix(.85516 0 0 .84946 22.07 22.332)"/><linearGradient id="prefix__k"><stop offset="0" stop-color="#fefefe"/><stop offset="1" stop-color="#cbcbcb"/></linearGradient><linearGradient id="prefix__l"><stop offset="0" stop-color="#8e8e8e"/><stop offset="1" stop-color="#b5b5b5"/></linearGradient><linearGradient x1="22.104" y1="43.199" x2="22.104" y2="11.817" id="prefix__E" xlink:href="#prefix__l" gradientUnits="userSpaceOnUse" gradientTransform="matrix(1.0196 0 0 1.84394 43.767 -28.57)"/><linearGradient x1="-22.54" y1="11.109" x2="-22.54" y2="46.264" id="prefix__C" xlink:href="#prefix__m" gradientUnits="userSpaceOnUse" gradientTransform="matrix(.68509 0 0 .81922 56.948 21.96)"/><linearGradient id="prefix__m"><stop offset="0" stop-color="#bb9f93"/><stop offset="1" stop-color="#996751"/></linearGradient><linearGradient x1="9.492" y1="46.314" x2="9.492" y2="1.716" id="prefix__D" xlink:href="#prefix__n" gradientUnits="userSpaceOnUse" gradientTransform="matrix(.7808 0 0 .79747 22.448 22.46)"/><linearGradient id="prefix__n"><stop offset="0" stop-color="#835b49"/><stop offset="1" stop-color="#a88778"/></linearGradient><linearGradient id="prefix__o"><stop offset="0" stop-color="#f4f4f4"/><stop offset="1" stop-color="#dbdbdb"/></linearGradient><linearGradient id="prefix__p"><stop offset="0" stop-color="#9a9a9a"/><stop offset="1" stop-color="#afafaf"/></linearGradient><linearGradient x1="25.132" y1="6.729" x2="25.132" y2="47.013" id="prefix__A" xlink:href="#prefix__o" gradientUnits="userSpaceOnUse" gradientTransform="matrix(.85713 0 0 .79821 21.929 22.443)"/><linearGradient x1="-51.786" y1="50.786" x2="-51.786" y2="2.906" id="prefix__B" xlink:href="#prefix__p" gradientUnits="userSpaceOnUse" gradientTransform="matrix(.69213 0 0 .74701 72.851 21.553)"/><radialGradient cx="3" cy="5.017" r="21" fx="3" fy="5.017" id="prefix__r" xlink:href="#prefix__a" gradientUnits="userSpaceOnUse" gradientTransform="matrix(0 1.7143 -2.15933 0 12.81 3.609)"/><radialGradient cx="605.714" cy="486.648" r="117.143" fx="605.714" fy="486.648" id="prefix__u" xlink:href="#prefix__c" gradientUnits="userSpaceOnUse" gradientTransform="matrix(-.03213 0 0 .03706 23.363 25.412)"/><radialGradient cx="605.714" cy="486.648" r="117.143" fx="605.714" fy="486.648" id="prefix__t" xlink:href="#prefix__d" gradientUnits="userSpaceOnUse" gradientTransform="matrix(.03213 0 0 .03706 25.337 25.412)"/><radialGradient cx="63.969" cy="14.113" r="23.097" fx="63.969" fy="14.113" id="prefix__v" xlink:href="#prefix__g" gradientUnits="userSpaceOnUse" gradientTransform="matrix(1.56473 0 0 1.01318 -86.215 8.92)"/><radialGradient cx="7.265" cy="8.302" r="20.98" fx="7.265" fy="8.302" id="prefix__y" xlink:href="#prefix__i" gradientUnits="userSpaceOnUse" gradientTransform="matrix(0 1.20797 -1.62716 0 26.148 8.868)"/></defs><g transform="matrix(1.34077 0 0 1.33 -.373 -2.51)"><path d="M4.217 9.112c-.69.008-1.226.493-1.226 1.15 0 5.515.032 9.74 0 14.751 1.435 0 42.435-3.71 42.435-5.303v-6.451c0-.658-.48-1.158-1.17-1.15H24c-2.047 0-3.499-3.007-5-3.007l-14.783.01z" fill="url(#prefix__q)" stroke="url(#prefix__r)" stroke-width=".749" stroke-linecap="round" stroke-linejoin="round"/><g opacity=".4"><path style="marker:none" fill="url(#prefix__s)" overflow="visible" d="M4 39h40.7v9H4z" transform="matrix(.95833 0 0 .66667 1 15.752)"/><path d="M44.7 39v9c1.655.017 4-2.017 4-4.5 0-2.485-1.846-4.5-4-4.5z" style="marker:none" fill="url(#prefix__t)" overflow="visible" transform="matrix(.95833 0 0 .66667 1 15.752)"/><path d="M4 39v9c-1.655.017-4-2.017-4-4.5C0 41.014 1.846 39 4 39z" style="marker:none" fill="url(#prefix__u)" overflow="visible" transform="matrix(.95833 0 0 .66667 1 15.752)"/></g><path d="M2.162 17.277c-1.072.123-.648 1.398-.734 2.115.393 8.448.938 16.725 1.328 25.173.342.963 1.595.47 2.388.592h39.582c1.09-.107.636-1.404.79-2.147.392-8.447.938-16.725 1.328-25.172-.251-.952-1.669-.423-2.413-.561H2.162z" fill="url(#prefix__v)" stroke="url(#prefix__w)" stroke-width=".748" stroke-linecap="round" stroke-linejoin="round"/><path d="M2.058 16.817h43.897c.634 0 1.045.445 1.045.998l-1.244 26.94c0 .552-.51.997-1.145.997H3.402c-.634 0-1.145-.445-1.145-.998l-1.244-26.94c0-.552.411-.997 1.045-.997z" opacity=".4" fill="url(#prefix__x)"/><path d="M46.277 18.102h-44c.239 7.845.77 16.354 1.156 24.531" fill="none" stroke="url(#prefix__y)" stroke-width=".749" stroke-linecap="round" stroke-linejoin="round"/><path d="M45.75 16.902c-14.55.074-29.105-.02-43.656 0-1.807.411-.835 2.467-.973 3.772.222 4.163.323 8.345.62 12.497 15.001-2.363 29.927-4.608 44.665-7.05.781-2.587.788-5.67.658-8.43-.23-.504-.787-.8-1.314-.789z" fill="url(#prefix__z)"/><rect width="14.171" height="1.595" rx="1" ry=".749" x="4.753" y="10.91" style="marker:none" fill="#edbd74" display="block" overflow="visible"/></g><path d="M27.5 23.64h20.623c1.206.387 7.685 4.801 9.377 7.858V59.56h-30V23.64z" fill="url(#prefix__A)" stroke="url(#prefix__B)" stroke-width=".99" stroke-linejoin="round"/><path d="M32.212 59.553h-4.51c-.366-.425-.088-1.269-.175-1.87v-33.83l.05-.146.124-.06h4.45" style="marker:none" fill="url(#prefix__C)" stroke="url(#prefix__D)" stroke-width=".99" stroke-linejoin="round" display="block" overflow="visible"/><path d="M59.575 41.66h1.76v1.253h-1.76V41.66zm7.484 0h1.93v1.253h-1.93V41.66zm2.28 0h.776v1.253h-.776V41.66zm1.126 0h1.964v1.253h-1.964V41.66zm-5.99 0h2.234v1.253h-2.235V41.66zm-2.79 0h2.439v1.253h-2.439V41.66zm-6.256 0h3.796v1.253h-3.796V41.66zm21.102-2.5h1.898v1.252H76.53V39.16zm-3.883 0h3.563v1.252h-3.563V39.16zm-.892 0h.573v1.252h-.573V39.16zm-3.066 0h2.747v1.252H68.69V39.16zm-2.218 0h1.898v1.252h-1.898V39.16zm-2.217 0h1.898v1.252h-1.898V39.16zm-3.1 0h2.78v1.252h-2.78V39.16zm-1.538 0h1.218v1.252h-1.218V39.16zm-4.188 0h3.868v1.252H55.43V39.16zm20.467-2.502h.533v1.253h-.533v-1.253zm-2.554 0h2.28v1.253h-2.28v-1.253zm-3.865 0h3.39v1.253h-3.39v-1.253zm-2.89 0h2.582v1.253h-2.583v-1.253zm-2.118 0h1.608v1.253H64.47v-1.253zm-1.882 0h1.608v1.253h-1.608v-1.253zm-1.042 0h.835v1.253h-.835v-1.253zm-2.15 0h1.775v1.253h-1.776v-1.253zm-3.966 0h3.691v1.253H55.43v-1.253zm2.056-17.624h5.944v1.253h-5.944v-1.253zm-2.056 0h1.633v1.253h-1.633v-1.253zm11.575-5.003h2.287v1.253h-2.287v-1.253zm8.341 0h5.084v1.253h-5.084v-1.253zm-3.454 0h3.129v1.253h-3.13v-1.253zm-2.275 0h1.95v1.253h-1.95v-1.253zm-5.392 0h2.455v1.253h-2.455v-1.253zm-5.409 0H63.9v1.253h-5.084v-1.253zm-3.386 0h3.061v1.253H55.43v-1.253zm22.166 2.627h1.834v1.253h-1.834v-1.253zm-1.012 0h.676v1.253h-.676v-1.253zm-4.781 0h2.957v1.253h-2.957v-1.253zm3.293 0h1.152v1.253h-1.152v-1.253zm-7.948 0h4.319v1.253h-4.32v-1.253zm-2.17 0h1.834v1.253h-1.834v-1.253zm-4.927 0h4.591v1.253H60.05v-1.253zm-4.621 0h4.285v1.253h-4.285v-1.253zm20.35-5.003h.533v1.253h-.533v-1.253zm-2.617 0h2.28v1.253h-2.28v-1.253zm-3.726 0h3.39v1.253h-3.39v-1.253zm-2.92 0h2.583v1.253h-2.583v-1.253zm-1.945 0h1.608v1.253h-1.608v-1.253zm-1.945 0h1.608v1.253h-1.608v-1.253zm-1.172 0h.835v1.253h-.835v-1.253zm-2.113 0h1.776v1.253H59.34v-1.253zm-4.03 0h3.693v1.253h-3.692v-1.253zM77.033 9.03h2.28v1.253h-2.28V9.03zm-1.473 0h1.154v1.253h-1.154V9.03zm-4.09 0h3.77v1.253h-3.77V9.03zm-5.28 0h4.961v1.253H66.19V9.03zm-2.235 0h1.915v1.253h-1.915V9.03zm-1.176 0h.856v1.253h-.856V9.03zm-2.268 0h1.949v1.253H60.51V9.03zm-2.533 0h2.214v1.253h-2.214V9.03zm-2.665 0h2.346v1.253h-2.346V9.03zm22.283 18.877h1.834v1.253h-1.834v-1.253zm-1.012 0h.676v1.253h-.676v-1.253zm-4.781 0h2.957v1.253h-2.957v-1.253zm3.293 0h1.152v1.253h-1.152v-1.253zm-7.948 0h4.319v1.253h-4.32v-1.253zm-2.17 0h1.834v1.253h-1.834v-1.253zm-4.927 0h4.591v1.253H60.05v-1.253zm-4.621 0h4.285v1.253h-4.285v-1.253zm20.319-2.5h1.68v1.252h-1.68v-1.253zm-.928 0h.62v1.252h-.62v-1.253zm-4.383 0h2.711v1.252h-2.71v-1.253zm3.019 0h1.056v1.252h-1.056v-1.253zm-7.286 0h3.96v1.252h-3.96v-1.253zm-1.989 0h1.681v1.252h-1.68v-1.253zm-4.516 0h4.208v1.252h-4.208v-1.253zm-4.236 0h3.928v1.252h-3.928v-1.253zm20.467 5.001h.533v1.253h-.533v-1.253zm-2.554 0h2.28v1.253h-2.28v-1.253zm-3.865 0h3.39v1.253h-3.39v-1.253zm-2.89 0h2.582v1.253h-2.583v-1.253zm-2.118 0h1.608v1.253H64.47v-1.253zm-1.882 0h1.608v1.253h-1.608v-1.253zm-1.042 0h.835v1.253h-.835v-1.253zm-2.15 0h1.775v1.253h-1.776v-1.253zm-3.966 0h3.691v1.253H55.43v-1.253z" opacity=".7" fill="url(#prefix__E)" transform="matrix(.85708 0 0 .79811 -14.437 20.82)"/><path d="M47.228 23.781c.49 4.515.49 7.176.49 7.176s5.217 0 9.578.62c-4.197-3.822-7.354-5.525-10.068-7.796z" fill-opacity=".327" fill-rule="evenodd"/><path d="M47.35 23.646c1.21 3.291 1.11 6.594 1.11 6.594s6.714.437 8.721 1.273c0-1.366-7.97-7.843-9.831-7.867z" fill="url(#prefix__F)" fill-rule="evenodd"/></svg>