<svg width="32" height="32" fill="none" xmlns="http://www.w3.org/2000/svg"><g clip-path="url(#prefix__clip0_1178_10190)" fill="#E6D4BF"><path d="M30.472 3.045h-1.52v-1.52h-1.52v-1.53H6.092v12.2h-4.57v1.52h7.62v-1.52h-1.52V1.525h16.76v6.09h6.09v15.24h-1.52v3.05h1.52v4.57h1.53v-25.9h-1.53v-1.53zM30.472 30.475H7.622v1.52h22.85v-1.52z"/><path d="M28.952 19.805h-1.52v3.05h1.52v-3.05zM27.432 16.765h-1.53v3.04h1.53v-3.04zM25.902 15.235h-15.23v1.53h15.23v-1.53zM10.672 13.715h-1.53v1.52h1.53v-1.52zM7.622 27.425h-1.53v3.05h1.53v-3.05zM6.092 24.385h-1.52v3.04h1.52v-3.04zM4.572 21.335h-1.52v3.05h1.52v-3.05zM3.052 18.285h-1.53v3.05h1.53v-3.05zM1.522 13.715H.002v4.57h1.52v-4.57z"/></g><defs><clipPath id="prefix__clip0_1178_10190"><path fill="#fff" d="M0 0h32v32H0z"/></clipPath></defs></svg>