<svg width="32" height="32" fill="none" xmlns="http://www.w3.org/2000/svg"><path d="M17.525 31.24v-1.52h3.04v-1.53h3.05v-1.52h3.05v-1.53h1.52v-1.52h1.53V8.38h-1.53V6.86h-1.52v1.52h-3.05v1.53h-3.05v1.52h-3.04v1.52h-3.05v1.53H16v15.24h-1.52v1.52h3.045zm6.09-18.29h3.05v1.53h-3.05v-1.53zm-4.57 9.15H22.1v3.04h-3.05l-.005-3.04zM26.665 5.34h-3.05v1.52h3.05V5.34zM23.615 3.81h-3.05v1.53h3.05V3.81zM20.565 2.29h-3.04v1.52h3.04V2.29zM17.525 6.86h-3.05v3.05h3.05V6.86zM17.525.76h-3.05v1.53h3.05V.76zM14.475 28.19h-3.05v1.53h3.05v-1.53z" fill="#E6D4BF"/><path d="M14.475 11.43h-3.05v1.52h3.05v-1.52zM14.475 2.29h-3.05v1.52h3.05V2.29zM14.475 22.1h-3.05v3.04h3.05V22.1zM14.475 16h-3.05v3.05h3.05V16zM11.425 26.67h-3.05v1.52h3.05v-1.52zM11.425 9.91h-3.05v1.52h3.05V9.91zM11.425 3.81h-3.05v1.53h3.05V3.81zM8.375 25.14h-3.04v1.53h3.04v-1.53zM8.375 8.38h-3.04v1.53h3.04V8.38zM8.375 5.34h-3.04v1.52h3.04V5.34zM8.375 19.05h-3.04v3.05h3.04v-3.05zM8.375 12.95h-3.04V16h3.04v-3.05zM5.335 23.62h-1.53v1.52h1.53v-1.52zM5.335 6.86h-1.53v1.52h1.53V6.86zM3.805 8.38h-1.52v15.24h1.52V8.38z" fill="#E6D4BF"/></svg>