<svg xmlns="http://www.w3.org/2000/svg" xmlns:xlink="http://www.w3.org/1999/xlink" version="1.0" width="48" height="48"><defs><linearGradient id="prefix__c"><stop offset="0" stop-color="#e5e5e5"/><stop offset="1" stop-color="#c8c8c8"/></linearGradient><linearGradient id="prefix__a"><stop offset="0" stop-color="#fff"/><stop offset="1" stop-color="#fff" stop-opacity="0"/></linearGradient><linearGradient id="prefix__b"><stop offset="0" stop-color="#e5e5e5"/><stop offset="1" stop-color="#dfdfdf"/></linearGradient><linearGradient id="prefix__e"><stop offset="0" stop-opacity="0"/><stop offset=".5"/><stop offset="1" stop-opacity="0"/></linearGradient><linearGradient id="prefix__d"><stop offset="0"/><stop offset="1" stop-opacity="0"/></linearGradient><linearGradient x1="48" y1="18.534" x2="78" y2="18.534" id="prefix__q" xlink:href="#prefix__a" gradientUnits="userSpaceOnUse" gradientTransform="matrix(.96932 .30347 -.31303 .99988 -26.514 -28.878)"/><linearGradient x1="54.287" y1="9.114" x2="68.843" y2="38.118" id="prefix__u" xlink:href="#prefix__a" gradientUnits="userSpaceOnUse" gradientTransform="matrix(.86992 -.01269 .0134 .87615 -36.67 2.519)"/><linearGradient x1="34.562" y1="17.249" x2="50.809" y2="44.77" id="prefix__s" xlink:href="#prefix__b" gradientUnits="userSpaceOnUse" gradientTransform="matrix(.75944 0 0 .99671 -10.445 1.142)"/><linearGradient x1="35.321" y1="24.984" x2="51.861" y2="41.37" id="prefix__r" xlink:href="#prefix__c" gradientUnits="userSpaceOnUse" gradientTransform="matrix(.77826 0 0 1.00303 -10.791 .79)"/><linearGradient x1="48" y1="18.534" x2="78" y2="18.534" id="prefix__i" xlink:href="#prefix__a" gradientUnits="userSpaceOnUse" gradientTransform="matrix(.96932 .30347 -.31303 .99988 -26.514 -28.878)"/><linearGradient x1="54.287" y1="9.114" x2="68.843" y2="38.118" id="prefix__m" xlink:href="#prefix__a" gradientUnits="userSpaceOnUse" gradientTransform="matrix(.86992 -.01269 .0134 .87615 -22.672 -3.483)"/><linearGradient x1="34.562" y1="17.249" x2="50.809" y2="44.77" id="prefix__k" xlink:href="#prefix__b" gradientUnits="userSpaceOnUse" gradientTransform="matrix(.75944 0 0 .99671 3.543 -4.884)"/><linearGradient x1="35.321" y1="24.984" x2="51.861" y2="41.37" id="prefix__j" xlink:href="#prefix__c" gradientUnits="userSpaceOnUse" gradientTransform="matrix(.77826 0 0 1.00303 3.197 -5.237)"/><linearGradient x1="25.058" y1="47.028" x2="25.058" y2="39.999" id="prefix__p" xlink:href="#prefix__e" gradientUnits="userSpaceOnUse"/><linearGradient x1="25.058" y1="47.028" x2="25.058" y2="39.999" id="prefix__h" xlink:href="#prefix__e" gradientUnits="userSpaceOnUse"/><radialGradient cx="10.185" cy="20.632" r="12.977" fx="10.185" fy="20.632" id="prefix__t" xlink:href="#prefix__a" gradientUnits="userSpaceOnUse" gradientTransform="matrix(1 0 0 1.30865 -5.01 -15.857)"/><radialGradient cx="24.26" cy="14.133" r="12.977" fx="24.26" fy="14.133" id="prefix__l" xlink:href="#prefix__a" gradientUnits="userSpaceOnUse" gradientTransform="matrix(1 0 0 1.30865 -5.01 -13.997)"/><radialGradient cx="4.993" cy="43.5" r="2.5" fx="4.993" fy="43.5" id="prefix__n" xlink:href="#prefix__d" gradientUnits="userSpaceOnUse" gradientTransform="matrix(2.00378 0 0 1.4 27.988 -17.4)"/><radialGradient cx="4.993" cy="43.5" r="2.5" fx="4.993" fy="43.5" id="prefix__o" xlink:href="#prefix__d" gradientUnits="userSpaceOnUse" gradientTransform="matrix(2.00378 0 0 1.4 -20.012 -104.4)"/><radialGradient cx="4.993" cy="43.5" r="2.5" fx="4.993" fy="43.5" id="prefix__f" xlink:href="#prefix__d" gradientUnits="userSpaceOnUse" gradientTransform="matrix(2.00378 0 0 1.4 27.988 -17.4)"/><radialGradient cx="4.993" cy="43.5" r="2.5" fx="4.993" fy="43.5" id="prefix__g" xlink:href="#prefix__d" gradientUnits="userSpaceOnUse" gradientTransform="matrix(2.00378 0 0 1.4 -20.012 -104.4)"/></defs><g opacity=".4"><path fill="url(#prefix__f)" d="M38 40h5v7h-5z" transform="matrix(.78947 0 0 1 12.053 -7)"/><path transform="matrix(-.78947 0 0 -1 12.053 -7)" fill="url(#prefix__g)" d="M-10-47h5v7h-5z"/><path fill="url(#prefix__h)" d="M10 40h28v7H10z" transform="matrix(.78947 0 0 1 12.053 -7)"/></g><path d="M11.25 13.686c11.018 7.816 20.073.268 29.079 9.104l5.176-18.012-1.194-2.525L19.507-5.6 16.79-4.294l-5.54 17.98z" opacity=".516" fill="url(#prefix__i)" fill-rule="evenodd" transform="matrix(.8009 -.1966 .21133 .74504 5.496 12.055)" stroke-width="1.252"/><rect width="26.954" height="34.965" rx="2.641" ry="2.534" x="17.555" y="2.461" transform="rotate(.102) skewX(.005)" fill="url(#prefix__j)" stroke="#888a85" stroke-linecap="round"/><rect width="24.955" height="32.966" rx="1.923" ry="1.726" x="18.555" y="3.463" transform="rotate(.099) skewX(.002)" fill="url(#prefix__k)" stroke="url(#prefix__l)" stroke-linecap="round"/><path d="M21.951 5c-1.394 1.252-1.959 1.6-1.95 2.292.007.671.944 1.243 1.743.808.092.3.117.638-.315.902h1.143c-.393-.27-.415-.62-.304-.957.895.496 1.742-.072 1.732-.854-.01-.82-.536-1.073-2.049-2.191z" fill-rule="evenodd"/><path d="M19.163 20.21c11.059 3.325 14.14-5.299 23.835-.638l-.02-14.898c.007-.843-.396-1.404-1.644-1.388L20.86 2.998c-1.176-.003-1.907.996-1.86 1.748l.162 15.465z" opacity=".516" fill="url(#prefix__m)" fill-rule="evenodd"/><path d="M30.83 14c-4.881 4.382-6.858 5.6-6.83 8.018.027 2.35 3.308 4.35 6.104 2.827.322 1.053.412 2.232-1.101 3.157.124-.002 4 0 4 0-1.373-.948-1.452-2.17-1.065-3.348 3.134 1.735 6.1-.254 6.065-2.99-.036-2.867-1.877-3.752-7.172-7.664zM39.951 35c-1.394-1.252-1.959-1.6-1.95-2.292.007-.671.944-1.243 1.743-.808.092-.3.117-.638-.315-.902h1.143c-.393.27-.415.62-.304.957.895-.496 1.742.072 1.732.854-.01.82-.536 1.073-2.049 2.191z" fill-rule="evenodd"/><g opacity=".4"><path fill="url(#prefix__n)" d="M38 40h5v7h-5z" transform="matrix(.78947 0 0 1 -1.947 -1)"/><path transform="matrix(-.78947 0 0 -1 -1.947 -1)" fill="url(#prefix__o)" d="M-10-47h5v7h-5z"/><path fill="url(#prefix__p)" d="M10 40h28v7H10z" transform="matrix(.78947 0 0 1 -1.947 -1)"/></g><path d="M11.25 13.686c11.018 7.816 20.073.268 29.079 9.104l5.176-18.012-1.194-2.525L19.507-5.6 16.79-4.294l-5.54 17.98z" opacity=".516" fill="url(#prefix__q)" fill-rule="evenodd" transform="matrix(.8009 -.1966 .21133 .74504 -8.503 18.057)" stroke-width="1.252"/><rect width="26.954" height="34.965" rx="2.641" ry="2.534" x="3.567" y="8.487" transform="rotate(.102) skewX(.005)" fill="url(#prefix__r)" stroke="#888a85" stroke-linecap="round"/><rect width="24.955" height="32.966" rx="1.923" ry="1.726" x="4.567" y="9.489" transform="rotate(.099) skewX(.002)" fill="url(#prefix__s)" stroke="url(#prefix__t)" stroke-linecap="round"/><path d="M16.92 22.374c3.009-3.135 7.118-.218 7.08 2.766-.035 2.728-2.02 4.027-7.015 8.86-5.192-4.535-7.023-5.583-6.984-8.82.039-3.35 3.575-5.852 6.918-2.806zM7.977 11.423c.86-.965 2.034-.067 2.023.85-.01.84-.577 1.24-2.004 2.727C6.512 13.605 5.989 13.282 6 12.286c.011-1.03 1.022-1.8 1.977-.863z" fill="#c00" fill-rule="evenodd"/><path d="M5.165 26.213c11.059 3.324 14.14-5.3 23.835-.64l-.02-14.897c.007-.843-.396-1.404-1.644-1.388L6.863 9c-1.176-.003-1.908.996-1.86 1.748l.162 15.465z" opacity=".516" fill="url(#prefix__u)" fill-rule="evenodd"/><path d="M25.977 40.577c.86.965 2.034.067 2.023-.85-.01-.84-.577-1.24-2.004-2.727-1.484 1.395-2.007 1.718-1.996 2.714.011 1.03 1.022 1.8 1.977.863z" fill="#c00" fill-rule="evenodd"/></svg>