<svg width="25" height="26" viewBox="0 0 25 26" fill="none" xmlns="http://www.w3.org/2000/svg">
<path d="M24.5 13C24.5 19.9222 19.1091 25.5 12.5 25.5C5.89088 25.5 0.5 19.9222 0.5 13C0.5 6.07778 5.89088 0.5 12.5 0.5C19.1091 0.5 24.5 6.07778 24.5 13Z" fill="url(#paint0_radial_223_140)" stroke="url(#paint1_radial_223_140)"/>
<path d="M24 12.7823C20 13.5 22.7935 11.4714 12.5 11.4714C2.20649 11.4714 5 13.5 1 12.7823C1 6.27514 6.14873 1 12.5 1C18.8513 1 24 6.27514 24 12.7823Z" fill="url(#paint2_radial_223_140)"/>
<g filter="url(#filter0_d_223_140)">
<path d="M6 13.1029H16.5M12.7249 8L18 13.1029M18 13.1029L12.9467 18" stroke="url(#paint3_linear_223_140)" stroke-width="3.5" stroke-linecap="round"/>
</g>
<defs>
<filter id="filter0_d_223_140" x="2.25" y="4.25" width="19.5" height="17.5" filterUnits="userSpaceOnUse" color-interpolation-filters="sRGB">
<feFlood flood-opacity="0" result="BackgroundImageFix"/>
<feColorMatrix in="SourceAlpha" type="matrix" values="0 0 0 0 0 0 0 0 0 0 0 0 0 0 0 0 0 0 127 0" result="hardAlpha"/>
<feOffset/>
<feGaussianBlur stdDeviation="1"/>
<feComposite in2="hardAlpha" operator="out"/>
<feColorMatrix type="matrix" values="0 0 0 0 0 0 0 0 0 0 0 0 0 0 0 0 0 0 0.65 0"/>
<feBlend mode="normal" in2="BackgroundImageFix" result="effect1_dropShadow_223_140"/>
<feBlend mode="normal" in="SourceGraphic" in2="effect1_dropShadow_223_140" result="shape"/>
</filter>
<radialGradient id="paint0_radial_223_140" cx="0" cy="0" r="1" gradientUnits="userSpaceOnUse" gradientTransform="translate(12.5 25.5) rotate(-90) scale(25.5 34.9735)">
<stop offset="0.0696092" stop-color="#7BF4FF"/>
<stop offset="0.271022" stop-color="#0C8ADB"/>
<stop offset="0.413045" stop-color="#104785"/>
<stop offset="0.516334" stop-color="#021F67"/>
</radialGradient>
<radialGradient id="paint1_radial_223_140" cx="0" cy="0" r="1" gradientUnits="userSpaceOnUse" gradientTransform="translate(13 0.5) rotate(91.1233) scale(25.5049 24.5239)">
<stop offset="0.00240817" stop-color="#516BA5"/>
<stop offset="0.395936" stop-color="#214DAB"/>
<stop offset="0.747635" stop-color="#012089"/>
<stop offset="0.872637" stop-color="#172A61"/>
<stop offset="1" stop-color="#417BB3"/>
</radialGradient>
<radialGradient id="paint2_radial_223_140" cx="0" cy="0" r="1" gradientUnits="userSpaceOnUse" gradientTransform="translate(13 14.9619) rotate(-90) scale(14.9619 17.9101)">
<stop offset="0.318344" stop-color="#3A67A7"/>
<stop offset="1" stop-color="white"/>
</radialGradient>
<linearGradient id="paint3_linear_223_140" x1="12.0141" y1="8" x2="12.4325" y2="19.1361" gradientUnits="userSpaceOnUse">
<stop offset="0.488725" stop-color="white"/>
<stop offset="0.804696" stop-color="#CFCFCF"/>
</linearGradient>
</defs>
</svg>
