<svg width="32" height="32" fill="none" xmlns="http://www.w3.org/2000/svg"><g clip-path="url(#prefix__clip0_1178_4791)" fill="#E6D4BF"><path d="M32 9.14h-1.52v4.57H32V9.14zM32 1.52h-1.52v4.57H32V1.52zM30.48 25.9h-1.53v-1.52h-1.52v-1.52h-1.52v3.04h-3.05v1.53h1.52v1.52h1.53v1.53h1.52V32h3.05v-1.52H32v-3.05h-1.52V25.9zM30.48 0h-4.57v1.52h4.57V0zM28.95 18.28h-1.52v4.58h1.52v-4.58zM27.43 15.24h-1.52v3.04h1.52v-3.04zM24.38 19.81h-3.04v-3.05h-1.53v3.05h-3.05v1.52h3.05v3.05h1.53v-3.05h3.04v-1.52zM25.91 13.71h-3.05v1.53h3.05v-1.53zM22.86 27.43h-4.57v1.52h4.57v-1.52zM22.86 12.19h-4.57v1.52h4.57v-1.52zM22.86 0h-4.57v1.52h4.57V0zM18.29 25.9h-3.05v1.53h3.05V25.9zM18.29 13.71h-3.05v1.53h3.05v-1.53zM15.24 22.86h-1.52v3.04h1.52v-3.04zM15.24 15.24h-1.52v3.04h1.52v-3.04zM13.72 18.28h-1.53v4.58h1.53v-4.58zM13.72 30.48H9.15V32h4.57v-1.52zM13.72 0H9.15v1.52h4.57V0zM6.1 30.48H1.53V32H6.1v-1.52zM6.1 0H1.53v1.52H6.1V0zM1.53 25.9H0v4.58h1.53V25.9zM1.53 18.28H0v4.58h1.53v-4.58zM1.53 9.14H0v4.57h1.53V9.14zM1.53 1.52H0v4.57h1.53V1.52z"/></g><defs><clipPath id="prefix__clip0_1178_4791"><path fill="#fff" d="M0 0h32v32H0z"/></clipPath></defs></svg>