<svg width="32" height="32" fill="none" xmlns="http://www.w3.org/2000/svg"><path d="M27.848 6.57h-1.52V5.055h-1.52V3.53h-1.53V2H5v28.955h22.848V6.57zm-1.52 22.86H6.52V3.53h13.71v6.09h6.1l-.002 19.81z" fill="#E6D4BF"/><path d="M23.24 18.62h-3.05v1.52h-1.52v3.05h1.52v1.53h3.05v-1.53h1.52V12.53h-1.52v6.09zm0 3.05h-1.52v-1.53h1.52v1.53zM23.24 11h-3.05v1.53h3.05V11z" fill="#E6D4BF"/><path d="M20.19 12.53h-3.05v1.52h3.05v-1.52zM17.14 14.05H14.1v1.52h3.04v-1.52zM12.57 21.67H9.53v1.52H8v3.05h1.53v1.52h3.04v-1.52h1.53V15.57h-1.53v6.1zm0 3.05h-1.52v-1.53h1.52v1.53z" fill="#E6D4BF"/></svg>