<svg xmlns="http://www.w3.org/2000/svg" xmlns:xlink="http://www.w3.org/1999/xlink" version="1.0" width="48" height="48"><defs><linearGradient id="prefix__a"><stop offset="0" stop-opacity="0"/><stop offset=".5"/><stop offset="1" stop-opacity="0"/></linearGradient><linearGradient x1="302.857" y1="366.648" x2="302.857" y2="609.505" id="prefix__n" xlink:href="#prefix__a" gradientUnits="userSpaceOnUse" gradientTransform="matrix(.06732 0 0 .0147 -.341 37.04)"/><linearGradient id="prefix__b"><stop offset="0"/><stop offset="1" stop-opacity="0"/></linearGradient><linearGradient id="prefix__c"><stop offset="0" stop-color="#aaa"/><stop offset="1" stop-color="#c8c8c8"/></linearGradient><linearGradient x1="-51.786" y1="50.786" x2="-51.786" y2="2.906" id="prefix__r" xlink:href="#prefix__c" gradientUnits="userSpaceOnUse" gradientTransform="matrix(.8075 0 0 .89483 59.41 -2.98)"/><linearGradient id="prefix__d"><stop offset="0" stop-color="#f4f4f4"/><stop offset="1" stop-color="#dbdbdb"/></linearGradient><linearGradient x1="25.132" y1=".985" x2="25.132" y2="47.013" id="prefix__q" xlink:href="#prefix__d" gradientUnits="userSpaceOnUse" gradientTransform="matrix(1 0 0 .95617 0 -1.915)"/><linearGradient id="prefix__f"><stop offset="0" stop-color="#fff"/><stop offset="1" stop-color="#fff" stop-opacity="0"/></linearGradient><linearGradient x1="24" y1="2" x2="24" y2="46.017" id="prefix__t" xlink:href="#prefix__f" gradientUnits="userSpaceOnUse" gradientTransform="matrix(1 0 0 .97778 0 -.967)"/><linearGradient id="prefix__g"><stop offset="0" stop-color="#fefefe"/><stop offset="1" stop-color="#cbcbcb"/></linearGradient><linearGradient x1="32.892" y1="8.059" x2="36.358" y2="5.457" id="prefix__B" xlink:href="#prefix__g" gradientUnits="userSpaceOnUse" gradientTransform="matrix(.9977 0 0 1.04069 .164 -1.106)"/><linearGradient id="prefix__h"><stop offset="0"/><stop offset="1" stop-opacity="0"/></linearGradient><linearGradient id="prefix__i"><stop offset="0"/><stop offset="1" stop-opacity="0"/></linearGradient><linearGradient id="prefix__j"><stop offset="0" stop-color="#aaa"/><stop offset="1" stop-color="#4d4d4d"/></linearGradient><linearGradient id="prefix__k"><stop offset="0" stop-color="#aaa"/><stop offset="1" stop-color="#4d4d4d"/></linearGradient><linearGradient id="prefix__l"><stop offset="0" stop-color="#fff"/><stop offset="1" stop-color="#fff" stop-opacity=".379"/></linearGradient><linearGradient x1="28.739" y1="144.117" x2="25.4" y2="119.865" id="prefix__y" xlink:href="#prefix__l" gradientUnits="userSpaceOnUse" gradientTransform="matrix(.22147 0 0 .22311 14.032 -16.079)"/><linearGradient id="prefix__m"><stop offset="0" stop-color="#fff"/><stop offset="1" stop-color="#fff" stop-opacity=".379"/></linearGradient><linearGradient x1="28.739" y1="144.117" x2="26.257" y2="125.391" id="prefix__z" xlink:href="#prefix__m" gradientUnits="userSpaceOnUse" gradientTransform="matrix(.44563 0 0 .22311 20.716 -17.657)"/><radialGradient cx="605.714" cy="486.648" r="117.143" fx="605.714" fy="486.648" id="prefix__o" xlink:href="#prefix__b" gradientUnits="userSpaceOnUse" gradientTransform="matrix(-.02304 0 0 .0147 21.623 37.04)"/><radialGradient cx="605.714" cy="486.648" r="117.143" fx="605.714" fy="486.648" id="prefix__p" xlink:href="#prefix__b" gradientUnits="userSpaceOnUse" gradientTransform="matrix(.02304 0 0 .0147 26.36 37.04)"/><radialGradient cx="102" cy="112.305" r="139.559" id="prefix__e" gradientUnits="userSpaceOnUse"><stop offset="0" stop-color="#b7b8b9"/><stop offset=".189" stop-color="#ececec"/><stop offset=".257" stop-color="#fafafa" stop-opacity="0"/><stop offset=".301" stop-color="#fff" stop-opacity="0"/><stop offset=".531" stop-color="#fafafa" stop-opacity="0"/><stop offset=".845" stop-color="#ebecec" stop-opacity="0"/><stop offset="1" stop-color="#e1e2e3" stop-opacity="0"/></radialGradient><radialGradient cx="102" cy="112.305" r="139.559" id="prefix__s" xlink:href="#prefix__e" gradientUnits="userSpaceOnUse" gradientTransform="matrix(.3617 0 0 -.39078 .851 47.517)"/><radialGradient cx="22.902" cy="45.867" r="7.906" fx="22.902" fy="45.867" id="prefix__u" xlink:href="#prefix__h" gradientUnits="userSpaceOnUse" gradientTransform="matrix(.69765 0 0 .2996 12.507 18.89)"/><radialGradient cx="22.902" cy="45.867" r="7.906" fx="22.902" fy="45.867" id="prefix__v" xlink:href="#prefix__i" gradientUnits="userSpaceOnUse" gradientTransform="matrix(.75875 0 0 .32584 -.806 19.48)"/><radialGradient cx="17.059" cy="41.059" r="5.738" fx="14.638" fy="38.175" id="prefix__w" xlink:href="#prefix__j" gradientUnits="userSpaceOnUse" gradientTransform="matrix(.66498 0 -.10886 .63739 9.938 5.263)"/><radialGradient cx="17.059" cy="41.059" r="5.738" fx="14.109" fy="38.981" id="prefix__x" xlink:href="#prefix__k" gradientUnits="userSpaceOnUse" gradientTransform="matrix(.66333 0 -.1086 .6358 21.997 3.497)"/><filter x="-.148" y="-.164" width="1.297" height="1.329" color-interpolation-filters="sRGB" id="prefix__A"><feGaussianBlur stdDeviation=".774"/></filter></defs><path style="marker:none" opacity=".3" fill="url(#prefix__n)" overflow="visible" d="M7.738 42.43h32.508V46H7.738z"/><path d="M7.738 42.43V46c-1.187.007-2.869-.8-2.869-1.785 0-.986 1.325-1.785 2.869-1.785z" style="marker:none" opacity=".3" fill="url(#prefix__o)" overflow="visible"/><path d="M40.246 42.43V46c1.187.007 2.869-.8 2.869-1.785 0-.986-1.325-1.785-2.869-1.785z" style="marker:none" opacity=".3" fill="url(#prefix__p)" overflow="visible"/><path d="M6.5.497h24.06c1.408.475 8.966 5.882 10.94 9.627v34.379h-35V.497z" fill="url(#prefix__q)" stroke="url(#prefix__r)" stroke-linejoin="round"/><path d="M7.362 44c-.2 0-.362-.175-.362-.39V1.404c0-.216.162-.39.362-.39 7.483.107 15.775-.162 23.25.026l10.282 8.866L41 43.61c0 .216-.162.391-.362.391H7.362z" fill="url(#prefix__s)"/><path d="M40.5 10.259v33.263h-33V1.478h22.866" opacity=".6" fill="none" stroke="url(#prefix__t)" stroke-linejoin="round"/><path d="M34 32.632c0 1.308-2.47 2.369-5.516 2.369s-5.515-1.06-5.515-2.369c0-1.308 2.47-2.369 5.515-2.369 3.047 0 5.516 1.06 5.516 2.369z" opacity=".3" fill="url(#prefix__u)"/><path d="M22.57 34.425c-.002 1.422-2.687 2.575-6 2.575-3.312 0-5.997-1.153-5.998-2.575 0-1.423 2.685-2.577 5.999-2.577 3.313 0 6 1.154 5.998 2.577z" opacity=".3" fill="url(#prefix__v)"/><path d="M32.466 9.504c-4.127.658-8.873 1.336-12.988 2.03-1.09.527-.845 1.882-.893 2.865v13.163c-2.8-.641-5.875 1.45-5.997 4.424-.198 1.852 1.46 3.463 3.265 3.507 3.23.077 5.684-2.043 5.72-4.725-.036-4.505.01-9.01 0-13.516.5-.037 8.318-1.467 9-1.562v10.122c-2.584-.76-5.166.83-5.803 3.496-.47 1.544.24 3.37 1.771 4.003 2.991 1.36 7.198-1.395 7.031-4.629-.046-6.006.038-12.015 0-18.022-.078-.564-.465-1.197-1.106-1.156z" fill="#4d4d4d" stroke="#333" stroke-linecap="round" stroke-linejoin="round"/><path d="M20.708 30.768c0 1.987-1.744 3.897-3.896 4.264-2.151.368-3.896-.946-3.896-2.934 0-1.987 1.745-3.897 3.896-4.264 2.152-.368 3.896.946 3.896 2.934z" fill="url(#prefix__w)"/><path d="M32.75 28.937c0 1.988-1.744 3.898-3.896 4.266-2.152.367-3.896-.947-3.896-2.935s1.745-3.896 3.896-4.264c2.151-.367 3.895.946 3.896 2.933z" fill="url(#prefix__x)"/><path d="M19.179 28.166l-.094-15.045s.103-1.15.866-1.154c.27-.047 12.136-2.004 12.136-2.004s1.533.728-11.015 2.768c-1.287.247-1 .73-1 1.58v14.36c0 .06-.57-.422-.893-.505z" opacity=".3" fill="url(#prefix__y)" fill-rule="evenodd"/><path d="M31.072 26.434l.06-11.365c.626-.056.096-.01.94-.093.011 2.123 0 3.885 0 11.903 0 .06-.349-.362-1-.445z" opacity=".3" fill="url(#prefix__z)" fill-rule="evenodd"/><path d="M28.617.921c4.283 0 2.154 8.483 2.154 8.483s10.357-1.802 10.357 2.82c0-2.61-11.302-10.73-12.51-11.303z" opacity=".4" fill-rule="evenodd" filter="url(#prefix__A)"/><path d="M28.617.921c3.187 0 2.336 7.662 2.336 7.662s10.175-.98 10.175 3.64c0-1.126.086-1.932-.134-2.283C39.416 7.415 32.6 1.75 30.137 1.009c-.184-.056-.593-.088-1.52-.088z" fill="url(#prefix__B)" fill-rule="evenodd"/></svg>