<svg width="32" height="32" fill="none" xmlns="http://www.w3.org/2000/svg"><path d="M28.955 3.81h-3.05v1.52h1.52V17h3.05V5.33h-1.52V3.81z" fill="#E6D4BF"/><path d="M25.905 5.33h-1.52v8.17h1.52V5.33zM21.335 8.38h-3.05V9.9h1.52v3.6h3.05V9.9h-1.52V8.38zM18.285 9.9h-1.52v3.6h1.52V9.9zM13.715 12.95h-3.05v1.52h1.53v2.03h3.04v-2.03h-1.52v-1.52zM10.665 14.47h-1.52v12.19h1.52V14.47zM6.095 17.52h-3.05v1.52h1.53v7.62h-1.53v1.53h3.05v-1.53h1.52v-7.62h-1.52v-1.52zM3.045 19.04h-1.52v7.62h1.52v-7.62zM27.805 17.78h-1.53v3.05h-1.52v1.52h-1.53v1.53h1.53v1.52h1.52v3.05h1.53v-1.53h1.52v-7.61h-1.52v-1.53z" fill="#E6D4BF"/><path d="M23.225 26.92h-1.52V25.4h-1.52v1.52h-1.53v1.53h-3.05v1.52h1.53v1.53h7.62v-1.53h1.52v-1.52h-3.05v-1.53zM18.655 19.31h1.53v1.52h1.52v-1.52h1.52v-1.53h3.05v-1.52h-1.52v-1.53h-7.62v1.53h-1.53v1.52h3.05v1.53z" fill="#E6D4BF"/><path d="M17.135 25.4v-1.52h1.52v-1.53h-1.52v-1.52h-1.53v-3.05h-1.52v1.53h-1.52v7.61h1.52v1.53h1.52V25.4h1.53z" fill="#E6D4BF"/></svg>