<svg width="32" height="32" fill="none" xmlns="http://www.w3.org/2000/svg"><g clip-path="url(#prefix__clip0_1178_10130)" fill="#E6D4BF"><path d="M12.955 0v1.52h-3.05v1.53h3.05v1.52h1.52V3.05h3.05v1.52h1.52V3.05h3.05v1.52h1.53V3.05h1.52V6.1h1.52V4.57h1.53v25.91h-16.76V32h18.28v-1.52h1.52V4.57h-1.52V3.05h-1.52V1.52h-4.57V0h-1.53v1.52h-3.05V0h-1.52v1.52h-3.05V0h-1.52z"/><path d="M25.145 6.1h-1.52v3.04h1.52V6.1zM22.095 12.19h4.57v-1.52h-3.04V9.14h-1.53v3.05z"/><path d="M20.575 15.24h-1.53v3.05h1.53v-1.53h6.09v-1.52h-4.57v-3.05h-1.52v3.05zM17.525 21.33h9.14v-1.52h-7.62v-1.52h-1.52v3.04zM26.665 24.38h-13.71v1.53h13.71v-1.53z"/><path d="M11.435 22.86h6.09v-1.53H2.285v1.53h7.62v7.62h1.53v-7.62zM9.905 3.05h-1.52V6.1h1.52V3.05zM8.385 6.1h-1.53v3.04h1.53V6.1zM6.855 9.14h-1.52v3.05h1.52V9.14zM5.335 12.19h-1.52v3.05h1.52v-3.05zM3.815 15.24h-1.53v3.05h1.53v-3.05zM2.285 18.29H.765v3.04h1.52v-3.04z"/></g><defs><clipPath id="prefix__clip0_1178_10130"><path fill="#fff" d="M0 0h32v32H0z"/></clipPath></defs></svg>