<svg width="1920px" height="1080px" version="1.1" xmlns="http://www.w3.org/2000/svg" xmlns:xlink="http://www.w3.org/1999/xlink"><defs><linearGradient id="d"><stop stop-color="#fff" stop-opacity=".89474" offset="0"/><stop stop-color="#fff" stop-opacity=".70175" offset=".83784"/><stop stop-color="#fff" stop-opacity=".2193" offset=".91892"/><stop stop-color="#fff" stop-opacity="0" offset="1"/></linearGradient><linearGradient id="c"><stop stop-color="#fff" stop-opacity=".80702" offset="0"/><stop stop-color="#fff" stop-opacity=".50877" offset=".38568"/><stop stop-color="#fff" stop-opacity="0" offset=".86486"/><stop stop-color="#fff" stop-opacity="0" offset="1"/></linearGradient><linearGradient id="e" x1="580" x2="1396" y1="-184" y2="1268.1" gradientUnits="userSpaceOnUse"><stop stop-opacity=".75439" offset="0"/><stop stop-color="#110043" stop-opacity="0" offset=".5"/><stop stop-color="#fff" stop-opacity=".84211" offset="1"/></linearGradient><radialGradient id="a" cx="326" cy="334" r="186" gradientUnits="userSpaceOnUse" xlink:href="#c"/><radialGradient id="b" cx="326" cy="334" r="186" gradientUnits="userSpaceOnUse" xlink:href="#d"/></defs><g><g transform="matrix(1.0021 0 0 .96429 -16.034 -3.8572)" fill="url(#a)"><path transform="matrix(1.3548 0 0 1.3548 -173.68 -188.52)" d="m512 334c0 102.72-83.275 186-186 186s-186-83.275-186-186 83.275-186 186-186 186 83.275 186 186z" opacity=".20476"/><path transform="matrix(1.3548 0 0 1.3548 114.32 -32.516)" d="m512 334c0 102.72-83.275 186-186 186s-186-83.275-186-186 83.275-186 186-186 186 83.275 186 186z" opacity=".39048"/><path transform="matrix(.54839 0 0 .54839 -52.774 -45.161)" d="m512 334c0 102.72-83.275 186-186 186s-186-83.275-186-186 83.275-186 186-186 186 83.275 186 186z" opacity=".20476"/><path transform="matrix(1.3548 0 0 1.3548 1198.3 371.48)" d="m512 334c0 102.72-83.275 186-186 186s-186-83.275-186-186 83.275-186 186-186 186 83.275 186 186z" opacity=".74762"/><path transform="matrix(1.3548 0 0 1.3548 1218.3 27.484)" d="m512 334c0 102.72-83.275 186-186 186s-186-83.275-186-186 83.275-186 186-186 186 83.275 186 186z" opacity=".20476"/><path transform="matrix(1.3548 0 0 1.3548 982.32 195.48)" d="m512 334c0 102.72-83.275 186-186 186s-186-83.275-186-186 83.275-186 186-186 186 83.275 186 186z" opacity=".51429"/><path transform="matrix(1.3548 0 0 1.3548 794.32 387.48)" d="m512 334c0 102.72-83.275 186-186 186s-186-83.275-186-186 83.275-186 186-186 186 83.275 186 186z" opacity=".20476"/><path transform="matrix(1.0323 0 0 1.0323 523.48 -92.774)" d="m512 334c0 102.72-83.275 186-186 186s-186-83.275-186-186 83.275-186 186-186 186 83.275 186 186z" opacity=".20476"/><path transform="matrix(1.0538 0 0 1.0538 -103.53 512.04)" d="m512 334c0 102.72-83.275 186-186 186s-186-83.275-186-186 83.275-186 186-186 186 83.275 186 186z" opacity=".51429"/><path transform="matrix(1.0538 0 0 1.0538 140.47 496.04)" d="m512 334c0 102.72-83.275 186-186 186s-186-83.275-186-186 83.275-186 186-186 186 83.275 186 186z" opacity=".51429"/><path transform="matrix(1.0538 0 0 1.0538 216.47 344.04)" d="m512 334c0 102.72-83.275 186-186 186s-186-83.275-186-186 83.275-186 186-186 186 83.275 186 186z" opacity=".51429"/><path transform="matrix(1.0538 0 0 1.0538 384.47 340.04)" d="m512 334c0 102.72-83.275 186-186 186s-186-83.275-186-186 83.275-186 186-186 186 83.275 186 186z" opacity=".51429"/><path transform="matrix(1.0538 0 0 1.0538 480.47 212.04)" d="m512 334c0 102.72-83.275 186-186 186s-186-83.275-186-186 83.275-186 186-186 186 83.275 186 186z" opacity=".51429"/><path transform="matrix(1.0538 0 0 1.0538 648.47 180.04)" d="m512 334c0 102.72-83.275 186-186 186s-186-83.275-186-186 83.275-186 186-186 186 83.275 186 186z" opacity=".51429"/><path transform="matrix(1.0538 0 0 1.0538 808.47 .043017)" d="m512 334c0 102.72-83.275 186-186 186s-186-83.275-186-186 83.275-186 186-186 186 83.275 186 186z" opacity=".51429"/><path transform="matrix(1.0538 0 0 1.0538 1032.5 -15.957)" d="m512 334c0 102.72-83.275 186-186 186s-186-83.275-186-186 83.275-186 186-186 186 83.275 186 186z" opacity=".51429"/><path transform="matrix(1.0538 0 0 1.0538 1176.5 -139.96)" d="m512 334c0 102.72-83.275 186-186 186s-186-83.275-186-186 83.275-186 186-186 186 83.275 186 186z" opacity=".51429"/><path transform="matrix(.76344 0 0 .76344 1405.1 -80.989)" d="m512 334c0 102.72-83.275 186-186 186s-186-83.275-186-186 83.275-186 186-186 186 83.275 186 186z"/><path transform="matrix(.76344 0 0 .76344 773.12 275.01)" d="m512 334c0 102.72-83.275 186-186 186s-186-83.275-186-186 83.275-186 186-186 186 83.275 186 186z"/><path transform="matrix(.76344 0 0 .76344 117.12 367.01)" d="m512 334c0 102.72-83.275 186-186 186s-186-83.275-186-186 83.275-186 186-186 186 83.275 186 186z" opacity=".67143"/><path transform="matrix(1.3548 0 0 1.3548 318.32 419.48)" d="m512 334c0 102.72-83.275 186-186 186s-186-83.275-186-186 83.275-186 186-186 186 83.275 186 186z" opacity=".51429"/><path transform="matrix(.96774 0 0 .96774 296.52 -139.23)" d="m512 334c0 102.72-83.275 186-186 186s-186-83.275-186-186 83.275-186 186-186 186 83.275 186 186z" opacity=".38095"/></g><rect y="-2.1316e-13" width="1920" height="1080" fill="url(#e)"/><g fill="url(#b)"><path transform="matrix(.60215 0 0 .60215 -36.301 746.88)" d="m512 334c0 102.72-83.275 186-186 186s-186-83.275-186-186 83.275-186 186-186 186 83.275 186 186z"/><path transform="matrix(.43011 0 0 .43011 379 713.83)" d="m512 334c0 102.72-83.275 186-186 186s-186-83.275-186-186 83.275-186 186-186 186 83.275 186 186z"/><path transform="matrix(.51613 0 0 .51613 502.95 373.1)" d="m512 334c0 102.72-83.275 186-186 186s-186-83.275-186-186 83.275-186 186-186 186 83.275 186 186z"/><path transform="matrix(.55914 0 0 .55914 1088.9 382.74)" d="m512 334c0 102.72-83.275 186-186 186s-186-83.275-186-186 83.275-186 186-186 186 83.275 186 186z"/><path transform="matrix(.60215 0 0 .60215 1306.9 8.3721)" d="m512 334c0 102.72-83.275 186-186 186s-186-83.275-186-186 83.275-186 186-186 186 83.275 186 186z" opacity=".39048"/><path transform="matrix(.51613 0 0 .51613 1591 149.1)" d="m512 334c0 102.72-83.275 186-186 186s-186-83.275-186-186 83.275-186 186-186 186 83.275 186 186z"/><path transform="matrix(.4086 0 0 .4086 838.01 541.02)" d="m512 334c0 102.72-83.275 186-186 186s-186-83.275-186-186 83.275-186 186-186 186 83.275 186 186z" opacity=".66667"/><path transform="matrix(.4086 0 0 .4086 522.01 617.02)" d="m512 334c0 102.72-83.275 186-186 186s-186-83.275-186-186 83.275-186 186-186 186 83.275 186 186z" opacity=".66667"/><path transform="matrix(.4086 0 0 .4086 110.01 561.02)" d="m512 334c0 102.72-83.275 186-186 186s-186-83.275-186-186 83.275-186 186-186 186 83.275 186 186z" opacity=".66667"/><path transform="matrix(.27957 0 0 .27957 1100.1 260.11)" d="m512 334c0 102.72-83.275 186-186 186s-186-83.275-186-186 83.275-186 186-186 186 83.275 186 186z" opacity=".48571"/><path transform="matrix(.27957 0 0 .27957 1432.1 368.11)" d="m512 334c0 102.72-83.275 186-186 186s-186-83.275-186-186 83.275-186 186-186 186 83.275 186 186z" opacity=".48571"/><path transform="matrix(.27957 0 0 .27957 1672.1 20.114)" d="m512 334c0 102.72-83.275 186-186 186s-186-83.275-186-186 83.275-186 186-186 186 83.275 186 186z" opacity=".48571"/></g><g fill="url(#a)"><path transform="matrix(1.3548 0 0 1.3548 -158.83 -175.79)" d="m512 334a186 186 0 1 1-372 0 186 186 0 1 1 372 0z" opacity=".20476"/><path transform="matrix(.62492 0 0 .62492 33.863 -87.561)" d="m512 334a186 186 0 1 1-372 0 186 186 0 1 1 372 0z" opacity=".20476"/><path transform="matrix(.62492 0 0 .62492 -59.475 322.56)" d="m512 334a186 186 0 1 1-372 0 186 186 0 1 1 372 0z" opacity=".30952"/><path transform="matrix(1.3548 0 0 1.3548 357.17 176.21)" d="m512 334a186 186 0 1 1-372 0 186 186 0 1 1 372 0z" opacity=".20476"/><path transform="matrix(1.3548 0 0 1.3548 849.17 -67.789)" d="m512 334a186 186 0 1 1-372 0 186 186 0 1 1 372 0z" opacity=".49048"/></g></g></svg>
