<svg version="1.0" viewBox="0 0 48 48" xmlns="http://www.w3.org/2000/svg"><defs><radialGradient id="prefix__c" cx="34.828" cy="65.617" r="42.271" gradientTransform="matrix(.14818 .01026 -.00895 .13265 2.708 -1.876)" gradientUnits="userSpaceOnUse"><stop stop-color="#6e8d5d" offset="0"/><stop stop-color="#a2ac34" stop-opacity=".498" offset=".5"/><stop stop-color="#cbbd40" stop-opacity=".247" offset=".75"/><stop stop-color="#dbc146" stop-opacity=".122" offset=".875"/><stop stop-color="#ff480f" stop-opacity=".133" offset="1"/></radialGradient><radialGradient id="prefix__e" cx="605.71" cy="486.65" r="117.14" gradientTransform="matrix(.03213 0 0 .03706 25.337 25.412)" gradientUnits="userSpaceOnUse"><stop offset="0"/><stop stop-opacity="0" offset="1"/></radialGradient><radialGradient id="prefix__f" cx="605.71" cy="486.65" r="117.14" gradientTransform="matrix(-.03213 0 0 .03706 23.363 25.412)" gradientUnits="userSpaceOnUse"><stop offset="0"/><stop stop-opacity="0" offset="1"/></radialGradient><linearGradient id="prefix__a" x1=".633" x2="79.104" y1="3.09" y2="170.29" gradientTransform="matrix(.34851 0 0 .30256 16.748 5.158)" gradientUnits="userSpaceOnUse"><stop stop-color="#f3f7fa" offset="0"/><stop stop-color="#fdfeff" offset="1"/></linearGradient><linearGradient id="prefix__b" x1="20.253" x2="5.525" y1="40.523" y2="11.735" gradientTransform="matrix(.33339 0 0 .33591 2.98 -1.492)" gradientUnits="userSpaceOnUse"><stop stop-color="#262626" offset="0"/><stop stop-color="#828282" offset="1"/></linearGradient><linearGradient id="prefix__d" x1="302.86" x2="302.86" y1="366.65" y2="609.51" gradientTransform="matrix(.0843 0 0 .03706 -6.115 25.412)" gradientUnits="userSpaceOnUse"><stop stop-opacity="0" offset="0"/><stop offset=".5"/><stop stop-opacity="0" offset="1"/></linearGradient></defs><path transform="rotate(-18.221 13.167 51.87) skewX(-.22)" fill="url(#prefix__a)" stroke="#909090" stroke-linecap="round" stroke-linejoin="round" stroke-opacity=".969" stroke-width="1.004" d="M14.596 13.581h30.931v30.943H14.596z"/><g transform="matrix(2.34987 -.77353 .73565 2.2641 -2.901 12.54)"><rect x="2.578" y="2.567" width="10.867" height="9.622" rx="0" ry="0" fill="url(#prefix__b)" stroke="#333" stroke-linecap="round" stroke-linejoin="round" stroke-opacity=".969" stroke-width=".437"/><rect x="2.578" y="2.567" width="10.866" height="9.622" rx="0" ry="0" fill="url(#prefix__c)" opacity=".35"/></g><g opacity=".3"><path fill="url(#prefix__d)" d="M4 39h40.7v9H4z" transform="matrix(.73922 0 0 .55556 12 20.333)"/><path d="M44.7 39v9c1.655.016 4-2.017 4-4.5s-1.846-4.5-4-4.5z" fill="url(#prefix__e)" transform="matrix(.73922 0 0 .55556 12 20.333)"/><path d="M4 39v9c-1.655.016-4-2.017-4-4.5S1.846 39 4 39z" fill="url(#prefix__f)" transform="matrix(.73922 0 0 .55556 12 20.333)"/></g><path transform="skewX(-.22)" fill="url(#prefix__a)" stroke="#909090" stroke-linecap="round" stroke-linejoin="round" stroke-opacity=".969" stroke-width="1.004" d="M14.596 13.581h30.931v30.943H14.596z"/><g transform="matrix(2.4739 -.00426 -.00506 2.3806 10.219 9.47)"><rect x="2.578" y="2.567" width="10.867" height="9.622" rx="0" ry="0" fill="url(#prefix__b)" stroke="#333" stroke-linecap="round" stroke-linejoin="round" stroke-opacity=".969" stroke-width=".437"/><rect x="2.578" y="2.567" width="10.866" height="9.622" rx="0" ry="0" fill="url(#prefix__c)" opacity=".35"/></g></svg>