<svg version="1.0" viewBox="0 0 48 48" xmlns="http://www.w3.org/2000/svg"><defs><radialGradient id="prefix__a" cx="62.625" cy="4.625" r="10.625" gradientTransform="matrix(1 0 0 .34118 0 3.047)" gradientUnits="userSpaceOnUse"><stop offset="0"/><stop stop-opacity="0" offset="1"/></radialGradient><radialGradient id="prefix__b" cx="61.342" cy="-6.14" r="9.755" gradientTransform="matrix(0 4.5236 -4.3653 0 -4.16 -273.48)" gradientUnits="userSpaceOnUse"><stop stop-color="#9a9af9" offset="0"/><stop stop-color="#708ade" offset=".262"/><stop stop-color="#4777ba" offset=".661"/><stop stop-color="#194263" offset="1"/></radialGradient><linearGradient id="prefix__c" x1="15.047" x2="15.047" y1="44.788" y2="3.885" gradientTransform="translate(-.229 -.012) scale(1.0051)" gradientUnits="userSpaceOnUse"><stop stop-color="#245a71" offset="0"/><stop stop-color="#498bd2" offset="1"/></linearGradient><linearGradient id="prefix__d" x1="63.397" x2="63.397" y1="-12.487" y2="7.444" gradientTransform="translate(-111.63 32.127) scale(2.1725)" gradientUnits="userSpaceOnUse"><stop stop-color="#fff" offset="0"/><stop stop-color="#fff" stop-opacity="0" offset="1"/></linearGradient></defs><path transform="matrix(2.1499 0 0 2.5637 -111.39 26.85)" d="M73.25 4.625a10.625 3.625 0 11-21.25 0 10.625 3.625 0 1121.25 0z" fill="url(#prefix__a)" fill-rule="evenodd" opacity=".4"/><path d="M43.5 24.499c0 11.046-8.955 20.001-20 20.001-11.046 0-20-8.955-20-20.001C3.5 13.453 12.454 4.5 23.5 4.5c11.045 0 20 8.954 20 19.999z" fill="url(#prefix__b)" stroke="url(#prefix__c)"/><path d="M42.5 24.499c0 10.494-8.507 19.001-19 19.001-10.494 0-19-8.507-19-19.001C4.5 14.006 13.007 5.5 23.5 5.5s19 8.506 19 18.999z" fill="none" opacity=".4" stroke="url(#prefix__d)"/><path d="M36 24.5a12.5 12.5 0 11-25 0 12.5 12.5 0 1125 0z" opacity=".25"/><path d="M31.003 24c.001.13-5.33 3.185-5.438 3.25-.11.065-5.398 3.314-5.509 3.25-.109-.065-.017-6.34-.017-6.468 0-.131-.092-6.465.018-6.53.108-.066 5.346 3.153 5.455 3.217.11.066 5.49 3.15 5.49 3.281z" fill="#fff"/></svg>