<svg width="32" height="32" fill="none" xmlns="http://www.w3.org/2000/svg"><g clip-path="url(#prefix__clip0_1178_18109)" fill="#E6D4BF"><path d="M32 12.185h-1.52v7.62H32v-7.62zM30.48 19.805h-1.52v3.05h1.52v-3.05zM30.48 9.145h-1.52v3.04h1.52v-3.04zM28.96 22.855h-1.53v1.52h1.53v-1.52zM28.96 12.185h-1.53v1.53h1.53v-1.53zM28.96 7.615h-1.53v1.53h1.53v-1.53zM27.43 10.665h-1.52v1.52h1.52v-1.52z"/><path d="M24.38 18.285h1.53v-4.57h-1.53v-6.1h3.05v-1.52h-3.05v-1.53h-1.52v22.86h1.52v-1.52h3.05v-1.53h-3.05v-6.09zM22.86 27.425H1.53v1.53h21.33v-1.53zM18.29 15.235h-3.05v1.52h-1.52v3.05h1.52v1.53h3.05v-1.53h1.52V9.145h-1.52v6.09zm0 3.05h-1.52v-1.53h1.52v1.53zM18.29 7.615h-3.05v1.53h3.05v-1.53z"/><path d="M15.24 9.145h-3.05v1.52h3.05v-1.52zM12.19 10.665H9.15v1.52h3.04v-1.52zM7.62 18.285H4.58v1.52H3.05v3.05h1.53v1.52h3.04v-1.52h1.53v-10.67H7.62v6.1zm0 3.05H6.1v-1.53h1.52v1.53zM22.86 3.045H1.53v1.52h21.33v-1.52zM1.53 4.565H0v22.86h1.53V4.565z"/></g><defs><clipPath id="prefix__clip0_1178_18109"><path fill="#fff" d="M0 0h32v32H0z"/></clipPath></defs></svg>