<svg width="32" height="32" fill="none" xmlns="http://www.w3.org/2000/svg"><g clip-path="url(#prefix__clip0_1178_9780)" fill="#E6D4BF"><path d="M28.96 9.91V8.38h-1.53v3.05h3.05V16h-3.05v3.05h1.53v-1.52H32V9.91h-3.04zM27.43 19.05h-1.52v1.52h1.52v-1.52zM27.43 6.86h-1.52v1.52h1.52V6.86zM25.91 5.34h-3.05v1.52h3.05V5.34zM25.91 20.57h-9.14v1.53h9.14v-1.53z"/><path d="M15.24 26.67v-7.62h3.05v-1.52h1.52V16h1.53V8.38h-1.53V2.29h-1.52v6.09h-1.52V2.29h-1.53v6.09h-1.52V2.29H12.2v6.09h-1.53V2.29H9.15v6.09H7.62V16h1.53v1.53h1.52v1.52h3.05v7.62h1.52zM18.29.76h-1.52v1.53h1.52V.76zM13.72 26.67h-3.05v1.52h3.05v-1.52zM12.2.76h-1.53v1.53h1.53V.76zM10.67 28.19H9.15v1.53h1.52v-1.53zM9.15 29.72H7.62v1.52h1.53v-1.52z"/><path d="M10.67 20.57H1.53v1.53h9.14v-1.53zM6.1 5.34H1.53v1.52H6.1V5.34zM1.53 6.86H0v13.71h1.53V6.86z"/></g><defs><clipPath id="prefix__clip0_1178_9780"><path fill="#fff" d="M0 0h32v32H0z"/></clipPath></defs></svg>