<svg width="32" height="32" fill="none" xmlns="http://www.w3.org/2000/svg"><g clip-path="url(#prefix__clip0_1178_8879)" fill="#E6D4BF"><path d="M30.48 6.1h-1.52v1.52h-1.53v1.53h1.53v1.52h1.52V9.15H32V7.62h-1.52V6.1zM30.48 18.29h-1.52v-1.52h-3.05v-6.1H15.24v6.1H4.57v1.52H3.05v1.52H1.53v1.53H0v1.52h4.57V32h22.86v-9.14H32v-3.05h-1.52v-1.52zm-13.72-6.1h7.62v4.58h-7.62v-4.58zm1.53 18.29H6.1v-7.62h10.66v-1.52h1.53v9.14zm7.62 0h-6.1V18.29h6.1v12.19zM21.34 3.05h-1.53v1.53h1.53V3.05z"/><path d="M16.76 0v7.62h7.62V6.1h-1.52V4.58h-1.52V6.1h-3.05V3.05h1.52V1.53h-1.52V0h-1.53zM13.72 7.62h-1.53v4.57h1.53V7.62zM12.19 12.19h-1.52v1.53h1.52v-1.53zM12.19 6.1h-1.52v1.52h1.52V6.1zM10.67 13.72H6.1v1.52h4.57v-1.52zM10.67 4.58H6.1V6.1h4.57V4.58zM6.1 12.19H4.57v1.53H6.1v-1.53zM6.1 6.1H4.57v1.52H6.1V6.1zM4.57 7.62H3.05v4.57h1.52V7.62zM3.05 1.53H1.53v1.52h1.52V1.53z"/></g><defs><clipPath id="prefix__clip0_1178_8879"><path fill="#fff" d="M0 0h32v32H0z"/></clipPath></defs></svg>