<svg width="32" height="32" fill="none" xmlns="http://www.w3.org/2000/svg"><path d="M30.475 22.86h-4.57v-1.53h1.52v-1.52H4.575v1.52H6.1v1.53H1.525V32h28.95v-9.14zm-22.86-1.53h16.76v1.53H7.615v-1.53zm21.34 9.15H3.045v-6.1h25.91v6.1zM28.955 1.52h-1.53v18.29h1.53V1.52z" fill="#E6D4BF"/><path d="M25.905 25.9h-7.62v1.53h7.62V25.9zM6.1 18.29h19.81V3.05H6.1v15.24zM7.615 4.57h16.76v12.19H7.615V4.57zM9.145 25.9h-3.05v3.05h3.05V25.9zM27.425 0H4.575v1.52h22.85V0zM4.575 1.52h-1.53v18.29h1.53V1.52z" fill="#E6D4BF"/><path d="M14 14.62h2.07V13.1h1.52v-1.53h1.53v-1.52h-1.53V8.53h-1.52V7H14v7.62z" fill="#E6D4BF"/></svg>