<svg width="32" height="32" fill="none" xmlns="http://www.w3.org/2000/svg"><g clip-path="url(#prefix__prefix__clip0_2338_1488)" fill="#E6D4BF"><path d="M30.48 21.33H1.52V1.52H0V25.9h1.52v1.52h9.15v1.53h1.52v-1.53h7.62v1.53h1.52v-1.53h9.15V25.9H32V1.52h-1.52v19.81zm-19.81 9.14v-1.52H9.14V32h13.72v-3.05h-1.53v1.52H10.67zM30.48 0H1.52v1.52h28.96V0z"/><path d="M9.09 4.52H7.57v3.05h1.52V4.52zM7.57 3H4.52v1.52h3.05V3zm0 4.57H4.52v1.52h3.05V7.57zM4.52 4.52H3v3.05h1.52V4.52zm5.05 12H8.05v1.52h1.52v-1.52zM8.04 15H6.52v1.52h1.52V15zm0 3.05H6.52v1.52h1.52v-1.52zm-1.52-1.53H5v1.52h1.52v-1.52zm11.05-2h-1.52v1.52h1.52v-1.52zM16.04 13h-1.52v1.52h1.52V13zm0 3.05h-1.52v1.52h1.52v-1.52zm-1.52-1.53H13v1.52h1.52v-1.52zm13.57-9h-1.52v3.05h1.52V5.52zM26.57 4h-3.05v1.52h3.05V4zm0 4.57h-3.05v1.52h3.05V8.57zm-3.05-3.05H22v3.05h1.52V5.52zm-6.43 2h-1.52v3.05h1.52V7.52zM15.57 6h-3.05v1.52h3.05V6zm0 4.57h-3.05v1.52h3.05v-1.52zm-3.05-3.05H11v3.05h1.52V7.52zm13.57 6h-1.52v3.05h1.52v-3.05zM24.57 12h-3.05v1.52h3.05V12zm0 4.57h-3.05v1.52h3.05v-1.52zm-3.05-3.05H20v3.05h1.52v-3.05z"/></g><defs><clipPath id="prefix__prefix__clip0_2338_1488"><path fill="#fff" d="M0 0h32v32H0z"/></clipPath></defs></svg>