<?xml version="1.0" encoding="UTF-8"?>
<svg version="1.1" viewBox="0 0 32 32" xmlns="http://www.w3.org/2000/svg" xmlns:xlink="http://www.w3.org/1999/xlink">
<defs>
<linearGradient id="b" x2="0" y1="545.8" y2="517.8" gradientUnits="userSpaceOnUse">
<stop stop-color="#42a603" offset="0"/>
<stop stop-color="#78da06" offset="1"/>
</linearGradient>
<linearGradient id="a" x2="0" y1="538.8" y2="524.8" gradientTransform="translate(-384.57 -515.8)" gradientUnits="userSpaceOnUse">
<stop stop-color="#bcfd93" offset="0"/>
<stop stop-color="#fafff5" offset="1"/>
</linearGradient>
<linearGradient id="c" x1="9" x2="23" y1="9" y2="23" gradientUnits="userSpaceOnUse">
<stop stop-color="#383e51" offset="0"/>
<stop stop-color="#655c6f" stop-opacity="0" offset="1"/>
</linearGradient>
</defs>
<g transform="translate(-384.57 -515.8)">
<ellipse cx="400.57" cy="531.8" rx="14" ry="14" fill="url(#b)"/>
<path transform="translate(384.57 515.8)" d="m14 9v6l11.375 11.375a14 14 0 0 0 4.625-10.375l-7-7h-9zm-1 6-4 6 8.8594 8.8594a14 14 0 0 0 6.9844-3.0156l-11.844-11.844z" fill="url(#c)" fill-rule="evenodd" opacity=".2"/>
<path transform="translate(384.57 515.8)" d="m14 9v6h6v3l3-3v-6h-9zm1 1h7v4h-7v-4zm-2.5 5-0.5 0.40039-2 1.666v-0.066406h-1v0.5 3 0.5h1v-0.066406l2 1.666 0.5 0.40039h0.5v-8h-0.5z" fill="url(#a)" stroke-opacity=".55026" stroke-width="2.8"/>
</g>
</svg>
