<svg width="32" height="32" fill="none" xmlns="http://www.w3.org/2000/svg"><path fill="#E6D4BF" d="M.765 16.76h3.04v-1.52h1.53v-1.53h1.52v-1.52h1.53v-1.52h1.52V9.14h1.52V7.62h1.53V6.09h1.52V4.57h3.05v1.52h1.52v1.53h1.53v1.52h1.52v1.53h1.52v1.52h1.53v1.52h1.52v1.53h1.52v1.52h3.05v-3.05h-1.52v-1.52h-1.53v-1.52h-1.52V9.14h-1.52V7.62h-1.53V6.09h-1.52V4.57h-1.52V3.05h-1.53V1.52h-1.52V0h-3.05v1.52h-1.52v1.53h-1.53v1.52h-1.52v1.52h-1.52v1.53h-1.53v1.52h-1.52v1.53h-1.53v1.52h-1.52v1.52H.765v3.05zm25.9 13.72h-6.09v-7.62h-1.53V32h9.14V18.28h-1.52v12.2zm0-13.72h-1.52v1.52h1.52v-1.52z"/><path fill="#E6D4BF" d="M25.145 15.24h-1.53v1.52h1.53v-1.52zm-1.53-1.53h-1.52v1.53h1.52v-1.53zm-1.52-1.52h-1.52v1.52h1.52v-1.52zm-1.52-1.52h-1.53v1.52h1.53v-1.52zm-1.53 10.66h-1.52v1.53h1.52v-1.53zm0-12.19h-1.52v1.53h1.52V9.14zm-1.52 10.67h-3.05v1.52h3.05v-1.52zm0-12.19h-3.05v1.52h3.05V7.62zm-3.05 13.71h-1.52v1.53h1.52v-1.53zm0-12.19h-1.52v1.53h1.52V9.14z"/><path fill="#E6D4BF" d="M12.955 22.86h-1.53v7.62h-6.09v-12.2h-1.53V32h9.15v-9.14zm0-12.19h-1.53v1.52h1.53v-1.52zm-1.53 1.52h-1.52v1.52h1.52v-1.52zm-1.52 1.52h-1.52v1.53h1.52v-1.53zm-1.52 1.53h-1.53v1.52h1.53v-1.52zm-1.53 1.52h-1.52v1.52h1.52v-1.52z"/></svg>