<svg width="32" height="32" fill="none" xmlns="http://www.w3.org/2000/svg"><g clip-path="url(#prefix__clip0_2317_1810)" fill="#E6D4BF"><path d="M28.952 0h-1.52v25.9h1.52V0z"/><path d="M28.422-.005H4.572v1.53h23.85v-1.53zM25.9 27.43h-1.52v1.515h-1.52v1.525h-1.53V32H3.052V3.045H25.9V27.43zM24.38 4.57H4.572v25.9h13.71v-6.09h6.1L24.38 4.57z"/><path d="M21.332 9.14H7.622V7.62h13.71v1.52zM21.332 15.24H7.622v-1.53h13.71v1.53zM21.332 21.33H7.622v-1.52h13.71v1.52zM13.712 27.43h-6.09V25.9h6.09v1.53z"/></g><defs><clipPath id="prefix__clip0_2317_1810"><path fill="#fff" d="M0 0h32v32H0z"/></clipPath></defs></svg>