<svg width="32" height="32" fill="none" xmlns="http://www.w3.org/2000/svg"><g clip-path="url(#prefix__clip0_1178_9112)" fill="#E6D4BF"><path d="M28.19 27.43h1.53v-1.52h1.52V6.1h-1.52v1.52h-1.53v1.52h-4.57v1.53H8.38v1.52H22.1v7.62h1.52v-1.52h4.57v-1.53h1.53v1.53h-1.53v1.52h-4.57v1.52H22.1v7.62H8.38v1.53h15.24v-1.53h4.57v-1.52zM29.72 4.57h-3.05V6.1h3.05V4.57zM26.67 3.05H22.1v1.52h4.57V3.05z"/><path d="M22.1 19.81H8.38v1.52H22.1v-1.52zM14.48 24.38H9.91v1.53h4.57v-1.53zM14.48 15.24H9.91v1.52h4.57v-1.52zM22.1 1.52H9.91v1.53H22.1V1.52zM8.38 27.43H3.81v1.52h4.57v-1.52zM8.38 18.29H3.81v1.52h4.57v-1.52zM8.38 9.14H3.81v1.53h4.57V9.14zM9.91 3.05H5.33v1.52h4.58V3.05zM6.86 21.33H3.81v3.05h3.05v-3.05zM6.86 12.19H3.81v3.05h3.05v-3.05zM5.33 4.57H2.29V6.1h3.04V4.57zM3.81 25.91H2.29v1.52h1.52v-1.52zM2.29 18.29h1.52v-1.53H2.29V9.14h1.52V7.62H2.29V6.1H.76v19.81h1.53v-7.62z"/></g><defs><clipPath id="prefix__clip0_1178_9112"><path fill="#fff" d="M0 0h32v32H0z"/></clipPath></defs></svg>