<svg width="32" height="32" fill="none" xmlns="http://www.w3.org/2000/svg"><g clip-path="url(#prefix__clip0_1178_13268)" fill="#E6D4BF"><path d="M28.955 22.85h-25.9V7.62h-1.53V25.9h1.53v1.53h9.14v1.52h1.52v-1.52h4.57v1.52h1.53v-1.52h9.14V25.9h1.52V7.62h-1.52v15.23zM28.955 6.09h-6.09v1.53h6.09V6.09zM12.195 30.47v-1.52h-1.52V32h10.66v-3.05h-1.52v1.52h-7.62z"/><path d="M18.285 15.24h-4.57v1.52h4.57v-1.52zM18.285 18.28h-4.57v1.53h4.57v-1.53zM15.245 0v1.52h-1.53v1.53h-1.52v1.52h-1.52v1.52h3.04v7.62h4.57V6.09h3.05V4.57h-1.52V3.05h-1.53V1.52h-1.52V0h-1.52zM9.145 6.09h-6.09v1.53h6.09V6.09z"/></g><defs><clipPath id="prefix__clip0_1178_13268"><path fill="#fff" d="M0 0h32v32H0z"/></clipPath></defs></svg>