<svg width="32" height="32" fill="none" xmlns="http://www.w3.org/2000/svg"><path d="M22.85 5.335h-1.52v7.33h1.52v-7.33zM21.33 3.805h-1.52v1.53h1.52v-1.53zM18.28 8.375h-1.52v1.53h1.52v-1.53zM19.81 2.285h-4.57v1.52h4.57v-1.52zM16.76 9.905h-1.52v6.19h1.52v-6.19z" fill="#E6D4BF"/><path d="M15.24 3.805h-1.53v1.53h1.53v-1.53zM13.71 25.135h-1.52v1.53h1.52v-1.53zM13.71 5.335h-1.52v1.52h1.52v-1.52zM12.19 23.615h-1.53v1.52h1.53v-1.52zM12.19 6.855h-1.53v1.52h1.53v-1.52zM10.66 22.095H9.14v1.52h1.52v-1.52zM10.66 8.375H9.14v1.53h1.52v-1.53zM9.14 20.565H7.62v1.53h1.52v-1.53zM9.14 9.905H7.62v1.52h1.52v-1.52zM7.62 11.425h-6.1v1.52H0v6.1h1.52v1.52h6.1v-9.14zm-3.05 3.05H3.05v3.05H1.52v-3.05h1.53v-1.53h1.52v1.53zM30.08 17.79h-1.52v3.05h-1.53v1.52h-1.52v1.52h1.52v1.53h1.53v3.05h1.52v-1.53h1.52v-7.62h-1.52v-1.52z" fill="#E6D4BF"/><path d="M25.51 26.93h-1.53v-1.52h-1.52v1.52h-1.52v1.53h-3.05v1.52h1.52v1.52h7.62v-1.52h1.53v-1.52h-3.05v-1.53zM20.94 19.31h1.52v1.53h1.52v-1.53h1.53v-1.52h3.05v-1.53h-1.53v-1.52h-7.62v1.52h-1.52v1.53h3.05v1.52zM19.41 25.41v-1.53h1.53v-1.52h-1.53v-1.52h-1.52v-3.05h-1.52v1.52h-1.53v7.62h1.53v1.53h1.52v-3.05h1.52z" fill="#E6D4BF"/></svg>