<svg width="32" height="32" fill="none" xmlns="http://www.w3.org/2000/svg"><path d="M22.85 5.335h-1.52v21.33h1.52V5.335zM21.33 26.665h-1.52v1.52h1.52v-1.52zM21.33 3.805h-1.52v1.53h1.52v-1.53zM19.81 28.185h-4.57v1.53h4.57v-1.53zM18.28 22.095h-1.52v1.52h1.52v-1.52zM18.28 8.375h-1.52v1.53h1.52v-1.53zM19.81 2.285h-4.57v1.52h4.57v-1.52zM16.76 9.905h-1.52v12.19h1.52V9.905zM15.24 26.665h-1.53v1.52h1.53v-1.52z" fill="#E6D4BF"/><path d="M15.24 3.805h-1.53v1.53h1.53v-1.53zM13.71 25.135h-1.52v1.53h1.52v-1.53zM13.71 5.335h-1.52v1.52h1.52v-1.52zM12.19 23.615h-1.53v1.52h1.53v-1.52zM12.19 6.855h-1.53v1.52h1.53v-1.52zM10.66 22.095H9.14v1.52h1.52v-1.52zM10.66 8.375H9.14v1.53h1.52v-1.53zM9.14 20.565H7.62v1.53h1.52v-1.53zM9.14 9.905H7.62v1.52h1.52v-1.52zM7.62 11.425h-6.1v1.52H0v6.1h1.52v1.52h6.1v-9.14zm-3.05 3.05H3.05v3.05H1.52v-3.05h1.53v-1.53h1.52v1.53z" fill="#E6D4BF"/></svg>