<svg width="32" height="32" fill="none" xmlns="http://www.w3.org/2000/svg"><path d="M27.848 6.57h-1.52V5.055h-1.52V3.53h-1.53V2H5v28.955h22.848V6.57zm-1.52 22.86H6.52V3.53h13.71v6.09h6.1l-.002 19.81z" fill="#E6D4BF"/><path fill="#E6D4BF" d="M11 3.52h1.52v12.52H11zM12.52 5h1.52v1.52h-1.52z"/><path fill="#E6D4BF" d="M9.52 6.52h1.52v1.52H9.52zM9.52 3.52h1.52v1.52H9.52zM12.52 8.04h1.52v1.52h-1.52zM12.52 11.08h1.52v1.52h-1.52zM9.52 12.6h1.52v1.52H9.52zM9.52 16h1.52v3.04H9.52zM12.52 16h1.52v3.04h-1.52z"/><path fill="#E6D4BF" d="M11 19h1.52v1.52H11zM9.52 9.56h1.52v1.52H9.52z"/></svg>