<svg xmlns="http://www.w3.org/2000/svg" xmlns:xlink="http://www.w3.org/1999/xlink" width="48" height="48"><defs><linearGradient id="prefix__b"><stop offset="0" stop-opacity="0"/><stop offset=".5"/><stop offset="1" stop-opacity="0"/></linearGradient><linearGradient x1="17.554" y1="46" x2="17.554" y2="35" id="prefix__i" xlink:href="#prefix__b" gradientUnits="userSpaceOnUse" gradientTransform="matrix(1.75703 0 0 1.39696 -17.394 -16.412)"/><linearGradient id="prefix__a"><stop offset="0"/><stop offset="1" stop-opacity="0"/></linearGradient><linearGradient id="prefix__c"><stop offset="0" stop-color="#c9af8b"/><stop offset=".239" stop-color="#ad8757"/><stop offset=".276" stop-color="#c2a57f"/><stop offset="1" stop-color="#9d7d53"/></linearGradient><linearGradient x1="15.464" y1="7.976" x2="15.464" y2="45.042" id="prefix__l" xlink:href="#prefix__c" gradientUnits="userSpaceOnUse"/><linearGradient id="prefix__d"><stop offset="0" stop-color="#dac197"/><stop offset=".239" stop-color="#c1a581"/><stop offset=".276" stop-color="#dbc298"/><stop offset="1" stop-color="#a68b60"/></linearGradient><linearGradient x1="24.823" y1="15.378" x2="24.997" y2="37.277" id="prefix__k" xlink:href="#prefix__d" gradientUnits="userSpaceOnUse" gradientTransform="matrix(1.28223 0 0 1.55726 -6.07 -15.29)"/><linearGradient id="prefix__e"><stop offset="0" stop-color="#fff" stop-opacity="0"/><stop offset="1" stop-color="#fff" stop-opacity="0"/></linearGradient><linearGradient x1="23.452" y1="30.555" x2="43.007" y2="45.934" id="prefix__m" xlink:href="#prefix__e" gradientUnits="userSpaceOnUse" gradientTransform="matrix(1.28223 0 0 1.17469 -6.07 -5.303)"/><linearGradient id="prefix__f"><stop offset="0" stop-color="#fff"/><stop offset=".302" stop-color="#fff"/><stop offset=".344" stop-color="#fff" stop-opacity=".69"/><stop offset="1" stop-color="#fff" stop-opacity="0"/></linearGradient><linearGradient x1="26" y1="22" x2="26" y2="8" id="prefix__n" xlink:href="#prefix__f" gradientUnits="userSpaceOnUse"/><linearGradient id="prefix__g"><stop offset="0" stop-color="#fff" stop-opacity="0"/><stop offset=".245" stop-color="#fff"/><stop offset=".774" stop-color="#fff"/><stop offset="1" stop-color="#fff" stop-opacity="0"/></linearGradient><linearGradient x1="44.995" y1="17.5" x2="3.005" y2="17.5" id="prefix__o" xlink:href="#prefix__g" gradientUnits="userSpaceOnUse" spreadMethod="reflect"/><radialGradient cx="5" cy="41.5" r="5" fx="5" fy="41.5" id="prefix__j" xlink:href="#prefix__a" gradientUnits="userSpaceOnUse" gradientTransform="matrix(.59382 0 0 1.53665 41.14 -103.936)"/><radialGradient cx="5" cy="41.5" r="5" fx="5" fy="41.5" id="prefix__h" xlink:href="#prefix__a" gradientUnits="userSpaceOnUse" gradientTransform="matrix(.59382 0 0 1.53665 -6.66 -103.936)"/></defs><g opacity=".4"><path transform="matrix(-.99266 0 0 -.97615 .275 1.293)" fill="url(#prefix__h)" d="M-3.69-47.848h2.96v15.367h-2.96z"/><path fill="url(#prefix__i)" d="M3.69 32.482h40.412v15.367H3.69z" transform="matrix(.99266 0 0 .97615 .275 1.293)"/><path transform="matrix(.99266 0 0 -.97615 .275 1.293)" fill="url(#prefix__j)" d="M44.11-47.848h2.96v15.367h-2.96z"/></g><path d="M9.01 8.5h29.498c1.722 0 2.497-.287 2.992 1l3.002 8v25.674c0 1.553.103 1.316-1.62 1.316H5.118c-1.722 0-1.619.237-1.619-1.316V17.5l3.002-8c.48-1.26.789-1 2.51-1z" style="marker:none" fill="url(#prefix__k)" stroke="url(#prefix__l)" stroke-width=".994" stroke-linecap="round" display="block" overflow="visible"/><path d="M9.948 9.513h27.653c1.614 0 2.613.556 3.29 2.086l2.329 6.42v23.144c0 1.46-.82 2.196-2.434 2.196H7.053c-1.614 0-2.273-.808-2.273-2.27V18.02l2.254-6.558c.451-1.185 1.3-1.948 2.914-1.948z" style="marker:none" opacity=".505" fill="none" stroke="url(#prefix__m)" stroke-width=".742" display="block" overflow="visible"/><path d="M22 8h4v14h-4V8z" style="marker:none" opacity=".4" fill="url(#prefix__n)" overflow="visible"/><path d="M3.505 17.5h40.99" opacity=".4" fill="none" stroke="url(#prefix__o)" stroke-linecap="square"/></svg>