<svg version="1.0" viewBox="0 0 64 64" xmlns="http://www.w3.org/2000/svg"><defs><radialGradient id="prefix__a" cx="62.625" cy="4.625" r="10.625" gradientTransform="matrix(2.9176 0 0 .98823 -150.72 48.929)" gradientUnits="userSpaceOnUse"><stop offset="0"/><stop stop-opacity="0" offset="1"/></radialGradient><radialGradient id="prefix__b" cx="23.896" cy="3.99" r="20.397" gradientTransform="matrix(0 2.9914 -3.9485 0 47.755 -64.903)" gradientUnits="userSpaceOnUse"><stop stop-color="#8badea" offset="0"/><stop stop-color="#6396cd" offset=".262"/><stop stop-color="#3b7caf" offset=".661"/><stop stop-color="#194c70" offset="1"/></radialGradient><linearGradient id="prefix__c" x1="18.379" x2="18.379" y1="44.98" y2="3.082" gradientTransform="translate(1.92 3.92) scale(1.2534)" gradientUnits="userSpaceOnUse"><stop stop-color="#1f4b6a" offset="0"/><stop stop-color="#4083c2" offset="1"/></linearGradient><linearGradient id="prefix__d" x1="63.397" x2="63.397" y1="-12.489" y2="5.468" gradientTransform="translate(-142.25 43.835) scale(2.8014)" gradientUnits="userSpaceOnUse"><stop stop-color="#fff" offset="0"/><stop stop-color="#fff" stop-opacity="0" offset="1"/></linearGradient></defs><path d="M63 53.5C63 59.299 49.121 64 32 64S1 59.299 1 53.5 14.879 43 32 43s31 4.701 31 10.5z" fill="url(#prefix__a)" fill-rule="evenodd" opacity=".3"/><path d="M32 8.502C17.931 8.502 6.502 19.93 6.502 34S17.931 59.498 32 59.498 57.498 48.068 57.498 34 46.069 8.502 32 8.502z" fill="url(#prefix__b)" stroke="url(#prefix__c)" stroke-linecap="round" stroke-linejoin="round"/><path d="M56.5 33.999C56.5 47.53 45.53 58.5 32 58.5c-13.531 0-24.5-10.97-24.5-24.501S18.469 9.5 32 9.5c13.53 0 24.5 10.968 24.5 24.499z" fill="none" opacity=".4" stroke="url(#prefix__d)"/><path d="M36.058 20.893c0 2.15-1.736 3.893-3.875 3.893-2.14 0-3.875-1.744-3.875-3.893S30.044 17 32.183 17c2.139 0 3.875 1.744 3.875 3.893zm9.672 4.14c-.18.029-.349.1-.494.207L32 27.314 18.833 25.21c-.34-.248-.819-.322-1.199-.138s-.63.62-.635 1.036c-.005.415.26.774.635.967l10.317 3.288-.07 7.548-3.64 11.305c-.352.515-.245 1.176.281 1.52.526.342 1.272.238 1.623-.277l5.874-12.202 5.764 12.18a1.15 1.15 0 001.552.415 1.1 1.1 0 00.423-1.519l-3.573-11.353-.14-7.106 10.46-3.839c.423-.29.607-.84.424-1.312-.184-.472-.687-.748-1.2-.69z" fill="#1f4b6b"/><path d="M36.058 21.893c0 2.15-1.736 3.893-3.875 3.893-2.14 0-3.875-1.744-3.875-3.893S30.044 18 32.183 18c2.139 0 3.875 1.744 3.875 3.893zm9.672 4.14c-.18.029-.349.1-.494.207L32 28.314 18.833 26.21c-.34-.248-.819-.322-1.199-.138s-.63.62-.635 1.036c-.005.415.26.774.635.967l10.317 3.288-.07 7.548-3.64 11.305c-.352.515-.245 1.176.281 1.52.526.342 1.272.238 1.623-.277l5.874-12.202 5.764 12.18a1.15 1.15 0 001.552.415 1.1 1.1 0 00.423-1.519l-3.573-11.353-.14-7.106 10.46-3.839c.423-.29.607-.84.424-1.312-.184-.472-.687-.748-1.2-.69z" fill="#fff"/></svg>