<svg width="32" height="32" fill="none" xmlns="http://www.w3.org/2000/svg"><g clip-path="url(#prefix__clip0_1178_7183)" fill="#E6D4BF"><path d="M31.235 21.335h-1.52v1.52h1.52v-1.52zM31.235 6.095h-1.52v1.52h1.52v-1.52zM29.715 18.285h-1.52v3.05h1.52v-3.05zM29.715 7.615h-1.52v3.05h1.52v-3.05z"/><path d="M19.045 22.855V6.095h10.67v-1.52h-10.67v-1.53h-1.52v16.76H2.285V3.045H.765v27.43h1.52v-9.14h12.19v1.52h1.53v1.52h13.71v-1.52h-10.67z"/><path d="M28.195 15.235h-1.53v3.05h1.53v-3.05zM28.195 10.665h-1.53v3.05h1.53v-3.05zM26.665 13.715h-1.52v1.52h1.52v-1.52zM17.525 1.525H2.285v1.52h15.24v-1.52z"/></g><defs><clipPath id="prefix__clip0_1178_7183"><path fill="#fff" d="M0 0h32v32H0z"/></clipPath></defs></svg>