<svg width="32" height="32" fill="none" xmlns="http://www.w3.org/2000/svg"><g clip-path="url(#prefix__clip0_1178_8244)" fill="#E6D4BF"><path d="M31.24 25.905h-1.53v3.05h1.53v-3.05zM29.71 22.855h-1.52v3.05h1.52v-3.05z"/><path d="M29.71 28.955H2.28v1.52h27.43v-1.52zM28.19 19.805h-1.52v3.05h1.52v-3.05zM26.67 16.765h-1.53v3.04h1.53v-3.04zM25.14 13.715h-1.52v3.05h1.52v-3.05zM23.62 10.665h-1.53v3.05h1.53v-3.05zM22.09 7.615h-1.52v3.05h1.52v-3.05zM20.57 4.575h-1.52v3.04h1.52v-3.04zM19.05 3.045h-1.53v1.53h1.53v-1.53zM14.47 25.905h3.05v-1.52h1.53v-3.05h-1.53v-1.53h-3.05v1.53h-1.52v3.05h1.52v1.52zM17.52 9.145h-3.05v9.14h3.05v-9.14zM17.52 1.525h-3.05v1.52h3.05v-1.52zM14.47 3.045h-1.52v1.53h1.52v-1.53zM12.95 4.575h-1.52v3.04h1.52v-3.04zM11.43 7.615H9.9v3.05h1.53v-3.05zM9.9 10.665H8.38v3.05H9.9v-3.05zM8.38 13.715H6.86v3.05h1.52v-3.05zM6.86 16.765H5.33v3.04h1.53v-3.04zM5.33 19.805H3.81v3.05h1.52v-3.05zM3.81 22.855H2.28v3.05h1.53v-3.05z"/><path d="M2.28 25.905H.76v3.05h1.52v-3.05z"/></g><defs><clipPath id="prefix__clip0_1178_8244"><path fill="#fff" d="M0 0h32v32H0z"/></clipPath></defs></svg>