<svg width="32" height="32" fill="none" xmlns="http://www.w3.org/2000/svg"><g clip-path="url(#prefix__clip0_1178_16172)" fill="#E6D4BF"><path d="M19.05 13.72v1.52h1.52v6.1h1.52v-6.1h7.62v9.14h1.53V7.62h-1.53v6.1H19.05z"/><path d="M29.71 24.38h-1.52v1.53h1.52v-1.53zM29.71 6.1h-1.52v1.52h1.52V6.1zM28.19 9.15h-1.52v1.52h1.52V9.15zM28.19 25.91H3.81v1.52h24.38v-1.52zM26.67 10.67h-4.58v1.52h4.58v-1.52zM26.67 7.62h-4.58v1.53h4.58V7.62zM22.09 9.15h-1.52v1.52h1.52V9.15zM20.57 21.34h-1.52v1.52h1.52v-1.52zM28.19 4.57H17.52V6.1h10.67V4.57zM14.48 21.34h3.04v-1.53h1.53v-3.05h-1.53v1.53H16v-1.53h1.52v-1.52h-3.04v1.52h-1.53v3.05h1.53v1.53zM19.05 12.19h-6.1v1.53h6.1v-1.53zM19.05 22.86h-6.1v1.52h6.1v-1.52zM17.52 6.1H16v1.52h1.52V6.1zM12.95 21.34h-1.52v1.52h1.52v-1.52zM12.95 4.57H8.38V6.1h4.57V4.57zM8.38 10.67H5.33v1.52h3.05v-1.52zM16 9.15V7.62h-1.52V6.1h-1.53v1.52H8.38V6.1H6.86v1.52H3.81v1.53H16zM3.81 24.38H2.28v1.53h1.53v-1.53zM3.81 9.15H2.28v1.52h1.53V9.15z"/><path d="M2.28 15.24H9.9v6.1h1.53v-6.1h1.52v-1.52H2.28v-3.05H.76v13.71h1.52v-9.14z"/></g><defs><clipPath id="prefix__clip0_1178_16172"><path fill="#fff" d="M0 0h32v32H0z"/></clipPath></defs></svg>