<svg width="32" height="32" fill="none" xmlns="http://www.w3.org/2000/svg"><path d="M32 3.05h-1.52v25.9H32V3.05zM30.48 28.95h-1.53v1.53h1.53v-1.53zM30.48 1.52h-1.53v1.53h1.53V1.52zM28.95 30.48H3.05V32h25.9v-1.52zM28.95 0H3.05v1.52h25.9V0zM3.05 28.95H1.53v1.53h1.52v-1.53zM3.05 1.52H1.53v1.53h1.52V1.52zM1.53 3.05H0v25.9h1.53V3.05zM7.6 17.52h1.52v1.52h1.52v1.52h1.53v1.53h3.04v-1.53h1.53v-1.52h1.52v-1.52h1.53v-1.53h1.52v-1.52h1.52v-1.52h1.53v-1.53h-1.53V9.9h-1.52v1.52h-1.52v1.53h-1.53v1.52h-1.52v1.52h-1.53v1.53h-3.04v-1.53h-1.53v-1.52H9.12v1.52H7.6v1.53z" fill="#E6D4BF"/></svg>