<svg width="32" height="32" fill="none" xmlns="http://www.w3.org/2000/svg"><g clip-path="url(#prefix__clip0_2316_1740)" fill="#E6D4BF"><path d="M32 12.19h-1.53v7.62H32v-7.62zM30.47 19.81h-1.52v3.05h1.52v-3.05zM30.47 9.14h-1.52v3.05h1.52V9.14zM28.95 22.86h-1.52v3.05h1.52v-3.05zM28.95 6.1h-1.52v3.05h1.52V6.1zM27.43 25.91H25.9v1.52h1.53v-1.52zM25.9 27.43h-3.04v1.52h3.04v-1.52zM22.86 28.95h-3.05v1.53h3.05v-1.53zM22.86 1.52h-3.05v1.53h3.05V1.52zM19.81 30.48h-7.62V32h7.62v-1.52zM19.81 0h-7.62v1.52h7.62V0zM12.19 28.95H9.14v1.53h3.05v-1.53zM22.69 13.56h-1.52v4.57h1.52v-4.57zM19.66 19.65h-1.53v1.52h1.53v-1.52z"/><path d="M21.18 18.13h-1.53v1.52h1.53v-1.52zM18.13 21.17h-4.57v1.52h4.57v-1.52zM28.95 9H13.56v1.52h15.39V9zM13.56 19.65h-1.52v1.52h1.52v-1.52zM18.12 22.69H16.6v1.52h1.52v-1.52zM16.6 24.21h-1.52v1.52h1.52v-1.52zM15.08 25.73h-1.52v1.52h1.52v-1.52zM13.56 27.25h-1.52v1.52h1.52v-1.52zM12.04 18.13h-1.52v1.52h1.52v-1.52zM9 12.05H7.48v3.04H9v-3.04zM7.48 10.53H5.96v1.52h1.52v-1.52zM5.96 9.01H4.44v1.52h1.52V9.01zM12.04 12.04h-1.52v1.52h1.52v-1.52zM13.56 10.52h-1.52v1.53h1.52v-1.53zM19.65 10.52h-1.52v1.53h1.52v-1.53zM21.17 12.04h-1.52v1.53h1.52v-1.53z"/><path d="M10.53 13.56H9v4.57h1.53v-4.57zM12.19 1.52H9.14v1.53h3.05V1.52zM9.14 27.43H6.09v1.52h3.05v-1.52zM9.14 3.05H6.09v1.52h3.05V3.05zM25.91 3.05h-3.05v1.52h3.05V3.05zM6.09 25.91H4.57v1.52h1.52v-1.52zM6.09 4.57H4.57V6.1h1.52V4.57zM27.42 4.57H25.9V6.1h1.52V4.57zM4.57 22.86H3.05v3.05h1.52v-3.05zM4.57 6.1H3.05v3.04h1.52V6.1zM3.05 19.81H1.52v3.05h1.53v-3.05zM3.05 9.14H1.52v3.05h1.53V9.14zM1.52 12.19H0v7.62h1.52v-7.62z"/></g><defs><clipPath id="prefix__clip0_2316_1740"><path fill="#fff" d="M0 0h32v32H0z"/></clipPath></defs></svg>