<svg width="32" height="32" fill="none" xmlns="http://www.w3.org/2000/svg"><path d="M32 12.19h-1.52v7.62H32v-7.62zM30.48 19.81h-1.53v3.05h1.53v-3.05zM30.48 9.14h-1.53v3.05h1.53V9.14zM28.95 22.86h-1.52v3.04h1.52v-3.04zM28.95 6.09h-1.52v3.05h1.52V6.09zM27.43 25.9H25.9v1.53h1.53V25.9zM27.43 4.57H25.9v1.52h1.53V4.57zM25.9 27.43h-3.04v1.52h3.04v-1.52zM25.9 3.05h-3.04v1.52h3.04V3.05zM22.86 28.95h-3.05v1.53h3.05v-1.53zM22.86 1.52h-3.05v1.53h3.05V1.52zM19.81 30.48h-7.62V32h7.62v-1.52zM19.81 0h-7.62v1.52h7.62V0zM12.19 28.95H9.14v1.53h3.05v-1.53zM12.19 1.52H9.14v1.53h3.05V1.52zM9.14 27.43H6.09v1.52h3.05v-1.52zM9.14 3.05H6.09v1.52h3.05V3.05zM6.09 25.9H4.57v1.53h1.52V25.9zM6.09 4.57H4.57v1.52h1.52V4.57zM4.57 22.86H3.05v3.04h1.52v-3.04zM4.57 6.09H3.05v3.05h1.52V6.09zM3.05 19.81H1.52v3.05h1.53v-3.05zM3.05 9.14H1.52v3.05h1.53V9.14zM1.52 12.19H0v7.62h1.52v-7.62zM10.66 22.86h1.53v-1.53h1.52v-1.52h1.52v-1.52h1.53v1.52h1.52v1.52h1.53v1.53h1.52v-1.53h1.52v-1.52h-1.52v-1.52h-1.52v-1.53h-1.53v-1.52h1.53v-1.52h1.52v-1.53h1.52v-1.52h-1.52V9.14h-1.52v1.53h-1.53v1.52h-1.52v1.53h-1.53v-1.53h-1.52v-1.52h-1.52V9.14h-1.53v1.53H9.14v1.52h1.52v1.53h1.53v1.52h1.52v1.52h-1.52v1.53h-1.53v1.52H9.14v1.52h1.52v1.53z" fill="#E6D4BF"/></svg>