<svg xmlns="http://www.w3.org/2000/svg" viewBox="0 0 176.13 176.13">
  <circle cx="88.06" cy="88.06" r="88.06" fill="#5f6368" />
  <path
    d="M143.36 103.29l-12.15-9.55c.24-1.81.36-3.69.36-5.68s-.12-3.87-.42-5.68l12.27-9.55c1.09-.85 1.39-2.48.72-3.69l-11.6-20.07c-.72-1.33-2.24-1.75-3.57-1.33l-14.44 5.8c-3.02-2.3-6.23-4.23-9.79-5.68l-2.18-15.35c-.24-1.45-1.45-2.48-2.9-2.48H76.45c-1.45 0-2.6 1.03-2.84 2.48l-2.18 15.35c-3.57 1.45-6.83 3.45-9.79 5.68l-14.45-5.8c-1.33-.48-2.84 0-3.57 1.33L32.08 69.14c-.72 1.27-.48 2.84.72 3.69l12.27 9.55c-.3 1.81-.54 3.81-.54 5.68s.12 3.87.42 5.68l-12.27 9.55c-1.09.85-1.39 2.48-.72 3.69l11.6 20.07c.72 1.33 2.24 1.75 3.57 1.33l14.44-5.8c3.02 2.3 6.23 4.23 9.79 5.68l2.18 15.35c.3 1.45 1.45 2.48 2.9 2.48h23.21c1.45 0 2.66-1.03 2.84-2.48l2.18-15.35c3.57-1.45 6.83-3.38 9.79-5.68l14.45 5.8c1.33.48 2.84 0 3.57-1.33l11.6-20.07c.72-1.33.42-2.84-.73-3.69zm-55.3 3.89c-10.56 0-19.12-8.56-19.12-19.12s8.56-19.12 19.12-19.12 19.12 8.56 19.12 19.12-8.56 19.12-19.12 19.12z"
    fill="#fff" />
  <path
    d="M88.06 53.08c-19.32 0-34.98 15.66-34.98 34.98s15.66 34.98 34.98 34.98 34.98-15.66 34.98-34.98-15.66-34.98-34.98-34.98zm0 62.02c-14.94 0-27.04-12.1-27.04-27.04s12.1-27.04 27.04-27.04 27.04 12.1 27.04 27.04S103 115.1 88.06 115.1z"
    fill="#8ab4f8" />
  <path
    d="M88.06 61.02c-14.94 0-27.04 12.1-27.04 27.04s12.1 27.04 27.04 27.04S115.1 103 115.1 88.06 103 61.02 88.06 61.02zm0 46.16c-10.56 0-19.12-8.56-19.12-19.12s8.56-19.12 19.12-19.12 19.12 8.56 19.12 19.12-8.56 19.12-19.12 19.12z"
    fill="#4285f4" />
</svg>