<svg width="32" height="32" fill="none" xmlns="http://www.w3.org/2000/svg"><g clip-path="url(#prefix__clip0_1178_4470)" fill="#E6D4BF"><path d="M30.48 1.52h-1.53V0H3.05v1.52H1.52v1.53H0v25.9h1.52v1.53h1.53V32h25.9v-1.52h1.53v-1.53H32V3.05h-1.52V1.52zm0 15.24h-1.53v10.67h-1.52v1.52H4.57v-1.52H3.05V16.76H1.52v-1.52h1.53V4.57h1.52V3.05h22.86v1.52h1.52v10.67h1.53v1.52z"/><path d="M28.95 15.24h-4.57v1.52h4.57v-1.52zM24.38 13.71h-1.52v1.53h1.52v-1.53zM22.86 15.24h-1.53v3.05h1.53v-3.05zM21.33 18.29h-1.52v3.04h1.52v-3.04zM19.81 21.33h-1.52v1.53h1.52v-1.53zM18.29 18.29h-1.53v3.04h1.53v-3.04zM16.76 15.24h-1.52v3.05h1.52v-3.05zM15.24 12.19h-1.53v3.05h1.53v-3.05zM13.71 9.14h-1.52v3.05h1.52V9.14zM12.19 7.62h-1.52v1.52h1.52V7.62zM10.67 9.14H9.14v3.05h1.53V9.14zM9.14 12.19H7.62v3.05h1.52v-3.05zM7.62 15.24H3.05v1.52h4.57v-1.52z"/></g><defs><clipPath id="prefix__clip0_1178_4470"><path fill="#fff" d="M0 0h32v32H0z"/></clipPath></defs></svg>