<svg width="32" height="32" fill="none" xmlns="http://www.w3.org/2000/svg"><g clip-path="url(#prefix__clip0_1178_7918)" fill="#E6D4BF"><path d="M30.47 6.1H1.52V1.53H0v28.95h1.52V7.62h28.95v22.86H32V1.53h-1.53V6.1zM30.47 30.48H1.52V32h28.95v-1.52z"/><path d="M24.38 22.86h-1.52v1.52h1.52v-1.52zM22.86 18.29h1.52v1.52h-1.52v1.53h3.04v-4.58h-3.04v1.53zM24.38 13.72h-1.52v1.52h1.52v-1.52zM22.86 24.38h-1.53v1.53h1.53v-1.53zM22.86 21.34h-1.53v1.52h1.53v-1.52zM22.86 15.24h-1.53v1.52h1.53v-1.52zM22.86 12.19h-1.53v1.53h1.53v-1.53zM21.33 25.91h-1.52v1.52h1.52v-1.52zM21.33 10.67h-1.52v1.52h1.52v-1.52zM19.81 24.38h-1.53v1.53h1.53v-1.53zM19.81 16.76h-1.53v4.58h1.53v-4.58zM19.81 12.19h-1.53v1.53h1.53v-1.53zM16.76 27.43h-1.52v-1.52h-1.53v3.04h4.57v-3.04h-1.52v1.52z"/><path d="M18.28 21.34h-4.57v1.52h4.57v-1.52zM18.28 15.24h-4.57v1.52h4.57v-1.52zM15.24 10.67h1.52v1.52h1.52V9.15h-4.57v3.04h1.53v-1.52zM13.71 24.38h-1.52v1.53h1.52v-1.53zM13.71 16.76h-1.52v4.58h1.52v-4.58zM13.71 12.19h-1.52v1.53h1.52v-1.53zM12.19 25.91h-1.52v1.52h1.52v-1.52zM12.19 10.67h-1.52v1.52h1.52v-1.52zM10.67 24.38H9.14v1.53h1.53v-1.53zM10.67 21.34H9.14v1.52h1.53v-1.52zM10.67 15.24H9.14v1.52h1.53v-1.52zM10.67 12.19H9.14v1.53h1.53v-1.53zM10.67 3.05H9.14v1.52h1.53V3.05zM9.14 22.86H7.62v1.52h1.52v-1.52zM7.62 19.81v-1.52h1.52v-1.53H6.09v4.58h3.05v-1.53H7.62zM9.14 13.72H7.62v1.52h1.52v-1.52zM7.62 3.05H6.09v1.52h1.53V3.05zM4.57 3.05H3.05v1.52h1.52V3.05zM30.47 0H1.52v1.53h28.95V0z"/></g><defs><clipPath id="prefix__clip0_1178_7918"><path fill="#fff" d="M0 0h32v32H0z"/></clipPath></defs></svg>