<svg viewBox="0 0 48 48" xmlns="http://www.w3.org/2000/svg" xmlns:xlink="http://www.w3.org/1999/xlink"><defs><linearGradient id="prefix__j" x1="20.58" x2="24.274" y1="10.775" y2="9.862" gradientUnits="userSpaceOnUse" xlink:href="#prefix__a" spreadMethod="reflect"/><linearGradient id="prefix__a"><stop stop-color="#e6cde2" offset="0"/><stop stop-color="#e6cde2" stop-opacity="0" offset="1"/></linearGradient><linearGradient id="prefix__k" x1="17.495" x2="21.047" y1="11.2" y2="9.796" gradientUnits="userSpaceOnUse" xlink:href="#prefix__b" spreadMethod="reflect"/><linearGradient id="prefix__b"><stop stop-color="#c1cbe4" offset="0"/><stop stop-color="#c1cbe4" stop-opacity="0" offset="1"/></linearGradient><linearGradient id="prefix__l" x1="14.085" x2="16.994" y1="13.046" y2="10.732" gradientUnits="userSpaceOnUse" xlink:href="#prefix__c" spreadMethod="reflect"/><linearGradient id="prefix__c"><stop stop-color="#c4ebdd" offset="0"/><stop stop-color="#c4ebdd" stop-opacity="0" offset="1"/></linearGradient><linearGradient id="prefix__m" x1="12.372" x2="14.609" y1="16.188" y2="13.462" gradientUnits="userSpaceOnUse" xlink:href="#prefix__d" spreadMethod="reflect"/><linearGradient id="prefix__d"><stop stop-color="#ebeec7" offset="0"/><stop stop-color="#ebeec7" stop-opacity="0" offset="1"/></linearGradient><linearGradient id="prefix__n" x1="10.609" x2="9.73" y1="17.886" y2="20.613" gradientUnits="userSpaceOnUse" xlink:href="#prefix__e" spreadMethod="reflect"/><linearGradient id="prefix__e"><stop stop-color="#fcd9cd" offset="0"/><stop stop-color="#fcd9cd" stop-opacity="0" offset="1"/></linearGradient><linearGradient id="prefix__f"><stop offset="0"/><stop stop-opacity="0" offset="1"/></linearGradient><linearGradient id="prefix__p" x1="18.776" x2="18.203" y1="4.038" y2="45.962" gradientTransform="matrix(.42934 0 0 -.42934 13.547 34.734)" gradientUnits="userSpaceOnUse"><stop stop-color="#fff" offset="0"/><stop stop-color="#fff" stop-opacity="0" offset="1"/></linearGradient><linearGradient id="prefix__o" x1="71.204" x2="71.204" y1="6.238" y2="44.341" gradientTransform="translate(-51.611 -2.728) scale(1.0541)" gradientUnits="userSpaceOnUse"><stop stop-color="#fff" offset="0"/><stop stop-color="#fff" stop-opacity=".235" offset=".508"/><stop stop-color="#fff" stop-opacity=".157" offset=".835"/><stop stop-color="#fff" stop-opacity=".392" offset="1"/></linearGradient><linearGradient id="prefix__i" x1="12.274" x2="35.391" y1="32.416" y2="14.203" gradientTransform="rotate(90 27.587 23.473) scale(1.1714)" gradientUnits="userSpaceOnUse"><stop stop-color="#dedcde" offset="0"/><stop stop-color="#f0f0f0" offset=".5"/><stop stop-color="#d2d2d2" offset="1"/></linearGradient><radialGradient id="prefix__g" cx="99.189" cy="185.3" r="62.769" gradientTransform="matrix(.38235 0 0 .11152 -5.925 36.336)" gradientUnits="userSpaceOnUse" xlink:href="#prefix__f"/><radialGradient id="prefix__h" cx="99.189" cy="185.3" r="62.769" gradientTransform="matrix(.2549 0 0 .07966 6.716 44.241)" gradientUnits="userSpaceOnUse" xlink:href="#prefix__f"/></defs><g stroke-width="1.406"><path d="M56 57.002a24 6.999 0 11-48 0 24 6.999 0 1148 0z" fill="url(#prefix__g)" opacity=".2" transform="matrix(.70833 0 0 .71428 1.333 .785)"/><path d="M48 59.002a16 4.999 0 11-32 0 16 4.999 0 1132 0z" fill="url(#prefix__h)" opacity=".4" transform="matrix(.70833 0 0 .71428 1.333 .785)"/></g><path d="M44.5 24c0-11.363-9.137-20.5-20.5-20.5A20.448 20.448 0 003.5 24c0 11.363 9.137 20.5 20.5 20.5S44.5 35.363 44.5 24zm-13 0c0 4.128-3.29 7.5-7.5 7.5-4.293 0-7.5-3.455-7.5-7.5 0-4.127 3.042-7.5 7.5-7.5s7.5 3.454 7.5 7.5z" fill="url(#prefix__i)"/><path d="M24 16c-4.416 0-8 3.584-8 8s3.584 8 8 8 8-3.584 8-8-3.584-8-8-8zm0 4c2.208 0 4 1.792 4 4s-1.792 4-4 4-4-1.792-4-4 1.792-4 4-4z" fill="#fff" opacity=".5"/><path d="M24 20.25c2.07 0 3.75 1.68 3.75 3.75s-1.68 3.75-3.75 3.75-3.75-1.68-3.75-3.75 1.68-3.75 3.75-3.75z" fill="none" opacity=".3" stroke="#000" stroke-linejoin="round"/><path transform="rotate(1.621 24.094 24.175)" d="M15.857 5.73l4.768 10.614A8.293 8.293 0 0124 15.625h.094l.014-11.62c-2.942-.07-5.543.657-8.251 1.726z" fill="url(#prefix__j)" opacity=".8"/><path d="M12.121 7.906l6.931 9.36a8.293 8.293 0 013.143-1.425l.091-.02-2.43-11.395c-2.888.561-5.319 1.855-7.735 3.48z" fill="url(#prefix__k)" opacity=".8"/><path d="M8.252 11.647l9.214 7.156a8.294 8.294 0 012.667-2.19l.083-.043-5.35-10.32c-2.645 1.29-4.7 3.203-6.614 5.397z" fill="url(#prefix__l)" opacity=".8"/><path d="M5.633 16.074c7.175 2.242 7.85 7.032 12.777 1.754L10.5 9.132c-2.221 1.93-3.587 4.327-4.867 6.942z" fill="url(#prefix__m)" opacity=".8"/><path d="M7.155 13.193c-1.183 1.752-1.907 3.636-2.525 5.644l11.34 2.975c.215-.763.517-1.515.968-2.219L17 19.5l-9.844-6.307z" fill="url(#prefix__n)" opacity=".8"/><g><path transform="rotate(-178.379 23.997 23.997)" d="M15.857 5.73l4.768 10.614A8.293 8.293 0 0124 15.625h.094l.014-11.62c-2.942-.07-5.543.657-8.251 1.726z" fill="url(#prefix__j)" opacity=".8"/><path d="M12.121 7.906l6.931 9.36a8.293 8.293 0 013.143-1.425l.091-.02-2.43-11.395c-2.888.561-5.319 1.855-7.735 3.48z" fill="url(#prefix__k)" opacity=".8" transform="rotate(180 24 23.995)"/><path d="M8.252 11.647l9.214 7.156a8.294 8.294 0 012.667-2.19l.083-.043-5.35-10.32c-2.645 1.29-4.7 3.203-6.614 5.397z" fill="url(#prefix__l)" opacity=".8" transform="rotate(180 24 23.995)"/><path d="M5.633 16.074c7.175 2.242 7.85 7.032 12.777 1.754L10.5 9.132c-2.221 1.93-3.587 4.327-4.867 6.942z" fill="url(#prefix__m)" opacity=".8" transform="rotate(180 24 23.995)"/><path d="M7.155 13.193c-1.183 1.752-1.907 3.636-2.525 5.644l11.34 2.975c.215-.763.517-1.515.968-2.219L17 19.5l-9.844-6.307z" fill="url(#prefix__n)" opacity=".8" transform="rotate(180 24 23.995)"/></g><path d="M43.5 23.999C43.5 34.769 34.769 43.5 24 43.5c-10.77 0-19.5-8.73-19.5-19.501C4.5 13.23 13.23 4.5 24 4.5c10.769 0 19.5 8.73 19.5 19.499v0z" color="#000" fill="none" opacity=".55" stroke="url(#prefix__o)" stroke-linecap="round" stroke-linejoin="round"/><path d="M24 32.5c-4.711 0-8.5-3.789-8.5-8.5s3.789-8.5 8.5-8.5 8.5 3.789 8.5 8.5-3.789 8.5-8.5 8.5z" fill="none" opacity=".4" stroke="url(#prefix__p)"/><path d="M44.5 24c0-11.363-9.137-20.5-20.5-20.5A20.448 20.448 0 003.5 24c0 11.363 9.137 20.5 20.5 20.5S44.5 35.363 44.5 24zm-13 0c0 4.128-3.29 7.5-7.5 7.5-4.293 0-7.5-3.455-7.5-7.5 0-4.127 3.042-7.5 7.5-7.5s7.5 3.454 7.5 7.5z" fill="none" opacity=".3" stroke="#000"/></svg>