<svg xmlns="http://www.w3.org/2000/svg" xmlns:xlink="http://www.w3.org/1999/xlink" version="1.0" width="48" height="48"><defs><linearGradient x1="14.997" y1="11.188" x2="32.511" y2="34.307" id="prefix__d" gradientUnits="userSpaceOnUse"><stop offset="0" stop-color="#ebebeb"/><stop offset=".5" stop-color="#fff"/><stop offset="1" stop-color="#ebebeb"/></linearGradient><linearGradient id="prefix__c"><stop offset="0" stop-color="#d9d9d9"/><stop offset="1" stop-color="#eee" stop-opacity="0"/></linearGradient><linearGradient id="prefix__f"><stop offset="0" stop-color="#fff"/><stop offset="1" stop-color="#fff" stop-opacity="0"/></linearGradient><linearGradient id="prefix__h"><stop offset="0"/><stop offset="1" stop-opacity="0"/></linearGradient><linearGradient id="prefix__e"><stop offset="0" stop-opacity="0"/><stop offset=".5"/><stop offset="1" stop-opacity="0"/></linearGradient><linearGradient id="prefix__a"><stop offset="0" stop-color="#aaa"/><stop offset="1" stop-color="#646464"/></linearGradient><linearGradient id="prefix__b"><stop offset="0" stop-color="#aaa"/><stop offset="1" stop-color="#c8c8c8"/></linearGradient><linearGradient id="prefix__g"><stop offset="0" stop-color="#f0f0f1"/><stop offset="1" stop-color="#ddddde"/></linearGradient><linearGradient x1="23" y1="45" x2="23" y2="39" id="prefix__s" xlink:href="#prefix__a" gradientUnits="userSpaceOnUse" gradientTransform="translate(0 -6)"/><linearGradient x1="18.463" y1="21.071" x2="14.445" y2="11.317" id="prefix__r" xlink:href="#prefix__b" gradientUnits="userSpaceOnUse" gradientTransform="matrix(.99557 0 0 .99097 .106 -3.9)"/><linearGradient x1="28.438" y1="50.296" x2="28.375" y2="40.704" id="prefix__l" xlink:href="#prefix__a" gradientUnits="userSpaceOnUse" gradientTransform="matrix(1.00015 0 0 .62554 -5.004 7.538)"/><linearGradient x1="26.333" y1="34.172" x2="26.194" y2="21.988" id="prefix__p" xlink:href="#prefix__c" gradientUnits="userSpaceOnUse" gradientTransform="matrix(.88268 0 0 .4894 2.502 25.113)"/><linearGradient x1="14.997" y1="11.188" x2="32.511" y2="34.307" id="prefix__o" xlink:href="#prefix__d" gradientUnits="userSpaceOnUse" gradientTransform="matrix(1.0508 0 0 .58262 -1.227 23.89)"/><linearGradient x1="26.333" y1="34.172" x2="26.194" y2="21.988" id="prefix__n" xlink:href="#prefix__c" gradientUnits="userSpaceOnUse" gradientTransform="matrix(.20251 0 0 .15667 19.053 32.23)"/><linearGradient x1="302.857" y1="366.648" x2="302.857" y2="609.505" id="prefix__m" xlink:href="#prefix__e" gradientUnits="userSpaceOnUse" gradientTransform="matrix(.06519 0 0 .03085 .438 24.173)"/><linearGradient x1="302.857" y1="366.648" x2="302.857" y2="609.505" id="prefix__i" xlink:href="#prefix__e" gradientUnits="userSpaceOnUse" gradientTransform="matrix(.07636 0 0 .02059 -3.597 28.451)"/><linearGradient x1="26.877" y1="20.804" x2="10.516" y2="8.27" id="prefix__u" xlink:href="#prefix__b" gradientUnits="userSpaceOnUse"/><radialGradient cx="24" cy="58.8" r="21" fx="24" fy="58.8" id="prefix__t" xlink:href="#prefix__f" gradientUnits="userSpaceOnUse" gradientTransform="matrix(.90476 0 0 .33333 2.286 16.4)"/><radialGradient cx="14.847" cy="7.679" r="23" fx="14.847" fy="7.679" id="prefix__q" xlink:href="#prefix__g" gradientUnits="userSpaceOnUse" gradientTransform="matrix(.9233 .39188 -.39794 .93757 4.194 -1.043)"/><radialGradient cx="605.714" cy="486.648" r="117.143" fx="605.714" fy="486.648" id="prefix__k" xlink:href="#prefix__h" gradientUnits="userSpaceOnUse" gradientTransform="matrix(-.04485 0 0 .02059 32.611 28.451)"/><radialGradient cx="605.714" cy="486.648" r="117.143" fx="605.714" fy="486.648" id="prefix__j" xlink:href="#prefix__h" gradientUnits="userSpaceOnUse" gradientTransform="matrix(.04485 0 0 .02059 15.389 28.451)"/></defs><path style="marker:none" opacity=".3" fill="url(#prefix__i)" overflow="visible" d="M5.565 36h36.869v5H5.565z"/><path d="M42.417 36v5c2.31.01 5.583-1.12 5.583-2.5S45.423 36 42.417 36z" style="marker:none" opacity=".3" fill="url(#prefix__j)" overflow="visible"/><path d="M5.583 36v5C3.273 41.01 0 39.88 0 38.5S2.577 36 5.583 36z" style="marker:none" opacity=".3" fill="url(#prefix__k)" overflow="visible"/><path d="M1.464 32.464h45.072l-.901 6.072H2.465l-1.001-6.072z" fill="url(#prefix__l)" fill-rule="evenodd" stroke="#59595b" stroke-width=".928" stroke-linecap="round" stroke-linejoin="round"/><rect width="40" height="2.5" rx="1" ry="1.25" x="4" y="35" opacity=".5" fill="#fff"/><rect width="40" height="2" rx="1" ry="1" x="4" y="35" fill="#282828"/><path style="marker:none" opacity=".402" fill="url(#prefix__m)" overflow="visible" d="M8.261 35.483h31.477v7.492H8.261z"/><path d="M19.84 35.565a2.61 2.61 0 00-.08.586c0 1.809 1.886 3.257 4.224 3.257 2.339 0 4.216-1.448 4.216-3.257 0-.2-.035-.397-.079-.586H19.84z" fill="url(#prefix__n)" stroke="gray" stroke-width=".93"/><path d="M6.106 35.06c-.304.736-.518 1.51-.518 2.3 0 5.652 8.217 10.175 18.41 10.175s18.374-4.523 18.374-10.175c0-.786-.181-1.567-.482-2.3H24.722c2.03.217 3.688 1.116 3.688 2.3 0 1.34-1.995 2.44-4.412 2.44s-4.413-1.1-4.413-2.44c0-1.184 1.66-2.083 3.689-2.3H6.106z" fill="url(#prefix__o)"/><path d="M5.933 35.53c-.19.591-.345 1.208-.345 1.83 0 5.652 8.217 10.175 18.41 10.175s18.374-4.523 18.374-10.175c0-.622-.154-1.239-.344-1.83H5.933z" fill="url(#prefix__p)" stroke="#646662" stroke-width=".93"/><path d="M15.57 35.081c-.852.816-1.46 1.295-1.46 2.296 0 3.081 4.534 5.506 9.962 5.506 5.557 0 9.962-2.497 9.962-5.506 0-1.016-.647-1.484-1.5-2.296h-5.932c1.851.482 2.893 1.098 2.893 2.296 0 1.648-2.451 3-5.423 3-2.973 0-5.424-1.352-5.424-3 0-1.2 1.014-1.814 2.867-2.296H15.57z" opacity=".11"/><path d="M17.78 46.532l4.179-6.68c-.968-.192-1.708-.568-2.176-1.062l-11.45 3.183c1.931 2.117 5.29 3.762 9.446 4.56z" fill="#fff" fill-opacity=".471"/><path d="M7.12 35.465a6.054 6.054 0 00-.446 2.194c0 4.96 8.378 8.936 17.324 8.936 8.945 0 17.101-3.976 17.101-8.936 0-.705-.202-1.538-.477-2.194H7.12z" opacity=".3" fill="none" stroke="#fff" stroke-width=".93"/><path opacity=".282" d="M5 36h38v1H5z"/><path fill="#d2d2d3" fill-rule="evenodd" d="M1.5 32h45v1h-45z"/><path d="M46.5 32.5L39.705 7.776c-.192-.704-1.198-1.276-2.044-1.276H10.105c-1.3 0-2.045.19-2.319 1.276L1.5 32.476" style="marker:none" fill="url(#prefix__q)" stroke="url(#prefix__r)" stroke-linecap="round" stroke-linejoin="round" overflow="visible"/><path d="M45.511 32.511L2.49 32.488" style="marker:none" opacity=".4" fill="none" stroke="#fff" stroke-width=".977" stroke-linecap="round" overflow="visible"/><path fill="url(#prefix__s)" d="M3 33h42v2H3z"/><path opacity=".3" fill="url(#prefix__t)" d="M3 33h42v2H3z"/><path d="M5 35c-.554 0-1 .446-1 1h40c0-.554-.446-1-1-1H5z" fill="#282828"/><path d="M13 7.5c.69 2.5 4.925 4.5 11 4.5s10.072-1.849 11-4.5" opacity=".5" fill="none" stroke="#fff" stroke-linecap="round" stroke-linejoin="round"/><path d="M13.25 7c0 2.623 4.813 4.75 10.75 4.75S34.75 9.623 34.75 7" fill="none" stroke="url(#prefix__u)" stroke-width=".5" stroke-linecap="round" stroke-linejoin="round"/><path d="M45.45 28.75l-43-.024" style="marker:none" fill="none" stroke="#adadad" stroke-width=".5" stroke-linecap="round" overflow="visible"/><path d="M44.811 29.261L2.99 29.24" style="marker:none" opacity=".5" fill="none" stroke="#fff" stroke-width=".477" stroke-linecap="round" overflow="visible"/></svg>