<svg width="32" height="32" fill="none" xmlns="http://www.w3.org/2000/svg"><g clip-path="url(#prefix__clip0_1178_9542)" fill="#E6D4BF"><path d="M30.48 1.53h-1.53v28.95h1.53V1.53zM28.95 30.48H3.05V32h25.9v-1.52zM27.43 27.43h-1.52v1.53h1.52v-1.53zM25.91 21.34h-1.53v1.52h-1.52v1.52h-1.53v1.53h6.1v-6.1h-1.52v1.53zM27.43 3.05h-1.52v1.52h1.52V3.05zM25.91 9.15h-1.53v7.61h1.53V9.15zM24.38 16.76h-1.52v3.05h1.52v-3.05zM24.38 6.1h-1.52v3.05h1.52V6.1z"/><path d="M22.86 19.81h-3.05v1.53h3.05v-1.53zM22.86 10.67h-1.53v3.05h1.53v-3.05zM22.86 4.57h-3.05V6.1h3.05V4.57zM21.33 9.15h-1.52v1.52h1.52V9.15zM19.81 7.62h-3.05v1.53h3.05V7.62zM19.81 3.05h-7.62v1.52h7.62V3.05zM19.81 21.34h-7.62v1.52h7.62v-1.52zM18.29 12.19h-1.53v1.53h1.53v-1.53zM16.76 13.72h-1.52v1.52h1.52v-1.52zM16.76 10.67h-1.52v1.52h1.52v-1.52zM15.24 12.19h-1.53v1.53h1.53v-1.53zM13.71 16.76h-1.52v1.53h1.52v-1.53zM12.19 18.29h-1.52v1.52h1.52v-1.52zM10.67 19.81H9.14v1.53h1.53v-1.53zM12.19 4.57H9.14V6.1h3.05V4.57zM10.67 22.86H9.14v-1.52H7.62v1.52H4.57v3.05h6.1v-3.05zM9.14 16.76H7.62v1.53h1.52v-1.53zM9.14 6.1H7.62v3.05h1.52V6.1zM7.62 9.15H6.1v7.61h1.52V9.15zM6.1 27.43H4.57v1.53H6.1v-1.53zM6.1 3.05H4.57v1.52H6.1V3.05zM28.95 0H3.05v1.53h25.9V0zM3.05 1.53H1.52v28.95h1.53V1.53z"/></g><defs><clipPath id="prefix__clip0_1178_9542"><path fill="#fff" d="M0 0h32v32H0z"/></clipPath></defs></svg>