<?xml version="1.0" encoding="UTF-8"?>
<svg version="1.1" viewBox="0 0 16 16" xmlns="http://www.w3.org/2000/svg" xmlns:cc="http://creativecommons.org/ns#" xmlns:dc="http://purl.org/dc/elements/1.1/" xmlns:rdf="http://www.w3.org/1999/02/22-rdf-syntax-ns#">
<metadata>
<rdf:RDF>
<cc:Work rdf:about="">
<dc:format>image/svg+xml</dc:format>
<dc:type rdf:resource="http://purl.org/dc/dcmitype/StillImage"/>
<dc:title/>
</cc:Work>
</rdf:RDF>
</metadata>
<path d="m10.879 12.863-3.8787-2.8635-3.5327 2.981 1.2706-4.5372-3.6714-2.4439 4.4335 8.7e-6 1.5-5 1.5 5 4.5665-8.6e-6 -3.5836 2.3488z" opacity=".7" stroke="#000" stroke-linecap="round" stroke-linejoin="round" stroke-width="2"/>
<path transform="matrix(1.4244 .21273 -.2035 1.489 34.35 .38736)" d="m-14.975 10.518-2.9379-1.5034-2.1502 2.3092 0.44755-3.1111-2.7558-1.2476 3.0503-0.43579 0.56187-3.4383 1.5022 3.1434 3.1418-0.44888-2.2447 1.8981z" fill="#fdc92b"/>
<circle cx="12.5" cy="12.5" r="3.5" fill="#46a926"/>
<path d="m12 10v2h-2v1h2v2h1v-2h2v-1h-2v-2z" color="#000000" fill="#fff" font-weight="400" overflow="visible" style="isolation:auto;mix-blend-mode:normal;text-decoration-color:#000000;text-decoration-line:none;text-decoration-style:solid;text-indent:0;text-transform:none;white-space:normal"/>
</svg>
