<?xml version="1.0" encoding="UTF-8"?>
<svg viewBox="0 0 64 64" xmlns="http://www.w3.org/2000/svg">
<defs>
<style type="text/css">.ColorScheme-Text {
        color:#232629;
      }
      .ColorScheme-Highlight {
        color:#3daee9;
      }</style>
</defs>
<path class="ColorScheme-Highlight" d="m4 6v5 9h-1v1 36 1h1 56 1v-1-36-5h-1v-5-1h-28l-4-4h-24z" fill="currentColor"/>
<path d="m4 6v5 9h18l4-4h34v-5-1h-28l-4-4h-24z" fill-opacity=".33"/>
<path d="m28 6 3 5h2 27v-1h-27-1l-4-4zm-2 10-4 4h-19v1h20l3-5z" fill="#fff" fill-opacity=".2"/>
<path class="ColorScheme-Text" d="m26 16-6 3h-16v1h18l4-4zm-23 41v1h1 56 1v-1h-1-56-1z" fill-opacity=".2" fill-rule="evenodd"/>
<path class="ColorScheme-Text" d="m29 27v1 6h1v-6h4v6h1v-7h-6zm-3.3 7.3-0.7 0.7 7 7 7-7-0.7-0.7-6.3 6.3-6.3-6.3zm-3.7 9.7v2 1h1 19v-1-2h-1v2h-18v-2h-1z" fill="currentColor" fill-opacity=".6"/>
</svg>
