<svg width="32" height="32" fill="none" xmlns="http://www.w3.org/2000/svg"><path d="M29.715 9.905h-1.53v18.29h1.53V9.905zM28.185 28.195h-1.52v1.52h1.52v-1.52zM28.185 8.385h-1.52v1.52h1.52v-1.52zM26.665 29.715H5.335v1.52h21.33v-1.52zM26.665 6.855h-6.1v1.53h6.1v-1.53z" fill="#E6D4BF"/><path d="M20.565 3.805h-1.52v3.05h1.52v-3.05zM19.045 2.285h-1.52v1.52h1.52v-1.52zM17.525.765h-3.05v1.52h3.05V.765zM14.475 2.285h-1.53v1.52h1.53v-1.52zM12.945 3.805h-1.52v3.05h1.52v-3.05zM9.905 17.525h-1.53v3.05h1.53v-3.05zM8.375 20.575h-1.52v1.52h1.52v-1.52zM8.375 15.995h-1.52v1.53h1.52v-1.53zM11.425 6.855h-6.09v1.53h6.09v-1.53zM3.805 14.475v-4.57h-1.52v6.09h4.57v-1.52h-3.05zM5.335 28.195h-1.53v1.52h1.53v-1.52zM5.335 8.385h-1.53v1.52h1.53v-1.52zM3.805 23.615h3.05v-1.52h-4.57v6.1h1.52v-4.58z" fill="#E6D4BF"/></svg>