<svg width="32" height="32" fill="none" xmlns="http://www.w3.org/2000/svg"><g clip-path="url(#prefix__clip0_1178_13172)" fill="#E6D4BF"><path d="M30.47 9.14h-1.52v1.53H25.9V9.14h-1.52v1.53H7.62V9.14H6.09v1.53H3.05V9.14H1.52v3.05H0v7.62h1.52v3.05h1.53v-1.53h3.04v1.53h1.53v-1.53h16.76v1.53h1.52v-1.53h3.05v1.53h1.52v-3.05H32v-7.62h-1.53V9.14zm-19.81 9.14H9.14v1.53H7.62v-1.53H6.09v1.53H4.57v-1.53H3.05v-4.57h1.52v4.57h1.52v-3.04h1.53v3.04h1.52v-4.57h1.52v4.57zm9.15 0h-1.53v1.53h-1.52v-1.53h-1.52v1.53h-1.53v-1.53h-1.52v-4.57h1.52v4.57h1.53v-3.04h1.52v3.04h1.52v-4.57h1.53v4.57zm9.14 0h-1.52v1.53H25.9v-1.53h-1.52v1.53h-1.53v-1.53h-1.52v-4.57h1.52v4.57h1.53v-3.04h1.52v3.04h1.53v-4.57h1.52v4.57z"/><path d="M28.95 22.86h-1.52v3.04h1.52v-3.04zM28.95 6.09h-1.52v3.05h1.52V6.09zM27.43 25.9H25.9v1.53h1.53V25.9zM27.43 4.57H25.9v1.52h1.53V4.57zM25.9 7.62V6.09h-4.57V4.57h-1.52v3.05h3.04v1.52h1.53V7.62h1.52zM25.9 27.43h-3.05v1.52h3.05v-1.52z"/><path d="M22.85 24.38h-3.04v3.05h1.52V25.9h4.57v-1.52h-1.52v-1.52h-1.53v1.52zM25.9 3.05h-3.05v1.52h3.05V3.05zM22.85 28.95h-3.04v1.53h3.04v-1.53zM22.85 1.52h-3.04v1.53h3.04V1.52zM19.81 27.43h-1.53v1.52h1.53v-1.52zM19.81 3.05h-1.53v1.52h1.53V3.05zM18.28 28.95h-1.52v1.53h-1.52v-1.53h-1.53v1.53h-1.52V32h7.62v-1.52h-1.53v-1.53zM19.81 7.62h-7.62v1.52h7.62V7.62zM19.81 22.86h-7.62v1.52h7.62v-1.52zM13.71 3.05h1.53V1.52h1.52v1.53h1.52V1.52h1.53V0h-7.62v1.52h1.52v1.53zM13.71 27.43h-1.52v1.52h1.52v-1.52zM13.71 3.05h-1.52v1.52h1.52V3.05zM12.19 28.95H9.14v1.53h3.05v-1.53zM12.19 1.52H9.14v1.53h3.05V1.52zM9.14 27.43H6.09v1.52h3.05v-1.52z"/><path d="M9.14 7.62h3.05V4.57h-1.53v1.52H6.09v1.53h1.53v1.52h1.52V7.62zM9.14 3.05H6.09v1.52h3.05V3.05zM6.09 24.38v1.52h4.57v1.53h1.53v-3.05H9.14v-1.52H7.62v1.52H6.09zM6.09 25.9H4.57v1.53h1.52V25.9zM6.09 4.57H4.57v1.52h1.52V4.57zM4.57 22.86H3.05v3.04h1.52v-3.04zM4.57 6.09H3.05v3.05h1.52V6.09z"/></g><defs><clipPath id="prefix__clip0_1178_13172"><path fill="#fff" d="M0 0h32v32H0z"/></clipPath></defs></svg>