<svg width="32" height="32" fill="none" xmlns="http://www.w3.org/2000/svg"><g clip-path="url(#prefix__clip0_1178_9510)" fill="#E6D4BF"><path d="M32 19.81h-1.52v10.67H32V19.81zM30.48 30.48H1.53V32h28.95v-1.52zM25.91 24.38h-1.53v1.53h3.05v-3.05h-1.52v1.52zM27.43 27.43h-3.05v1.53h3.05v-1.53zM24.38 21.34h-1.52v1.52h1.52v-1.52zM24.38 10.67h-1.52v1.52h1.52v-1.52zM22.86 24.38h-1.53v1.53h1.53v-1.53zM22.86 12.19h-1.53v1.53h1.53v-1.53zM22.86 9.15h-1.53v1.52h1.53V9.15zM22.86 27.43H9.14v1.53h13.72v-1.53zM21.33 21.34h-1.52v1.52h1.52v-1.52zM21.33 7.62H6.1v1.53h15.23V7.62zM19.81 24.38h-1.52v1.53h1.52v-1.53zM19.81 0h-1.52v3.05h1.52V0zM18.29 21.34h-1.53v1.52h1.53v-1.52zM16.76 24.38h-1.52v1.53h1.52v-1.53zM15.24 21.34h-1.52v1.52h1.52v-1.52zM21.33 13.72h-9.14v1.52h9.14v-1.52zM13.72 24.38h-1.53v1.53h1.53v-1.53zM12.19 21.34h-1.52v1.52h1.52v-1.52zM10.67 24.38H9.14v1.53h1.53v-1.53zM9.14 21.34H7.62v1.52h1.52v-1.52zM18.29 3.05H6.1v1.53h12.19V3.05zM7.62 24.38H6.1v1.53h1.52v-1.53zM7.62 27.43H4.57v1.53h3.05v-1.53zM6.1 21.34H4.57v1.52H6.1v-1.52zM6.1 4.58H4.57v3.04H6.1V4.58zM4.57 24.38H3.05v1.53h1.52v-1.53z"/><path d="M30.48 19.81v-1.52H12.19v-3.05h-1.52v3.05H1.53v1.52h28.95zM1.53 19.81H0v10.67h1.53V19.81z"/></g><defs><clipPath id="prefix__clip0_1178_9510"><path fill="#fff" d="M0 0h32v32H0z"/></clipPath></defs></svg>