<svg data-name="Layer 1" viewBox="0 0 1022.4 360.27" xmlns="http://www.w3.org/2000/svg"><path d="M349.23 331.73q-16.276 0-27.715-4.953a47.722 47.722 0 01-18.516-13.681 54.867 54.867 0 01-10.261-20.403 95.145 95.145 0 01-3.185-25.12v-102.84h16.04v100.72a75.393 75.393 0 003.184 23.232 44.821 44.821 0 008.846 16.157 34.499 34.499 0 0013.68 9.436 53.932 53.932 0 0035.853 0 34.536 34.536 0 0013.68-9.436 44.82 44.82 0 008.845-16.157 75.393 75.393 0 003.185-23.232v-100.72h16.039v102.84a95.186 95.186 0 01-3.184 25.12 54.867 54.867 0 01-10.26 20.403 47.758 47.758 0 01-18.517 13.68q-11.443 4.954-27.715 4.954zM461.52 213.56q4.008-3.063 12.855-6.486a57.821 57.821 0 0120.874-3.421 55.629 55.629 0 0123.47 4.718 48.798 48.798 0 0117.336 13.209 58.337 58.337 0 0110.732 20.167 85.324 85.324 0 013.656 25.592 76.436 76.436 0 01-4.364 26.653 57.365 57.365 0 01-12.265 20.049 52.755 52.755 0 01-18.87 12.619 65.527 65.527 0 01-24.412 4.363q-16.276 0-26.89-2.122a137.64 137.64 0 01-17.454-4.483v-176.43l15.33-2.83zm0 100.25a67.607 67.607 0 0010.496 2.24 126.06 126.06 0 0018.28 1.062q19.813 0 31.843-12.854 12.029-12.854 12.029-36.914a84.273 84.273 0 00-2.123-19.224 45.101 45.101 0 00-6.84-15.804 34.282 34.282 0 00-12.384-10.731q-7.667-4.008-18.987-4.01a49.37 49.37 0 00-10.378 1.061 60.366 60.366 0 00-9.199 2.712 50.867 50.867 0 00-7.43 3.538 52.485 52.485 0 00-5.307 3.539zM674.06 323.95q-6.844 1.891-18.398 4.246a144.43 144.43 0 01-28.304 2.358q-13.683 0-22.88-4.01a37.135 37.135 0 01-14.86-11.32 45.841 45.841 0 01-8.137-17.69 98.559 98.559 0 01-2.476-22.88v-68.402h15.33v63.449a108.31 108.31 0 001.887 21.937q1.886 8.966 6.133 14.506a23.934 23.934 0 0010.968 8.02 47.636 47.636 0 0016.394 2.476 131.13 131.13 0 0018.87-1.18q8.016-1.178 10.142-2.122v-107.09h15.332zM710.29 210.5q6.838-1.885 18.397-4.246a144.39 144.39 0 0128.305-2.359q13.915 0 23.233 4.01a35.724 35.724 0 0114.859 11.44 46.735 46.735 0 017.902 17.808 103.53 103.53 0 012.359 22.88v68.166h-15.332v-63.213a115.5 115.5 0 00-1.769-21.937 36.641 36.641 0 00-5.896-14.624 22.939 22.939 0 00-10.851-8.137q-6.723-2.476-16.864-2.477a129.12 129.12 0 00-18.752 1.18q-7.906 1.182-10.261 2.123v107.08h-15.331zM854.95 206.25h48.59v12.973h-48.59v64.865a65.851 65.851 0 001.77 16.864 23.493 23.493 0 005.07 10.024 16.052 16.052 0 008.02 4.718 42.671 42.671 0 0010.378 1.178q9.67 0 15.567-2.24a67.64 67.64 0 009.2-4.128l3.773 12.737q-3.305 2.123-11.558 4.835a57.205 57.205 0 01-17.926 2.713q-11.322 0-18.987-2.948a27.438 27.438 0 01-12.266-8.963 36.73 36.73 0 01-6.486-14.979 104.06 104.06 0 01-1.887-21.229V170.4l15.33-2.83zM1022.37 323.95q-6.844 1.891-18.398 4.246a144.43 144.43 0 01-28.304 2.358q-13.683 0-22.88-4.01a37.135 37.135 0 01-14.86-11.32 45.842 45.842 0 01-8.137-17.69 98.559 98.559 0 01-2.476-22.88v-68.402h15.33v63.449a108.31 108.31 0 001.887 21.937q1.886 8.966 6.133 14.506a23.934 23.934 0 0010.968 8.02 47.636 47.636 0 0016.394 2.476 131.13 131.13 0 0018.87-1.18q8.016-1.178 10.142-2.122v-107.09h15.332z" fill="#fff"/><path fill="#e9500e" d="M0 0h233.93v360.27H0z"/><circle fill="#fff" cx="51.021" cy="237.8" r="24.55"/><circle fill="#fff" cx="153.26" cy="183.97" r="24.55"/><path fill="#fff" d="M106.39 300.98a59.788 59.788 0 01-40.772-31.096 35.34 35.34 0 01-20.99 2.58 79.921 79.921 0 0057.54 48.224 80.884 80.884 0 0017.433 1.794 35.127 35.127 0 01-7.188-20.525 61.066 61.066 0 01-6.022-.976z"/><circle fill="#fff" cx="147.73" cy="301.11" r="24.55"/><path fill="#fff" d="M181.89 292.1a80.319 80.319 0 004.025-94.238 35.384 35.384 0 01-13.805 16.168 60.187 60.187 0 01-1.967 59.78 35.205 35.205 0 0111.748 18.29zM49.13 202.59q.935-.051 1.87-.05a35.43 35.43 0 0118.618 5.301 59.874 59.874 0 0148.211-25.784 35.597 35.597 0 017.448-19.91 80.695 80.695 0 00-76.146 40.443z"/></svg>