<svg width="200" height="310" viewBox="0 0 200 310" fill="none" xmlns="http://www.w3.org/2000/svg">
<path d="M187.559 0H12.4462C5.5709 0 0 5.6012 0 12.525V67.3246C0 105.23 20.9444 138.282 51.786 155.441C20.9494 172.6 0 205.651 0 243.557V297.475C0 299.103 0.333561 300.731 0.960848 302.259C2.2204 305.326 4.64989 307.766 7.69173 309.033C9.21017 309.664 10.8282 310 12.4462 310H187.554C189.172 310 190.79 309.669 192.308 309.033C195.355 307.766 197.78 305.326 199.039 302.259C199.666 300.731 200 299.103 200 297.475V243.557C200 205.651 179.056 172.6 148.214 155.441C179.051 138.282 200 105.23 200 67.3246V12.525C200.005 5.60621 194.429 0 187.559 0ZM24.8923 25.0501H175.108V67.3246C175.108 73.978 174.162 80.4008 172.554 86.5481C153.855 66.6533 127.698 54.7996 100.002 54.7996C72.3073 54.7996 46.1504 66.6533 27.4513 86.5481C25.8382 80.3958 24.8973 73.978 24.8973 67.3246V25.0501H24.8923ZM100.002 227.069L157.514 284.95H42.4912L100.002 227.069ZM87.5563 169.093V204.173L24.8923 267.234V243.557C24.8923 206.147 52.0549 175.09 87.5563 169.093ZM175.113 243.557V267.234L112.449 204.168V169.088C147.95 175.09 175.113 206.147 175.113 243.557ZM100.002 142.916C74.9658 142.916 52.8166 130.481 39.1606 111.478C53.2049 91.8537 75.837 79.8497 100.002 79.8497C124.168 79.8497 146.8 91.8537 160.844 111.473C147.188 130.481 125.039 142.916 100.002 142.916Z" fill="#1BB89B"/>
<path d="M100.002 142.916C74.9658 142.916 52.8166 130.481 39.1606 111.478C53.2049 91.8537 75.837 79.8497 100.002 79.8497C124.168 79.8497 146.8 91.8537 160.844 111.473C147.188 130.481 125.039 142.916 100.002 142.916Z" fill="#197F6C"/>
<path d="M100.002 227.069L157.514 284.95H42.4912L100.002 227.069Z" fill="#197F6C"/>
<path d="M24.8973 25.0501H175.108V67.3246C175.108 73.978 174.162 80.4008 172.554 86.5481C153.855 66.6533 127.698 54.7996 100.002 54.7996C72.3073 54.7996 46.1504 66.6533 27.4513 86.5481C25.8382 80.3958 24.8973 73.978 24.8973 67.3246V25.0501Z" fill="#1BB89B" fill-opacity="0.2"/>
<path d="M87.5563 169.093V204.173L24.8923 267.234V243.557C24.8923 206.147 52.0549 175.09 87.5563 169.093Z" fill="#1BB89B" fill-opacity="0.2"/>
<path d="M175.113 243.557V267.234L112.449 204.168V169.088C147.95 175.09 175.113 206.147 175.113 243.557Z" fill="#1BB89B" fill-opacity="0.2"/>
</svg>
