<svg xmlns="http://www.w3.org/2000/svg" xmlns:xlink="http://www.w3.org/1999/xlink" width="48" height="48"><defs><linearGradient id="prefix__a"><stop offset="0" stop-color="#7f7f7f"/><stop offset="1" stop-color="gray" stop-opacity="0"/></linearGradient><linearGradient id="prefix__b"><stop offset="0" stop-color="#575757"/><stop offset="1" stop-color="#333"/></linearGradient><linearGradient x1="32.893" y1="27.988" x2="31.364" y2="29.484" id="prefix__l" xlink:href="#prefix__b" gradientUnits="userSpaceOnUse" gradientTransform="matrix(1.01135 0 0 1.00133 -.148 1.814)"/><linearGradient id="prefix__c"><stop offset="0" stop-color="#242424" stop-opacity=".992"/><stop offset="1" stop-color="#656565"/></linearGradient><linearGradient x1="-172.653" y1="99.667" x2="-164.718" y2="91.973" id="prefix__k" xlink:href="#prefix__c" gradientUnits="userSpaceOnUse" gradientTransform="matrix(.39366 0 0 .38976 101.378 -4.24)"/><linearGradient id="prefix__d"><stop offset="0" stop-color="#fff"/><stop offset="1" stop-color="#fff" stop-opacity="0"/></linearGradient><linearGradient x1="277.573" y1="146.151" x2="201.871" y2="67.35" id="prefix__m" xlink:href="#prefix__d" gradientUnits="userSpaceOnUse" gradientTransform="matrix(.39366 0 0 .38976 -50.209 -.473)"/><linearGradient id="prefix__e"><stop offset="0" stop-color="#fff" stop-opacity=".647"/><stop offset="1" stop-color="#fff" stop-opacity=".196"/></linearGradient><linearGradient id="prefix__f"><stop offset="0" stop-color="#fff"/><stop offset="1" stop-color="#fff" stop-opacity=".248"/></linearGradient><linearGradient id="prefix__g"><stop offset="0" stop-color="#333"/><stop offset="1" stop-color="#333" stop-opacity=".612"/></linearGradient><linearGradient x1="41.542" y1="68.292" x2="41.485" y2="4.536" id="prefix__q" xlink:href="#prefix__g" gradientUnits="userSpaceOnUse" gradientTransform="matrix(.39167 0 0 .40008 .653 2.665)"/><linearGradient id="prefix__h"><stop offset="0" stop-color="#343434" stop-opacity=".976"/><stop offset="1" stop-color="#929292"/></linearGradient><linearGradient x1="173.096" y1="75.319" x2="173.096" y2="11.949" id="prefix__p" xlink:href="#prefix__h" gradientUnits="userSpaceOnUse" gradientTransform="matrix(.39167 0 0 .40008 -50.15 -.346)"/><linearGradient id="prefix__i"><stop offset="0" stop-color="#979797"/><stop offset="1" stop-opacity=".341"/></linearGradient><linearGradient x1="173.096" y1="75.319" x2="173.096" y2="11.949" id="prefix__r" xlink:href="#prefix__i" gradientUnits="userSpaceOnUse" gradientTransform="matrix(.373 0 0 .38101 -46.816 .246)"/><radialGradient cx="62.625" cy="4.625" r="10.625" fx="62.625" fy="4.625" id="prefix__j" xlink:href="#prefix__a" gradientUnits="userSpaceOnUse" gradientTransform="matrix(1 0 0 .34118 0 3.047)"/><radialGradient cx="18.241" cy="21.818" r="8.309" fx="18.241" fy="21.818" id="prefix__n" xlink:href="#prefix__e" gradientUnits="userSpaceOnUse" gradientTransform="matrix(1.44432 0 0 1.43946 -7.152 -10.024)"/><radialGradient cx="15.414" cy="13.078" r="6.656" fx="15.414" fy="13.078" id="prefix__o" xlink:href="#prefix__f" gradientUnits="userSpaceOnUse" gradientTransform="matrix(2.97895 0 0 2.36465 -31.891 -21.375)"/></defs><path d="M73.25 4.625a10.625 3.625 0 11-21.25 0 10.625 3.625 0 1121.25 0z" transform="matrix(2.14987 0 0 1.66192 -110.636 34.29)" style="marker:none" opacity=".3" fill="url(#prefix__j)" fill-rule="evenodd" overflow="visible"/><path d="M28.184 24.772l17.601 16.22-2.44 3.278-17.537-17.545 2.376-1.953z" fill="url(#prefix__k)" fill-rule="evenodd" stroke="url(#prefix__l)" stroke-width="1.258" stroke-linecap="round" stroke-linejoin="round"/><path d="M43.375 43.205L29.26 25.778l17.079 14.839-2.963 2.588z" fill="url(#prefix__m)" fill-rule="evenodd"/><path d="M46.606 40.796a2.72 1.48-44.562 11-3.603 4.04 2.72 1.48-44.562 113.603-4.04z" fill="#3e3e3e"/><path d="M30.253 16.575a12 11.96 0 11-24 0 12 11.96 0 1124 0z" style="marker:none" fill="url(#prefix__n)" fill-rule="evenodd"/><path d="M17.759 6.28c-5.983 0-10.828 4.427-10.828 9.895 0 1.579.134 3.21.854 4.535 1.44.485 3.316.637 4.939.637 7.09 0 13.187-5.372 13.624-11.751-1.988-2.148-5.272-3.317-8.59-3.317z" style="marker:none" opacity=".834" fill="url(#prefix__o)" fill-rule="evenodd" overflow="visible"/><path d="M17.99 4.632c-7.37 0-13.354 5.636-13.354 12.577 0 6.942 5.983 12.578 13.353 12.578s13.353-5.636 13.353-12.578c0-6.941-5.983-12.577-13.353-12.577zm.158.825c6.596 0 11.958 5.04 11.958 11.252 0 6.213-5.362 11.252-11.958 11.252S6.202 22.921 6.202 16.71c0-6.212 5.35-11.252 11.946-11.252z" fill="url(#prefix__p)" stroke="url(#prefix__q)" stroke-width="1.271" stroke-linecap="round" stroke-linejoin="round"/><path d="M18.075 4.995c-7.019 0-12.705 5.366-12.705 11.977 0 6.61 5.686 11.977 12.705 11.977 7.018 0 12.717-5.366 12.717-11.977 0-6.61-5.699-11.977-12.717-11.977zm.073.462c6.596 0 11.435 5.04 11.435 11.252 0 6.213-4.839 10.718-11.435 10.718S6.638 22.922 6.638 16.71c0-6.212 4.914-11.252 11.51-11.252z" fill="url(#prefix__r)"/><path d="M26 23v-5h-2v3h-3v2h5zm-16 0v-5h2v3h3v2h-5zm16-13v5h-2v-3h-3v-2h5zm-16 0v5h2v-3h3v-2h-5z" fill="#4d4d4d"/></svg>