<svg width="32" height="32" fill="none" xmlns="http://www.w3.org/2000/svg"><path d="M32 1.53h-1.52v28.95H32V1.53zM30.48 30.48H1.52V32h28.96v-1.52zM27.43 24.39H25.9v1.52h1.53v-1.52zM3.05 3.05v16.76h25.9V3.05H3.05zm24.38 15.24H4.57V4.58h22.86v13.71zM25.9 25.91h-1.52v1.52h1.52v-1.52zM25.9 22.86h-1.52v1.53h1.52v-1.53z" fill="#E6D4BF"/><path d="M24.38 12.19h1.52v-1.52h-1.52V9.15h-1.52v4.57h-1.53v1.52h3.05v-3.05zM22.86 22.86h-1.53v4.57h1.53v-4.57zM18.29 9.15h-1.53v1.52h3.05V6.1h-4.57v1.52h3.05v1.53zM16.76 22.86h-1.52v-1.52h-1.53v7.62h1.53v-1.53h1.52v-1.52h1.53v-1.52h-1.53v-1.53z" fill="#E6D4BF"/><path d="M15.24 7.62h-1.53v3.05h-1.52v1.52h3.05V7.62zM10.67 22.86H9.14v4.57h1.53v-4.57zM9.14 9.15H7.62v4.57H6.1v1.52h3.04V9.15zM7.62 25.91H6.1v1.52h1.52v-1.52zM7.62 22.86H6.1v1.53h1.52v-1.53zM6.1 24.39H4.57v1.52H6.1v-1.52zM30.48 0H1.52v1.53h28.96V0zM1.52 1.53H0v28.95h1.52V1.53z" fill="#E6D4BF"/></svg>