<svg width="32" height="32" fill="none" xmlns="http://www.w3.org/2000/svg"><g clip-path="url(#prefix__clip0_1178_9351)" fill="#E6D4BF"><path d="M11.43 16.76v1.53h6.09v-1.53h1.53v1.53h6.09v-1.53h1.53v10.67h1.52V10.67h-1.52V9.15h-1.53V7.62h-1.52V6.1h-4.57V3.05h-1.53V6.1h-4.57v1.52h-1.52v1.53H9.9v1.52H8.38v16.76H9.9V16.76h1.53zM16 9.15h1.52V7.62h1.53v1.53h1.52v3.04h-1.52v1.53h-1.53v-1.53H16V9.15zM26.67 27.43h-1.53v1.53h1.53v-1.53z"/><path d="M25.14 22.86h-1.52v3.05h1.52v-3.05zM25.14 28.96h-3.05v1.52h3.05v-1.52zM23.62 25.91h-1.53v1.52h1.53v-1.52zM22.09 27.43h-3.04v1.53h3.04v-1.53zM22.09 30.48h-7.62V32h7.62v-1.52zM17.52 1.53h-3.05v1.52h3.05V1.53zM14.47 28.96h-3.04v1.52h3.04v-1.52zM14.47 3.05h-3.04v1.52h3.04V3.05zM11.43 27.43H9.9v1.53h1.53v-1.53zM11.43 4.57H9.9V6.1h1.53V4.57zM9.9 6.1H5.33v1.52H9.9V6.1zM8.38 0H6.86v1.53h1.52V0zM6.86 1.53H5.33v1.52h1.53V1.53zM5.33 3.05H3.81V6.1h1.52V3.05z"/></g><defs><clipPath id="prefix__clip0_1178_9351"><path fill="#fff" d="M0 0h32v32H0z"/></clipPath></defs></svg>