<svg version="1.0" viewBox="0 0 48 48" xmlns="http://www.w3.org/2000/svg"><defs><linearGradient id="prefix__e" x1="13.236" x2="7.752" y1="37.752" y2="42.282" gradientTransform="matrix(.8523 0 0 .85278 -.433 5.36)" gradientUnits="userSpaceOnUse"><stop stop-color="#fff" offset="0"/><stop stop-color="#fff" stop-opacity="0" offset="1"/></linearGradient><linearGradient id="prefix__b" x1="19.395" x2="23.109" y1="30.001" y2="33.439" gradientTransform="matrix(1 0 0 1.0006 -2.665 -.2)" gradientUnits="userSpaceOnUse"><stop stop-color="#bdbdbd" offset="0"/><stop stop-color="#e2e2e2" offset=".333"/><stop stop-color="#a3a3a3" offset=".667"/><stop stop-color="#ddd" offset="1"/></linearGradient><linearGradient id="prefix__a" x1="28.059" x2="33.437" y1="18.868" y2="23.743" gradientTransform="matrix(1 0 0 1.0006 -2.665 -.2)" gradientUnits="userSpaceOnUse"><stop stop-color="#6e3d09" offset="0"/><stop stop-color="#ea8113" offset=".242"/><stop stop-color="#5c3307" offset=".621"/><stop stop-color="#e07c12" offset="1"/></linearGradient><radialGradient id="prefix__c" cx="26.782" cy="42.343" r="14.407" gradientTransform="matrix(1 0 0 .28221 0 30.394)" gradientUnits="userSpaceOnUse"><stop offset="0"/><stop stop-opacity="0" offset="1"/></radialGradient><radialGradient id="prefix__d" cx="15.415" cy="35.357" r="7.579" gradientTransform="matrix(.99466 0 0 .96987 -3.34 1.77)" gradientUnits="userSpaceOnUse"><stop stop-color="#696969" offset="0"/><stop offset="1"/></radialGradient></defs><g stroke="#000" stroke-opacity=".098"><path d="M46.428 30.901a3.857 3.857 0 11-7.714 0 3.857 3.857 0 117.714 0z" fill="red" fill-opacity=".702" stroke-width="1.0385"/><path d="M46.428 20.901a3.857 3.857 0 11-7.714 0 3.857 3.857 0 117.714 0z" fill="#c09" fill-opacity=".702" stroke-width="1.0385"/><path d="M41.428 12.187a3.857 3.857 0 11-7.714 0 3.857 3.857 0 117.714 0z" fill="#924ab4" stroke-width="1.0385"/><path d="M33 7.187a3.857 3.857 0 11-7.715 0 3.857 3.857 0 117.715 0z" fill="#6c48b3" stroke-width="1.0385"/><path d="M23 7.187a3.857 3.857 0 11-7.715 0 3.857 3.857 0 117.715 0z" fill="#476bd7" stroke-width="1.0385"/><path d="M14.572 12.044a3.857 3.857 0 11-7.715 0 3.857 3.857 0 117.715 0z" fill="#47b1b1" stroke-width="1.0385"/><path d="M9.572 20.616a3.857 3.857 0 11-7.715 0 3.857 3.857 0 117.715 0z" fill="#0c0" fill-opacity=".702" stroke-width="1.0385"/><path d="M9.286 30.473a3.857 3.857 0 11-7.715 0 3.857 3.857 0 117.715 0z" fill="#9f0" fill-opacity=".702" stroke-width="1.0385"/></g><path d="M20.894 24.203l4.066 3.803c7.187-7.067 17.783-23.991 17.783-23.991.43-1.225-1.087-1.997-1.847-1.171 0 0-13.69 14.105-20.003 21.359z" fill="url(#prefix__a)" stroke="#673907" stroke-linecap="round"/><path d="M13.293 34.436l2.246 1.935L24.032 29l.275-.707 1.095-.017c-.438-1.564-2.942-4.386-4.817-4.386l.082 1.09-.67.38-6.704 9.076z" fill="url(#prefix__b)" stroke="#787a75" stroke-linecap="round"/><path transform="matrix(1.2282 0 0 .98436 -15.198 -.684)" d="M41.189 42.343c0 2.245-6.45 4.066-14.407 4.066s-14.407-1.82-14.407-4.066 6.45-4.066 14.407-4.066 14.407 1.82 14.407 4.066z" fill="url(#prefix__c)" opacity=".2"/><path d="M3 42.35c6.605 0 11.618.787 12.567-4.021.765-3.875-4.56-5.732-7.2-2.273C5.827 39.39 3 42.35 3 42.35z" fill="url(#prefix__d)"/><path d="M12.54 36.373a1.066 1.066 0 11-2.131.001 1.066 1.066 0 012.131-.001z" fill="#fff" opacity=".528"/><path d="M22.5 26.636a.985.985 0 11-1.97.001.985.985 0 011.97-.001z" fill="#fff" opacity=".6"/><path d="M20.184 28.016l-5.303 6.146" fill="none" opacity=".6" stroke="#fff" stroke-linecap="round" stroke-linejoin="round"/><path d="M4.313 41.695s3.341-1.643 4.765-4.09c.504-.865 1.644-.126.942.736-1.518 1.861-5.707 3.354-5.707 3.354z" fill="url(#prefix__e)" opacity=".428"/><path d="M41.787 3.483a.297.297 0 11-.595 0 .297.297 0 01.595 0z" fill="#fff" opacity=".533"/></svg>