<svg width="32" height="32" fill="none" xmlns="http://www.w3.org/2000/svg"><g clip-path="url(#prefix__clip0_1178_12333)" fill="#E6D4BF"><path d="M32 1.52h-1.52v4.57H32V1.52zM30.48 6.09h-1.53v3.05h1.53V6.09zM30.48 0h-3.05v1.52h3.05V0zM28.95 9.14h-1.52v3.05h1.52V9.14zM27.43 12.19H25.9v3.05h1.53v-3.05zM27.43 1.52H25.9v3.05h1.53V1.52zM25.9 15.24h-1.52v3.04h1.52v-3.04zM25.9 4.57h-1.52v3.05h1.52V4.57zM24.38 22.86h-1.52v4.57h1.52v-4.57zM24.38 18.28h-1.52v3.05h1.52v-3.05zM24.38 7.62h-1.52v3.05h1.52V7.62zM22.86 10.67h-1.53v3.04h1.53v-3.04zM21.33 25.9h-1.52v1.53h-1.52V25.9h-1.53v-1.52h-1.52v1.52h-1.53v-3.04h-1.52v4.57h-1.52v1.52H9.14v1.52H1.52V32h16.77v-1.53h3.04v-1.52h1.53v-1.52h-1.53V25.9zM22.86 21.33h-3.05v1.53h3.05v-1.53zM21.33 13.71h-1.52v3.05h1.52v-3.05zM19.81 21.33v-4.57h-1.52v3.05h-3.05v1.52h4.57zM15.24 21.33h-1.53v1.53h1.53v-1.53zM15.24 12.19h-1.53v1.52h1.53v-1.52zM13.71 13.71h-1.52v1.53h1.52v-1.53zM13.71 10.67H1.52v1.52h12.19v-1.52z"/><path d="M10.67 22.86H9.14v1.52h1.53v-1.52zM12.19 15.24H7.62v1.52h4.57v-1.52zM9.14 24.38H7.62v1.52h1.52v-1.52zM9.14 21.33H4.57v1.53h4.57v-1.53zM7.62 16.76H4.57v1.52h3.05v-1.52zM7.62 25.9H3.05v1.53h4.57V25.9zM4.57 18.28H3.05v3.05h1.52v-3.05zM3.05 27.43H1.52v1.52h1.53v-1.52zM1.52 28.95H0v1.52h1.52v-1.52z"/></g><defs><clipPath id="prefix__clip0_1178_12333"><path fill="#fff" d="M0 0h32v32H0z"/></clipPath></defs></svg>