<svg width="32" height="32" fill="none" xmlns="http://www.w3.org/2000/svg"><g clip-path="url(#prefix__clip0_1178_12217)" fill="#E6D4BF"><path d="M31.24 18.28h-1.53v12.19h1.53V18.28zM31.24 10.67h-1.53v1.52h1.53v-1.52zM29.71 12.19h-1.52v1.52h1.52v-1.52zM29.71 9.14h-1.52v1.53h1.52V9.14zM29.71 30.47H5.33V32h24.38v-1.53zM28.19 13.71h-1.53v1.53h1.53v-1.53zM28.19 7.62h-1.53v1.52h1.53V7.62zM28.19 19.81h-7.62v9.14h7.62v-9.14zm-1.53 7.62h-4.57v-6.1h4.57v6.1z"/><path d="M25.14 16.76h-1.52v-1.52h1.52v-1.53h1.52v-1.52h1.53v-1.52h-1.53V9.14h-1.52V7.62h-1.52V6.09h-1.53v1.53h-1.52v1.52h-1.52v1.53h-1.53v1.52h1.53v1.52h1.52v1.53h1.52v1.52h-4.57v-1.52H16v-1.53h-1.53v1.53h-1.52v1.52h-1.52v-1.52H9.9v1.52H3.81v3.05h1.52v-1.53h24.38v-1.52h-3.05v-1.52h-1.52v1.52z"/><path d="M26.66 6.09h-1.52v1.53h1.52V6.09zM25.14 4.57h-1.52v1.52h1.52V4.57zM23.62 3.05h-1.53v1.52h1.53V3.05zM22.09 4.57h-1.52v1.52h1.52V4.57zM20.57 6.09h-1.52v1.53h1.52V6.09zM19.05 7.62h-1.53v1.52h1.53V7.62zM19.05 19.81h-7.62v9.14h7.62v-9.14zm-1.53 7.62h-4.57v-6.1h4.57v6.1zM14.47 12.19H16v-1.52h1.52V9.14H16V1.52h-1.53v10.67zM14.47 12.19h-1.52v1.52h1.52v-1.52zM12.95 13.71h-1.52v1.53h1.52v-1.53zM3.81 12.19v3.05h1.52v-1.53h6.1v-1.52H3.81zM9.9 22.86H8.38v3.04H9.9v-3.04zM8.38 21.33H5.33v1.53h3.05v-1.53zM8.38 25.9H5.33v1.53h3.05V25.9zM12.95 10.67V3.05H3.81v7.62h9.14zm-7.62-6.1h6.1v4.57h-6.1V4.57zM5.33 28.95H3.81v1.52h1.52v-1.52zM5.33 22.86H3.81v3.04h1.52v-3.04zM14.47 0H2.28v1.52h12.19V0zM3.81 27.43H2.28v1.52h1.53v-1.52zM2.28 21.33h1.53v-1.52H2.28V1.52H.76v25.91h1.52v-6.1z"/></g><defs><clipPath id="prefix__clip0_1178_12217"><path fill="#fff" d="M0 0h32v32H0z"/></clipPath></defs></svg>