<svg width="32" height="32" fill="none" xmlns="http://www.w3.org/2000/svg"><path d="M27.848 6.57h-1.52V5.055h-1.52V3.53h-1.53V2H5v28.955h22.848V6.57zm-1.52 22.86H6.52V3.53h13.71v6.09h6.1l-.002 19.81z" fill="#E6D4BF"/><path d="M24.803 14H8v12h16.803V14zm-7.197 10.803H9.205v-2.401h1.197v-1.197h1.204V20H14v1.205h1.205v1.197h1.197v1.196h1.204v1.205zm0-8.401h1.197v-1.197h2.402v1.197h1.197v2.401h-1.197V20h-2.402v-1.197h-1.197v-2.401zm5.992 8.401h-4.795v-1.205H20v-1.196h1.205v-1.197h2.393v3.598z" fill="#E6D4BF"/></svg>