<svg width="32" height="32" fill="none" xmlns="http://www.w3.org/2000/svg"><path d="M31.235 8.38h-1.52v3.05h1.52V8.38zM29.715 6.86h-1.52v1.52h1.52V6.86zM29.715 11.43h-3.05v1.52h3.05v-1.52zM28.195 5.33h-1.53v1.53h1.53V5.33zM26.665 9.9h-1.52v1.53h1.52V9.9zM26.665 3.81h-1.52v1.52h1.52V3.81zM25.145 11.43h-1.53v1.52h1.53v-1.52zM25.145 8.38h-1.53V9.9h1.53V8.38zM25.145 2.28h-1.53v1.53h1.53V2.28zM23.615 17.52h-1.52v4.57h1.52v-4.57zM23.615 12.95h-1.52v1.52h1.52v-1.52zM23.615 6.86h-1.52v1.52h1.52V6.86zM23.615.76h-3.04v1.52h3.04V.76zM22.095 22.09h-1.52v3.05h1.52v-3.05zM22.095 14.47h-1.52v3.05h1.52v-3.05zM22.095 5.33h-1.52v1.53h1.52V5.33zM20.575 25.14h-1.53v1.52h1.53v-1.52zM20.575 6.86h-1.53v1.52h1.53V6.86zM20.575 2.28h-1.53v3.05h1.53V2.28zM19.045 16h-1.52v1.52h1.52V16zM19.045 8.38h-1.52V9.9h1.52V8.38zM19.045 26.66h-3.04v1.53h3.04v-1.53zM17.525 14.47h-1.52V16h1.52v-1.53zM16.005 25.14h-1.53v1.52h1.53v-1.52zM16.005 12.95h-1.53v1.52h1.53v-1.52zM17.525 9.9h-3.05v1.53h3.05V9.9zM14.475 23.62h-1.52v1.52h1.52v-1.52zM3.815 29.71h1.52v-1.52h1.52v-1.53h1.53v-1.52h1.52v-1.52h3.05v-1.53h-1.53v-1.52h-1.52v-1.52h-1.52v3.04h-1.53v1.53h-1.52v1.52h-1.52v1.52h-1.53v1.53H.765v3.05h3.05v-1.53zM14.475 8.38h-4.57V9.9h4.57V8.38zM9.905 9.9h-3.05v1.53h3.05V9.9zM8.385 17.52h-1.53v1.53h1.53v-1.53zM6.855 16h-1.52v1.52h1.52V16zM6.855 11.43h-1.52v1.52h1.52v-1.52zM5.335 12.95h-1.52V16h1.52v-3.05z" fill="#E6D4BF"/></svg>