<svg width="32" height="32" fill="none" xmlns="http://www.w3.org/2000/svg"><g clip-path="url(#prefix__clip0_1178_17946)" fill="#E6D4BF"><path d="M24.38 10.67h-1.52V3.05h-1.53v13.71h1.53v-4.57h1.52v6.1h1.52V9.15h-1.52v1.52zM24.38 18.29h-1.52v1.52h1.52v-1.52zM22.86 19.81h-1.53v1.53h1.53v-1.53zM21.33 16.76h-1.52v1.53h1.52v-1.53zM21.33 1.53h-1.52v1.52h1.52V1.53zM10.67 21.34v1.52h4.57v4.57h-4.57v1.53H7.62V32h16.76v-3.04h-3.05v-1.53h-4.57v-4.57h4.57v-1.52H10.67zM19.81 7.62h-1.52v1.53h1.52V7.62zM19.81 4.57h-1.52V6.1h1.52V4.57zM19.81 18.29h-7.62v1.52h7.62v-1.52zM16.76 9.15h-1.52v1.52h1.52V9.15zM16.76 6.1h-1.52v1.52h1.52V6.1zM16.76 3.05h-1.52v1.52h1.52V3.05zM19.81 0h-7.62v1.53h7.62V0zM13.71 7.62h-1.52v1.53h1.52V7.62zM13.71 4.57h-1.52V6.1h1.52V4.57z"/><path d="M12.19 16.76h-1.52v1.53h1.52v-1.53zM12.19 1.53h-1.52v1.52h1.52V1.53zM10.67 19.81H9.14v1.53h1.53v-1.53zM9.14 18.29H7.62v1.52h1.52v-1.52zM7.62 12.19h1.52v4.57h1.53V3.05H9.14v7.62H7.62V9.15H6.1v9.14h1.52v-6.1z"/></g><defs><clipPath id="prefix__clip0_1178_17946"><path fill="#fff" d="M0 0h32v32H0z"/></clipPath></defs></svg>