<svg version="1.0" viewBox="0 0 48 48" xmlns="http://www.w3.org/2000/svg"><defs><radialGradient id="prefix__a" cx="62.625" cy="4.625" r="10.625" gradientTransform="matrix(2.1647 0 0 .75294 -111.56 36.518)" gradientUnits="userSpaceOnUse"><stop offset="0"/><stop stop-opacity="0" offset="1"/></radialGradient><radialGradient id="prefix__b" cx="23.896" cy="3.99" r="20.397" gradientTransform="matrix(0 2.2875 -3.0194 0 36.047 -50.63)" gradientUnits="userSpaceOnUse"><stop stop-color="#f8b17e" offset="0"/><stop stop-color="#e35d4f" offset=".262"/><stop stop-color="#c6262e" offset=".661"/><stop stop-color="#690b54" offset="1"/></radialGradient><linearGradient id="prefix__c" x1="18.379" x2="18.379" y1="44.98" y2="3.082" gradientTransform="translate(.998 1.998) scale(.95844)" gradientUnits="userSpaceOnUse"><stop stop-color="#791235" offset="0"/><stop stop-color="#dd3b27" offset="1"/></linearGradient><linearGradient id="prefix__d" x1="63.397" x2="63.397" y1="-12.489" y2="5.468" gradientTransform="matrix(2.1154 0 0 2.1153 -107.58 32.427)" gradientUnits="userSpaceOnUse"><stop stop-color="#fff" offset="0"/><stop stop-color="#fff" stop-opacity="0" offset="1"/></linearGradient></defs><path d="M47 40c0 4.418-10.297 8-23 8S1 44.418 1 40s10.297-8 23-8 23 3.582 23 8z" fill="url(#prefix__a)" fill-rule="evenodd" opacity=".3"/><path d="M24 5.502C13.242 5.502 4.502 14.242 4.502 25S13.242 44.498 24 44.498c10.758 0 19.498-8.74 19.498-19.498 0-10.758-8.74-19.498-19.498-19.498z" fill="url(#prefix__b)" stroke="url(#prefix__c)" stroke-linecap="round" stroke-linejoin="round" stroke-width="1.004"/><path d="M42.5 24.999C42.5 35.217 34.217 43.5 24 43.5S5.5 35.217 5.5 24.999C5.5 14.782 13.783 6.5 24 6.5c10.216 0 18.5 8.282 18.5 18.499z" fill="none" opacity=".4" stroke="url(#prefix__d)"/></svg>