<svg width="32" height="32" fill="none" xmlns="http://www.w3.org/2000/svg"><g clip-path="url(#prefix__clip0_1178_7084)" fill="#E6D4BF"><path d="M22.85 7.62v3.05h-1.52v4.57h1.52v1.52h1.53v1.53h-4.57v1.52h-1.53v1.52h4.57v3.05h-1.52v3.05h1.52v1.52h3.05v-1.52h1.53V25.9h1.52v-3.04h1.52v-3.05H32v-7.62h-1.53V9.14h-1.52V6.1h-1.52v1.52h-4.58zM27.43 4.57H25.9V6.1h1.53V4.57zM25.9 3.05h-3.05v1.52h3.05V3.05z"/><path d="M22.85 28.95h-3.04v1.53h3.04v-1.53zM22.85 1.52h-3.04v1.53h3.04V1.52zM16.76 28.95h-1.52v-1.52h-4.58v1.52H9.14v1.53h3.05V32h7.62v-1.52h-3.05v-1.53zM19.81 0h-7.62v1.52h7.62V0zM10.66 16.76h1.53v1.53h1.52v-4.58h-3.05v3.05zM9.14 27.43H6.09v1.52h3.05v-1.52zM6.09 25.9H4.57v1.53h1.52V25.9z"/><path d="M3.05 22.86v3.04h1.52v-1.52h1.52v-1.52h1.53v-4.57H6.09v-1.53H4.57v-1.52H3.05v-1.53h1.52v-1.52h4.57v-1.52h1.52V9.14h1.53v1.53h1.52V9.14h1.53V6.1h-1.53V4.57h-3.05V3.05h1.53V1.52H9.14v1.53H6.09v1.52H4.57V6.1H3.05v3.04H1.52v3.05H0v7.62h1.52v3.05h1.53z"/></g><defs><clipPath id="prefix__clip0_1178_7084"><path fill="#fff" d="M0 0h32v32H0z"/></clipPath></defs></svg>