<svg xmlns="http://www.w3.org/2000/svg" xmlns:xlink="http://www.w3.org/1999/xlink" version="1.0" width="48" height="48"><defs><linearGradient id="prefix__f"><stop offset="0" stop-opacity="0"/><stop offset=".5"/><stop offset="1" stop-opacity="0"/></linearGradient><linearGradient id="prefix__j"><stop offset="0"/><stop offset="1" stop-opacity="0"/></linearGradient><linearGradient id="prefix__e"><stop offset="0" stop-color="#aaa"/><stop offset="1" stop-color="#c8c8c8"/></linearGradient><linearGradient id="prefix__d"><stop offset="0" stop-color="#f4f4f4"/><stop offset="1" stop-color="#dbdbdb"/></linearGradient><linearGradient id="prefix__c"><stop offset="0" stop-color="#8e8e8e"/><stop offset="1" stop-color="#b5b5b5"/></linearGradient><linearGradient id="prefix__b"><stop offset="0" stop-color="#fff"/><stop offset="1" stop-color="#fff" stop-opacity="0"/></linearGradient><linearGradient id="prefix__a"><stop offset="0" stop-color="#fefefe"/><stop offset="1" stop-color="#cbcbcb"/></linearGradient><linearGradient x1="32.892" y1="8.059" x2="36.358" y2="5.457" id="prefix__bn" xlink:href="#prefix__a" gradientUnits="userSpaceOnUse" gradientTransform="matrix(.9977 0 0 1.04069 .164 -1.106)"/><linearGradient x1="24" y1="2" x2="24" y2="46.017" id="prefix__bl" xlink:href="#prefix__b" gradientUnits="userSpaceOnUse" gradientTransform="matrix(1 0 0 .97778 0 -.967)"/><linearGradient x1="22.104" y1="39.699" x2="22.104" y2="9.263" id="prefix__bi" xlink:href="#prefix__c" gradientUnits="userSpaceOnUse" gradientTransform="matrix(.9946 0 0 1.44078 3.624 -12.863)"/><linearGradient x1="22.104" y1="39.699" x2="22.104" y2="9.263" id="prefix__bh" xlink:href="#prefix__c" gradientUnits="userSpaceOnUse" gradientTransform="matrix(.9946 0 0 1.44078 3.624 -12.863)"/><linearGradient x1="22.104" y1="39.699" x2="22.104" y2="9.263" id="prefix__bg" xlink:href="#prefix__c" gradientUnits="userSpaceOnUse" gradientTransform="matrix(.9946 0 0 1.44078 3.624 -12.863)"/><linearGradient x1="22.104" y1="39.699" x2="22.104" y2="9.263" id="prefix__bf" xlink:href="#prefix__c" gradientUnits="userSpaceOnUse" gradientTransform="matrix(.9946 0 0 1.44078 3.624 -12.863)"/><linearGradient x1="22.104" y1="39.699" x2="22.104" y2="9.263" id="prefix__be" xlink:href="#prefix__c" gradientUnits="userSpaceOnUse" gradientTransform="matrix(.9946 0 0 1.44078 3.624 -12.863)"/><linearGradient x1="22.104" y1="39.699" x2="22.104" y2="9.263" id="prefix__bd" xlink:href="#prefix__c" gradientUnits="userSpaceOnUse" gradientTransform="matrix(.9946 0 0 1.44078 3.624 -12.863)"/><linearGradient x1="22.104" y1="39.699" x2="22.104" y2="9.263" id="prefix__bc" xlink:href="#prefix__c" gradientUnits="userSpaceOnUse" gradientTransform="matrix(.9946 0 0 1.44078 3.624 -12.863)"/><linearGradient x1="22.104" y1="39.699" x2="22.104" y2="9.263" id="prefix__bb" xlink:href="#prefix__c" gradientUnits="userSpaceOnUse" gradientTransform="matrix(.9946 0 0 1.44078 3.624 -12.863)"/><linearGradient x1="22.104" y1="39.699" x2="22.104" y2="9.263" id="prefix__ba" xlink:href="#prefix__c" gradientUnits="userSpaceOnUse" gradientTransform="matrix(.9946 0 0 1.44078 3.624 -12.863)"/><linearGradient x1="22.104" y1="39.699" x2="22.104" y2="9.263" id="prefix__aZ" xlink:href="#prefix__c" gradientUnits="userSpaceOnUse" gradientTransform="matrix(.9946 0 0 1.44078 3.624 -12.863)"/><linearGradient x1="22.104" y1="39.699" x2="22.104" y2="9.263" id="prefix__aY" xlink:href="#prefix__c" gradientUnits="userSpaceOnUse" gradientTransform="matrix(.9946 0 0 1.44078 3.624 -12.863)"/><linearGradient x1="22.104" y1="39.699" x2="22.104" y2="9.263" id="prefix__aX" xlink:href="#prefix__c" gradientUnits="userSpaceOnUse" gradientTransform="matrix(.9946 0 0 1.44078 3.624 -12.863)"/><linearGradient x1="22.104" y1="39.699" x2="22.104" y2="9.263" id="prefix__aW" xlink:href="#prefix__c" gradientUnits="userSpaceOnUse" gradientTransform="matrix(.9946 0 0 1.44078 3.624 -12.863)"/><linearGradient x1="22.104" y1="39.699" x2="22.104" y2="9.263" id="prefix__aV" xlink:href="#prefix__c" gradientUnits="userSpaceOnUse" gradientTransform="matrix(.9946 0 0 1.44078 3.624 -12.863)"/><linearGradient x1="22.104" y1="39.699" x2="22.104" y2="9.263" id="prefix__aU" xlink:href="#prefix__c" gradientUnits="userSpaceOnUse" gradientTransform="matrix(.9946 0 0 1.44078 3.624 -12.863)"/><linearGradient x1="22.104" y1="39.699" x2="22.104" y2="9.263" id="prefix__aT" xlink:href="#prefix__c" gradientUnits="userSpaceOnUse" gradientTransform="matrix(.9946 0 0 1.44078 3.624 -12.863)"/><linearGradient x1="22.104" y1="39.699" x2="22.104" y2="9.263" id="prefix__aS" xlink:href="#prefix__c" gradientUnits="userSpaceOnUse" gradientTransform="matrix(.9946 0 0 1.44078 3.624 -12.863)"/><linearGradient x1="22.104" y1="39.699" x2="22.104" y2="9.263" id="prefix__aR" xlink:href="#prefix__c" gradientUnits="userSpaceOnUse" gradientTransform="matrix(.9946 0 0 1.44078 3.624 -12.863)"/><linearGradient x1="22.104" y1="39.699" x2="22.104" y2="9.263" id="prefix__aQ" xlink:href="#prefix__c" gradientUnits="userSpaceOnUse" gradientTransform="matrix(.9946 0 0 1.44078 3.624 -12.863)"/><linearGradient x1="22.104" y1="39.699" x2="22.104" y2="9.263" id="prefix__aP" xlink:href="#prefix__c" gradientUnits="userSpaceOnUse" gradientTransform="matrix(.9946 0 0 1.44078 3.624 -12.863)"/><linearGradient x1="22.104" y1="39.699" x2="22.104" y2="9.263" id="prefix__aO" xlink:href="#prefix__c" gradientUnits="userSpaceOnUse" gradientTransform="matrix(.9946 0 0 1.44078 3.624 -12.863)"/><linearGradient x1="22.104" y1="39.699" x2="22.104" y2="9.263" id="prefix__aN" xlink:href="#prefix__c" gradientUnits="userSpaceOnUse" gradientTransform="matrix(.9946 0 0 1.44078 3.624 -12.863)"/><linearGradient x1="22.104" y1="39.699" x2="22.104" y2="9.263" id="prefix__aM" xlink:href="#prefix__c" gradientUnits="userSpaceOnUse" gradientTransform="matrix(.9946 0 0 1.44078 3.624 -12.863)"/><linearGradient x1="22.104" y1="39.699" x2="22.104" y2="9.263" id="prefix__aL" xlink:href="#prefix__c" gradientUnits="userSpaceOnUse" gradientTransform="matrix(.9946 0 0 1.44078 3.624 -12.863)"/><linearGradient x1="22.104" y1="39.699" x2="22.104" y2="9.263" id="prefix__aK" xlink:href="#prefix__c" gradientUnits="userSpaceOnUse" gradientTransform="matrix(.9946 0 0 1.44078 3.624 -12.863)"/><linearGradient x1="22.104" y1="39.699" x2="22.104" y2="9.263" id="prefix__aJ" xlink:href="#prefix__c" gradientUnits="userSpaceOnUse" gradientTransform="matrix(.9946 0 0 1.44078 3.624 -12.863)"/><linearGradient x1="22.104" y1="39.699" x2="22.104" y2="9.263" id="prefix__aI" xlink:href="#prefix__c" gradientUnits="userSpaceOnUse" gradientTransform="matrix(.9946 0 0 1.44078 3.624 -12.863)"/><linearGradient x1="22.104" y1="39.699" x2="22.104" y2="9.263" id="prefix__aH" xlink:href="#prefix__c" gradientUnits="userSpaceOnUse" gradientTransform="matrix(.9946 0 0 1.44078 3.624 -12.863)"/><linearGradient x1="22.104" y1="39.699" x2="22.104" y2="9.263" id="prefix__aG" xlink:href="#prefix__c" gradientUnits="userSpaceOnUse" gradientTransform="matrix(.9946 0 0 1.44078 3.624 -12.863)"/><linearGradient x1="22.104" y1="39.699" x2="22.104" y2="9.263" id="prefix__aF" xlink:href="#prefix__c" gradientUnits="userSpaceOnUse" gradientTransform="matrix(.9946 0 0 1.44078 3.624 -12.863)"/><linearGradient x1="22.104" y1="39.699" x2="22.104" y2="9.263" id="prefix__aE" xlink:href="#prefix__c" gradientUnits="userSpaceOnUse" gradientTransform="matrix(.9946 0 0 1.44078 3.624 -12.863)"/><linearGradient x1="22.104" y1="39.699" x2="22.104" y2="9.263" id="prefix__aD" xlink:href="#prefix__c" gradientUnits="userSpaceOnUse" gradientTransform="matrix(.9946 0 0 1.44078 3.624 -12.863)"/><linearGradient x1="22.104" y1="39.699" x2="22.104" y2="9.263" id="prefix__aC" xlink:href="#prefix__c" gradientUnits="userSpaceOnUse" gradientTransform="matrix(.9946 0 0 1.44078 3.624 -12.863)"/><linearGradient x1="22.104" y1="39.699" x2="22.104" y2="9.263" id="prefix__aB" xlink:href="#prefix__c" gradientUnits="userSpaceOnUse" gradientTransform="matrix(.9946 0 0 1.44078 3.624 -12.863)"/><linearGradient x1="22.104" y1="39.699" x2="22.104" y2="9.263" id="prefix__aA" xlink:href="#prefix__c" gradientUnits="userSpaceOnUse" gradientTransform="matrix(.9946 0 0 1.44078 3.624 -12.863)"/><linearGradient x1="22.104" y1="39.699" x2="22.104" y2="9.263" id="prefix__az" xlink:href="#prefix__c" gradientUnits="userSpaceOnUse" gradientTransform="matrix(.9946 0 0 1.44078 3.624 -12.863)"/><linearGradient x1="22.104" y1="39.699" x2="22.104" y2="9.263" id="prefix__ay" xlink:href="#prefix__c" gradientUnits="userSpaceOnUse" gradientTransform="matrix(.9946 0 0 1.44078 3.624 -12.863)"/><linearGradient x1="22.104" y1="39.699" x2="22.104" y2="9.263" id="prefix__ax" xlink:href="#prefix__c" gradientUnits="userSpaceOnUse" gradientTransform="matrix(.9946 0 0 1.44078 3.624 -12.863)"/><linearGradient x1="22.104" y1="39.699" x2="22.104" y2="9.263" id="prefix__aw" xlink:href="#prefix__c" gradientUnits="userSpaceOnUse" gradientTransform="matrix(.9946 0 0 1.44078 3.624 -12.863)"/><linearGradient x1="22.104" y1="39.699" x2="22.104" y2="9.263" id="prefix__av" xlink:href="#prefix__c" gradientUnits="userSpaceOnUse" gradientTransform="matrix(.9946 0 0 1.44078 3.624 -12.863)"/><linearGradient x1="22.104" y1="39.699" x2="22.104" y2="9.263" id="prefix__au" xlink:href="#prefix__c" gradientUnits="userSpaceOnUse" gradientTransform="matrix(.9946 0 0 1.44078 3.624 -12.863)"/><linearGradient x1="22.104" y1="39.699" x2="22.104" y2="9.263" id="prefix__at" xlink:href="#prefix__c" gradientUnits="userSpaceOnUse" gradientTransform="matrix(.9946 0 0 1.44078 3.624 -12.863)"/><linearGradient x1="22.104" y1="39.699" x2="22.104" y2="9.263" id="prefix__as" xlink:href="#prefix__c" gradientUnits="userSpaceOnUse" gradientTransform="matrix(.9946 0 0 1.44078 3.624 -12.863)"/><linearGradient x1="22.104" y1="39.699" x2="22.104" y2="9.263" id="prefix__ar" xlink:href="#prefix__c" gradientUnits="userSpaceOnUse" gradientTransform="matrix(.9946 0 0 1.44078 3.624 -12.863)"/><linearGradient x1="22.104" y1="39.699" x2="22.104" y2="9.263" id="prefix__aq" xlink:href="#prefix__c" gradientUnits="userSpaceOnUse" gradientTransform="matrix(.9946 0 0 1.44078 3.624 -12.863)"/><linearGradient x1="22.104" y1="39.699" x2="22.104" y2="9.263" id="prefix__ap" xlink:href="#prefix__c" gradientUnits="userSpaceOnUse" gradientTransform="matrix(.9946 0 0 1.44078 3.624 -12.863)"/><linearGradient x1="22.104" y1="39.699" x2="22.104" y2="9.263" id="prefix__ao" xlink:href="#prefix__c" gradientUnits="userSpaceOnUse" gradientTransform="matrix(.9946 0 0 1.44078 3.624 -12.863)"/><linearGradient x1="22.104" y1="39.699" x2="22.104" y2="9.263" id="prefix__an" xlink:href="#prefix__c" gradientUnits="userSpaceOnUse" gradientTransform="matrix(.9946 0 0 1.44078 3.624 -12.863)"/><linearGradient x1="22.104" y1="39.699" x2="22.104" y2="9.263" id="prefix__am" xlink:href="#prefix__c" gradientUnits="userSpaceOnUse" gradientTransform="matrix(.9946 0 0 1.44078 3.624 -12.863)"/><linearGradient x1="22.104" y1="39.699" x2="22.104" y2="9.263" id="prefix__al" xlink:href="#prefix__c" gradientUnits="userSpaceOnUse" gradientTransform="matrix(.9946 0 0 1.44078 3.624 -12.863)"/><linearGradient x1="22.104" y1="39.699" x2="22.104" y2="9.263" id="prefix__ak" xlink:href="#prefix__c" gradientUnits="userSpaceOnUse" gradientTransform="matrix(.9946 0 0 1.44078 3.624 -12.863)"/><linearGradient x1="22.104" y1="39.699" x2="22.104" y2="9.263" id="prefix__aj" xlink:href="#prefix__c" gradientUnits="userSpaceOnUse" gradientTransform="matrix(.9946 0 0 1.44078 3.624 -12.863)"/><linearGradient x1="22.104" y1="39.699" x2="22.104" y2="9.263" id="prefix__ai" xlink:href="#prefix__c" gradientUnits="userSpaceOnUse" gradientTransform="matrix(.9946 0 0 1.44078 3.624 -12.863)"/><linearGradient x1="22.104" y1="39.699" x2="22.104" y2="9.263" id="prefix__ah" xlink:href="#prefix__c" gradientUnits="userSpaceOnUse" gradientTransform="matrix(.9946 0 0 1.44078 3.624 -12.863)"/><linearGradient x1="22.104" y1="39.699" x2="22.104" y2="9.263" id="prefix__ag" xlink:href="#prefix__c" gradientUnits="userSpaceOnUse" gradientTransform="matrix(.9946 0 0 1.44078 3.624 -12.863)"/><linearGradient x1="22.104" y1="39.699" x2="22.104" y2="9.263" id="prefix__af" xlink:href="#prefix__c" gradientUnits="userSpaceOnUse" gradientTransform="matrix(.9946 0 0 1.44078 3.624 -12.863)"/><linearGradient x1="22.104" y1="39.699" x2="22.104" y2="9.263" id="prefix__ae" xlink:href="#prefix__c" gradientUnits="userSpaceOnUse" gradientTransform="matrix(.9946 0 0 1.44078 3.624 -12.863)"/><linearGradient x1="22.104" y1="39.699" x2="22.104" y2="9.263" id="prefix__ad" xlink:href="#prefix__c" gradientUnits="userSpaceOnUse" gradientTransform="matrix(.9946 0 0 1.44078 3.624 -12.863)"/><linearGradient x1="22.104" y1="39.699" x2="22.104" y2="9.263" id="prefix__ac" xlink:href="#prefix__c" gradientUnits="userSpaceOnUse" gradientTransform="matrix(.9946 0 0 1.44078 3.624 -12.863)"/><linearGradient x1="22.104" y1="39.699" x2="22.104" y2="9.263" id="prefix__ab" xlink:href="#prefix__c" gradientUnits="userSpaceOnUse" gradientTransform="matrix(.9946 0 0 1.44078 3.624 -12.863)"/><linearGradient x1="22.104" y1="39.699" x2="22.104" y2="9.263" id="prefix__aa" xlink:href="#prefix__c" gradientUnits="userSpaceOnUse" gradientTransform="matrix(.9946 0 0 1.44078 3.624 -12.863)"/><linearGradient x1="22.104" y1="39.699" x2="22.104" y2="9.263" id="prefix__Z" xlink:href="#prefix__c" gradientUnits="userSpaceOnUse" gradientTransform="matrix(.9946 0 0 1.44078 3.624 -12.863)"/><linearGradient x1="22.104" y1="39.699" x2="22.104" y2="9.263" id="prefix__Y" xlink:href="#prefix__c" gradientUnits="userSpaceOnUse" gradientTransform="matrix(.9946 0 0 1.44078 3.624 -12.863)"/><linearGradient x1="22.104" y1="39.699" x2="22.104" y2="9.263" id="prefix__X" xlink:href="#prefix__c" gradientUnits="userSpaceOnUse" gradientTransform="matrix(.9946 0 0 1.44078 3.624 -12.863)"/><linearGradient x1="22.104" y1="39.699" x2="22.104" y2="9.263" id="prefix__W" xlink:href="#prefix__c" gradientUnits="userSpaceOnUse" gradientTransform="matrix(.9946 0 0 1.44078 3.624 -12.863)"/><linearGradient x1="22.104" y1="39.699" x2="22.104" y2="9.263" id="prefix__V" xlink:href="#prefix__c" gradientUnits="userSpaceOnUse" gradientTransform="matrix(.9946 0 0 1.44078 3.624 -12.863)"/><linearGradient x1="22.104" y1="39.699" x2="22.104" y2="9.263" id="prefix__U" xlink:href="#prefix__c" gradientUnits="userSpaceOnUse" gradientTransform="matrix(.9946 0 0 1.44078 3.624 -12.863)"/><linearGradient x1="22.104" y1="39.699" x2="22.104" y2="9.263" id="prefix__T" xlink:href="#prefix__c" gradientUnits="userSpaceOnUse" gradientTransform="matrix(.9946 0 0 1.44078 3.624 -12.863)"/><linearGradient x1="22.104" y1="39.699" x2="22.104" y2="9.263" id="prefix__S" xlink:href="#prefix__c" gradientUnits="userSpaceOnUse" gradientTransform="matrix(.9946 0 0 1.44078 3.624 -12.863)"/><linearGradient x1="22.104" y1="39.699" x2="22.104" y2="9.263" id="prefix__R" xlink:href="#prefix__c" gradientUnits="userSpaceOnUse" gradientTransform="matrix(.9946 0 0 1.44078 3.624 -12.863)"/><linearGradient x1="22.104" y1="39.699" x2="22.104" y2="9.263" id="prefix__Q" xlink:href="#prefix__c" gradientUnits="userSpaceOnUse" gradientTransform="matrix(.9946 0 0 1.44078 3.624 -12.863)"/><linearGradient x1="22.104" y1="39.699" x2="22.104" y2="9.263" id="prefix__P" xlink:href="#prefix__c" gradientUnits="userSpaceOnUse" gradientTransform="matrix(.9946 0 0 1.44078 3.624 -12.863)"/><linearGradient x1="22.104" y1="39.699" x2="22.104" y2="9.263" id="prefix__O" xlink:href="#prefix__c" gradientUnits="userSpaceOnUse" gradientTransform="matrix(.9946 0 0 1.44078 3.624 -12.863)"/><linearGradient x1="22.104" y1="39.699" x2="22.104" y2="9.263" id="prefix__N" xlink:href="#prefix__c" gradientUnits="userSpaceOnUse" gradientTransform="matrix(.9946 0 0 1.44078 3.624 -12.863)"/><linearGradient x1="22.104" y1="39.699" x2="22.104" y2="9.263" id="prefix__M" xlink:href="#prefix__c" gradientUnits="userSpaceOnUse" gradientTransform="matrix(.9946 0 0 1.44078 3.624 -12.863)"/><linearGradient x1="22.104" y1="39.699" x2="22.104" y2="9.263" id="prefix__L" xlink:href="#prefix__c" gradientUnits="userSpaceOnUse" gradientTransform="matrix(.9946 0 0 1.44078 3.624 -12.863)"/><linearGradient x1="22.104" y1="39.699" x2="22.104" y2="9.263" id="prefix__K" xlink:href="#prefix__c" gradientUnits="userSpaceOnUse" gradientTransform="matrix(.9946 0 0 1.44078 3.624 -12.863)"/><linearGradient x1="22.104" y1="39.699" x2="22.104" y2="9.263" id="prefix__J" xlink:href="#prefix__c" gradientUnits="userSpaceOnUse" gradientTransform="matrix(.9946 0 0 1.44078 3.624 -12.863)"/><linearGradient x1="22.104" y1="39.699" x2="22.104" y2="9.263" id="prefix__I" xlink:href="#prefix__c" gradientUnits="userSpaceOnUse" gradientTransform="matrix(.9946 0 0 1.44078 3.624 -12.863)"/><linearGradient x1="22.104" y1="39.699" x2="22.104" y2="9.263" id="prefix__H" xlink:href="#prefix__c" gradientUnits="userSpaceOnUse" gradientTransform="matrix(.9946 0 0 1.44078 3.624 -12.863)"/><linearGradient x1="22.104" y1="39.699" x2="22.104" y2="9.263" id="prefix__G" xlink:href="#prefix__c" gradientUnits="userSpaceOnUse" gradientTransform="matrix(.9946 0 0 1.44078 3.624 -12.863)"/><linearGradient x1="22.104" y1="39.699" x2="22.104" y2="9.263" id="prefix__F" xlink:href="#prefix__c" gradientUnits="userSpaceOnUse" gradientTransform="matrix(.9946 0 0 1.44078 3.624 -12.863)"/><linearGradient x1="22.104" y1="39.699" x2="22.104" y2="9.263" id="prefix__E" xlink:href="#prefix__c" gradientUnits="userSpaceOnUse" gradientTransform="matrix(.9946 0 0 1.44078 3.624 -12.863)"/><linearGradient x1="22.104" y1="39.699" x2="22.104" y2="9.263" id="prefix__D" xlink:href="#prefix__c" gradientUnits="userSpaceOnUse" gradientTransform="matrix(.9946 0 0 1.44078 3.624 -12.863)"/><linearGradient x1="22.104" y1="39.699" x2="22.104" y2="9.263" id="prefix__C" xlink:href="#prefix__c" gradientUnits="userSpaceOnUse" gradientTransform="matrix(.9946 0 0 1.44078 3.624 -12.863)"/><linearGradient x1="22.104" y1="39.699" x2="22.104" y2="9.263" id="prefix__B" xlink:href="#prefix__c" gradientUnits="userSpaceOnUse" gradientTransform="matrix(.9946 0 0 1.44078 3.624 -12.863)"/><linearGradient x1="22.104" y1="39.699" x2="22.104" y2="9.263" id="prefix__A" xlink:href="#prefix__c" gradientUnits="userSpaceOnUse" gradientTransform="matrix(.9946 0 0 1.44078 3.624 -12.863)"/><linearGradient x1="22.104" y1="39.699" x2="22.104" y2="9.263" id="prefix__z" xlink:href="#prefix__c" gradientUnits="userSpaceOnUse" gradientTransform="matrix(.9946 0 0 1.44078 3.624 -12.863)"/><linearGradient x1="22.104" y1="39.699" x2="22.104" y2="9.263" id="prefix__y" xlink:href="#prefix__c" gradientUnits="userSpaceOnUse" gradientTransform="matrix(.9946 0 0 1.44078 3.624 -12.863)"/><linearGradient x1="22.104" y1="39.699" x2="22.104" y2="9.263" id="prefix__x" xlink:href="#prefix__c" gradientUnits="userSpaceOnUse" gradientTransform="matrix(.9946 0 0 1.44078 3.624 -12.863)"/><linearGradient x1="22.104" y1="39.699" x2="22.104" y2="9.263" id="prefix__w" xlink:href="#prefix__c" gradientUnits="userSpaceOnUse" gradientTransform="matrix(.9946 0 0 1.44078 3.624 -12.863)"/><linearGradient x1="22.104" y1="39.699" x2="22.104" y2="9.263" id="prefix__v" xlink:href="#prefix__c" gradientUnits="userSpaceOnUse" gradientTransform="matrix(.9946 0 0 1.44078 3.624 -12.863)"/><linearGradient x1="22.104" y1="39.699" x2="22.104" y2="9.263" id="prefix__u" xlink:href="#prefix__c" gradientUnits="userSpaceOnUse" gradientTransform="matrix(.9946 0 0 1.44078 3.624 -12.863)"/><linearGradient x1="22.104" y1="39.699" x2="22.104" y2="9.263" id="prefix__t" xlink:href="#prefix__c" gradientUnits="userSpaceOnUse" gradientTransform="matrix(.9946 0 0 1.44078 3.624 -12.863)"/><linearGradient x1="22.104" y1="39.699" x2="22.104" y2="9.263" id="prefix__s" xlink:href="#prefix__c" gradientUnits="userSpaceOnUse" gradientTransform="matrix(.9946 0 0 1.44078 3.624 -12.863)"/><linearGradient x1="22.104" y1="39.699" x2="22.104" y2="9.263" id="prefix__r" xlink:href="#prefix__c" gradientUnits="userSpaceOnUse" gradientTransform="matrix(.9946 0 0 1.44078 3.624 -12.863)"/><linearGradient x1="22.104" y1="39.699" x2="22.104" y2="9.263" id="prefix__q" xlink:href="#prefix__c" gradientUnits="userSpaceOnUse" gradientTransform="matrix(.9946 0 0 1.44078 3.624 -12.863)"/><linearGradient x1="25.132" y1=".985" x2="25.132" y2="47.013" id="prefix__n" xlink:href="#prefix__d" gradientUnits="userSpaceOnUse" gradientTransform="matrix(1 0 0 .95617 0 -1.915)"/><linearGradient x1="-51.786" y1="50.786" x2="-51.786" y2="2.906" id="prefix__o" xlink:href="#prefix__e" gradientUnits="userSpaceOnUse" gradientTransform="matrix(.8075 0 0 .89483 59.41 -2.98)"/><linearGradient x1="302.857" y1="366.648" x2="302.857" y2="609.505" id="prefix__k" xlink:href="#prefix__f" gradientUnits="userSpaceOnUse" gradientTransform="matrix(.06732 0 0 .0147 -.341 37.04)"/><linearGradient x1="-22.54" y1="1.552" x2="-22.54" y2="46.264" id="prefix__bj" xlink:href="#prefix__g" gradientUnits="userSpaceOnUse" gradientTransform="matrix(.79932 0 0 1.00365 40.856 -1.56)"/><linearGradient id="prefix__g"><stop offset="0" stop-color="#e3cf6f"/><stop offset="1" stop-color="#d09231"/></linearGradient><linearGradient x1="9.492" y1="46.314" x2="9.492" y2="1.716" id="prefix__bk" xlink:href="#prefix__h" gradientUnits="userSpaceOnUse" gradientTransform="matrix(.911 0 0 .977 .603 -.948)"/><linearGradient id="prefix__h"><stop offset="0" stop-color="#b78128"/><stop offset="1" stop-color="#daca63"/></linearGradient><radialGradient cx="102" cy="112.305" r="139.559" id="prefix__i" gradientUnits="userSpaceOnUse"><stop offset="0" stop-color="#b7b8b9"/><stop offset=".189" stop-color="#ececec"/><stop offset=".257" stop-color="#fafafa" stop-opacity="0"/><stop offset=".301" stop-color="#fff" stop-opacity="0"/><stop offset=".531" stop-color="#fafafa" stop-opacity="0"/><stop offset=".845" stop-color="#ebecec" stop-opacity="0"/><stop offset="1" stop-color="#e1e2e3" stop-opacity="0"/></radialGradient><radialGradient cx="102" cy="112.305" r="139.559" id="prefix__p" xlink:href="#prefix__i" gradientUnits="userSpaceOnUse" gradientTransform="matrix(.3617 0 0 -.39078 .851 47.517)"/><radialGradient cx="605.714" cy="486.648" r="117.143" fx="605.714" fy="486.648" id="prefix__m" xlink:href="#prefix__j" gradientUnits="userSpaceOnUse" gradientTransform="matrix(.02304 0 0 .0147 26.36 37.04)"/><radialGradient cx="605.714" cy="486.648" r="117.143" fx="605.714" fy="486.648" id="prefix__l" xlink:href="#prefix__j" gradientUnits="userSpaceOnUse" gradientTransform="matrix(-.02304 0 0 .0147 21.623 37.04)"/><filter x="-.148" y="-.164" width="1.297" height="1.329" color-interpolation-filters="sRGB" id="prefix__bm"><feGaussianBlur stdDeviation=".774"/></filter></defs><path style="marker:none" opacity=".3" fill="url(#prefix__k)" overflow="visible" d="M7.738 42.43h32.508V46H7.738z"/><path d="M7.738 42.43V46c-1.187.007-2.869-.8-2.869-1.785 0-.986 1.325-1.785 2.869-1.785z" style="marker:none" opacity=".3" fill="url(#prefix__l)" overflow="visible"/><path d="M40.246 42.43V46c1.187.007 2.869-.8 2.869-1.785 0-.986-1.325-1.785-2.869-1.785z" style="marker:none" opacity=".3" fill="url(#prefix__m)" overflow="visible"/><path d="M6.5.497h24.06c1.408.475 8.966 5.882 10.94 9.627v34.379h-35V.497z" fill="url(#prefix__n)" stroke="url(#prefix__o)" stroke-linejoin="round"/><path d="M7.362 44c-.2 0-.362-.175-.362-.39V1.404c0-.216.162-.39.362-.39 7.483.107 15.775-.162 23.25.026l10.282 8.866L41 43.61c0 .216-.162.391-.362.391H7.362z" fill="url(#prefix__p)"/><path d="M15 22h2.346v1H15v-1z" opacity=".7" fill="url(#prefix__q)"/><path d="M17.665 22h2.214v1h-2.214v-1z" opacity=".7" fill="url(#prefix__r)"/><path d="M20.198 22h1.949v1h-1.949v-1z" opacity=".7" fill="url(#prefix__s)"/><path d="M22.466 22h.856v1h-.856v-1z" opacity=".7" fill="url(#prefix__t)"/><path d="M23.642 22h1.915v1h-1.915v-1z" opacity=".7" fill="url(#prefix__u)"/><path d="M25.877 22h4.961v1h-4.961v-1z" opacity=".7" fill="url(#prefix__v)"/><path d="M31.158 22h3.77v1h-3.77v-1z" opacity=".7" fill="url(#prefix__w)"/><path d="M35.247 22h1.154v1h-1.154v-1z" opacity=".7" fill="url(#prefix__x)"/><path d="M15 28h3.692v1H15v-1z" opacity=".7" fill="url(#prefix__y)"/><path d="M18.966 28h1.776v1h-1.776v-1z" opacity=".7" fill="url(#prefix__z)"/><path d="M21.117 28h.835v1h-.835v-1z" opacity=".7" fill="url(#prefix__A)"/><path d="M22.159 28h1.608v1h-1.608v-1z" opacity=".7" fill="url(#prefix__B)"/><path d="M24.04 28h1.609v1H24.04v-1z" opacity=".7" fill="url(#prefix__C)"/><path d="M26.158 28h2.583v1h-2.583v-1z" opacity=".7" fill="url(#prefix__D)"/><path d="M29.048 28h3.39v1h-3.39v-1z" opacity=".7" fill="url(#prefix__E)"/><path d="M32.913 28h2.28v1h-2.28v-1z" opacity=".7" fill="url(#prefix__F)"/><path d="M35.467 28H36v1h-.533v-1z" opacity=".7" fill="url(#prefix__G)"/><path d="M15 24h3.928v1H15v-1z" opacity=".7" fill="url(#prefix__H)"/><path d="M19.236 24h4.209v1h-4.209v-1z" opacity=".7" fill="url(#prefix__I)"/><path d="M23.753 24h1.68v1h-1.68v-1z" opacity=".7" fill="url(#prefix__J)"/><path d="M25.742 24H29.7v1h-3.96v-1z" opacity=".7" fill="url(#prefix__K)"/><path d="M33.027 24h1.057v1h-1.057v-1z" opacity=".7" fill="url(#prefix__L)"/><path d="M30.009 24h2.71v1h-2.71v-1z" opacity=".7" fill="url(#prefix__M)"/><path d="M34.392 24h.62v1h-.62v-1z" opacity=".7" fill="url(#prefix__N)"/><path d="M35.32 24H37v1h-1.68v-1z" opacity=".7" fill="url(#prefix__O)"/><path d="M15 26h4.285v1H15v-1z" opacity=".7" fill="url(#prefix__P)"/><path d="M19.621 26h4.592v1H19.62v-1z" opacity=".7" fill="url(#prefix__Q)"/><path d="M24.549 26h1.833v1H24.55v-1z" opacity=".7" fill="url(#prefix__R)"/><path d="M26.718 26h4.32v1h-4.32v-1z" opacity=".7" fill="url(#prefix__S)"/><path d="M34.666 26h1.153v1h-1.153v-1z" opacity=".7" fill="url(#prefix__T)"/><path d="M31.373 26h2.957v1h-2.957v-1z" opacity=".7" fill="url(#prefix__U)"/><path d="M15 20h3.062v1H15v-1z" opacity=".7" fill="url(#prefix__V)"/><path d="M18.387 20h5.083v1h-5.083v-1z" opacity=".7" fill="url(#prefix__W)"/><path d="M23.796 20h2.455v1h-2.455v-1z" opacity=".7" fill="url(#prefix__X)"/><path d="M29.188 20h1.949v1h-1.95v-1z" opacity=".7" fill="url(#prefix__Y)"/><path d="M31.462 20h3.13v1h-3.13v-1z" opacity=".7" fill="url(#prefix__Z)"/><path d="M26.576 20h2.286v1h-2.286v-1z" opacity=".7" fill="url(#prefix__aa)"/><path d="M15 8h2.346v1H15V8z" opacity=".7" fill="url(#prefix__ab)"/><path d="M17.665 8h2.214v1h-2.214V8z" opacity=".7" fill="url(#prefix__ac)"/><path d="M20.198 8h1.949v1h-1.949V8z" opacity=".7" fill="url(#prefix__ad)"/><path d="M22.466 8h.856v1h-.856V8z" opacity=".7" fill="url(#prefix__ae)"/><path d="M23.642 8h1.915v1h-1.915V8z" opacity=".7" fill="url(#prefix__af)"/><path d="M25.877 8h4.961v1h-4.961V8z" opacity=".7" fill="url(#prefix__ag)"/><path d="M31.158 8h3.77v1h-3.77V8z" opacity=".7" fill="url(#prefix__ah)"/><path d="M15 10h3.692v1H15v-1z" opacity=".7" fill="url(#prefix__ai)"/><path d="M19.029 10h1.776v1h-1.776v-1z" opacity=".7" fill="url(#prefix__aj)"/><path d="M21.142 10h.835v1h-.835v-1z" opacity=".7" fill="url(#prefix__ak)"/><path d="M22.314 10h1.608v1h-1.608v-1z" opacity=".7" fill="url(#prefix__al)"/><path d="M24.259 10h1.608v1H24.26v-1z" opacity=".7" fill="url(#prefix__am)"/><path d="M26.204 10h2.583v1h-2.583v-1z" opacity=".7" fill="url(#prefix__an)"/><path d="M29.124 10h3.39v1h-3.39v-1z" opacity=".7" fill="url(#prefix__ao)"/><path d="M32.85 10h2.28v1h-2.28v-1z" opacity=".7" fill="url(#prefix__ap)"/><path d="M35.467 10H36v1h-.533v-1z" opacity=".7" fill="url(#prefix__aq)"/><path d="M15 14h4.285v1H15v-1z" opacity=".7" fill="url(#prefix__ar)"/><path d="M19.621 14h4.592v1H19.62v-1z" opacity=".7" fill="url(#prefix__as)"/><path d="M24.549 14h1.833v1H24.55v-1z" opacity=".7" fill="url(#prefix__at)"/><path d="M26.718 14h4.32v1h-4.32v-1z" opacity=".7" fill="url(#prefix__au)"/><path d="M34.666 14h1.153v1h-1.153v-1z" opacity=".7" fill="url(#prefix__av)"/><path d="M31.373 14h2.957v1h-2.957v-1z" opacity=".7" fill="url(#prefix__aw)"/><path d="M15 12h3.062v1H15v-1z" opacity=".7" fill="url(#prefix__ax)"/><path d="M18.387 12h5.083v1h-5.083v-1z" opacity=".7" fill="url(#prefix__ay)"/><path d="M23.796 12h2.455v1h-2.455v-1z" opacity=".7" fill="url(#prefix__az)"/><path d="M29.188 12h1.949v1h-1.95v-1z" opacity=".7" fill="url(#prefix__aA)"/><path d="M31.462 12h3.13v1h-3.13v-1z" opacity=".7" fill="url(#prefix__aB)"/><path d="M26.576 12h2.286v1h-2.286v-1z" opacity=".7" fill="url(#prefix__aC)"/><path d="M15 16h1.633v1H15v-1z" opacity=".7" fill="url(#prefix__aD)"/><path d="M17.056 16H23v1h-5.944v-1z" opacity=".7" fill="url(#prefix__aE)"/><path d="M15 34h3.692v1H15v-1z" opacity=".7" fill="url(#prefix__aF)"/><path d="M18.966 34h1.776v1h-1.776v-1z" opacity=".7" fill="url(#prefix__aG)"/><path d="M21.117 34h.835v1h-.835v-1z" opacity=".7" fill="url(#prefix__aH)"/><path d="M22.159 34h1.608v1h-1.608v-1z" opacity=".7" fill="url(#prefix__aI)"/><path d="M24.04 34h1.609v1H24.04v-1z" opacity=".7" fill="url(#prefix__aJ)"/><path d="M26.158 34h2.583v1h-2.583v-1z" opacity=".7" fill="url(#prefix__aK)"/><path d="M29.048 34h3.39v1h-3.39v-1z" opacity=".7" fill="url(#prefix__aL)"/><path d="M32.913 34h2.28v1h-2.28v-1z" opacity=".7" fill="url(#prefix__aM)"/><path d="M35.467 34H36v1h-.533v-1z" opacity=".7" fill="url(#prefix__aN)"/><path d="M15 32h3.062v1H15v-1z" opacity=".7" fill="url(#prefix__aO)"/><path d="M18.387 32h5.083v1h-5.083v-1z" opacity=".7" fill="url(#prefix__aP)"/><path d="M23.796 32h2.455v1h-2.455v-1z" opacity=".7" fill="url(#prefix__aQ)"/><path d="M29.188 32h1.949v1h-1.95v-1z" opacity=".7" fill="url(#prefix__aR)"/><path d="M31.462 32h3.13v1h-3.13v-1z" opacity=".7" fill="url(#prefix__aS)"/><path d="M26.576 32h2.286v1h-2.286v-1z" opacity=".7" fill="url(#prefix__aT)"/><path d="M15 36h3.869v1H15v-1z" opacity=".7" fill="url(#prefix__aU)"/><path d="M19.188 36h1.218v1h-1.218v-1z" opacity=".7" fill="url(#prefix__aV)"/><path d="M20.726 36h2.781v1h-2.781v-1z" opacity=".7" fill="url(#prefix__aW)"/><path d="M23.827 36h1.897v1h-1.897v-1z" opacity=".7" fill="url(#prefix__aX)"/><path d="M26.044 36h1.898v1h-1.898v-1z" opacity=".7" fill="url(#prefix__aY)"/><path d="M28.261 36h2.747v1h-2.747v-1z" opacity=".7" fill="url(#prefix__aZ)"/><path d="M31.328 36h.572v1h-.572v-1z" opacity=".7" fill="url(#prefix__ba)"/><path d="M32.22 36h3.563v1H32.22v-1z" opacity=".7" fill="url(#prefix__bb)"/><path d="M15 38h3.796v1H15v-1z" opacity=".7" fill="url(#prefix__bc)"/><path d="M21.257 38h2.438v1h-2.438v-1z" opacity=".7" fill="url(#prefix__bd)"/><path d="M24.046 38h2.235v1h-2.235v-1z" opacity=".7" fill="url(#prefix__be)"/><path d="M30.036 38H32v1h-1.964v-1z" opacity=".7" fill="url(#prefix__bf)"/><path d="M28.91 38h.776v1h-.775v-1z" opacity=".7" fill="url(#prefix__bg)"/><path d="M26.63 38h1.93v1h-1.93v-1z" opacity=".7" fill="url(#prefix__bh)"/><path d="M19.147 38h1.76v1h-1.76v-1z" opacity=".7" fill="url(#prefix__bi)"/><path d="M11.995 44.495H6.732c-.426-.52-.102-1.555-.203-2.292V.758l.059-.18.144-.073h5.192" style="marker:none" fill="url(#prefix__bj)" stroke="url(#prefix__bk)" stroke-width="1.01" stroke-linejoin="round" display="block" overflow="visible"/><path d="M40.5 10.259v33.263h-33V1.478h22.866" opacity=".4" fill="none" stroke="url(#prefix__bl)" stroke-linejoin="round"/><path d="M28.617.921c4.283 0 2.154 8.483 2.154 8.483s10.357-1.802 10.357 2.82c0-2.61-11.302-10.73-12.51-11.303z" opacity=".4" fill-rule="evenodd" filter="url(#prefix__bm)"/><path d="M28.617.921c3.187 0 2.336 7.662 2.336 7.662s10.175-.98 10.175 3.64c0-1.126.086-1.932-.134-2.283-1.578-2.525-8.394-8.19-10.857-8.931-.184-.056-.593-.088-1.52-.088z" fill="url(#prefix__bn)" fill-rule="evenodd"/></svg>