<svg width="32" height="32" fill="none" xmlns="http://www.w3.org/2000/svg"><g clip-path="url(#prefix__clip0_1178_7097)" fill="#E6D4BF"><path d="M32 3.05h-1.53v27.43H32V3.05zM30.47 1.52h-1.52v1.53h1.52V1.52zM27.43 16.76H25.9v13.72H6.09V16.76H4.57v13.72H1.52V32h28.95v-1.52h-3.04V16.76zM18.28 9.14h6.1V3.05h-6.1v6.09zm1.53-4.57h1.52v3.05h-1.52V4.57z"/><path d="M22.85 25.9H9.14v1.53h13.71V25.9zM22.85 21.33H9.14v1.53h13.71v-1.53zM25.9 15.24H6.09v1.52H25.9v-1.52zM4.57 9.14h1.52V1.52h3.05v7.62H6.09v1.53h3.05v1.52h18.29V1.52h1.52V0H3.05v1.52h1.52v7.62zm6.09-7.62H25.9v9.15H10.66V1.52zM3.05 1.52H1.52v1.53h1.53V1.52zM1.52 3.05H0v27.43h1.52V3.05z"/></g><defs><clipPath id="prefix__clip0_1178_7097"><path fill="#fff" d="M0 0h32v32H0z"/></clipPath></defs></svg>