<svg width="32" height="32" fill="none" xmlns="http://www.w3.org/2000/svg"><path d="M31.24 3.81h-1.53v24.38h1.53V3.81zM29.71 28.19h-1.52v1.52h1.52v-1.52zM29.71 2.28h-1.52v1.53h1.52V2.28zM28.19 29.71H3.81v1.53h24.38v-1.53zM28.19.76H3.81v1.52h24.38V.76zM3.81 28.19H2.29v1.52h1.52v-1.52zM3.81 2.28H2.29v1.53h1.52V2.28zM2.29 3.81H.76v24.38h1.53V3.81zM21.33 19.81V9.14H10.66v1.52h1.53v1.53h1.52v1.52h-1.52v1.53h-1.53v4.57h1.53v3.04h1.52v1.53h6.1v-1.53h-3.05v-1.52h-1.52v-3.05h1.52v-1.52h1.52v1.52h1.53v1.53h1.52z" fill="#E6D4BF"/></svg>