<svg width="32" height="32" fill="none" xmlns="http://www.w3.org/2000/svg"><g clip-path="url(#prefix__clip0_1178_5299)" fill="#E6D4BF"><path d="M25.91 10.67v1.52h4.57v1.52H32v-3.04h-6.09zM30.48 13.71h-1.53v1.53h1.53v-1.53zM28.95 15.24h-3.04v1.52h3.04v-1.52zM25.91 12.19h-3.05v1.52h3.05v-1.52zM25.91 16.76h-3.05v1.53h3.05v-1.53zM22.86 13.71h-3.05v1.53h3.05v-1.53zM22.86 18.29h-6.1v1.52h6.1v-1.52zM19.81 6.1h1.52V0h-3.04v1.52h1.52V6.1zM19.81 6.1h-1.52v3.04h1.52V6.1zM19.81 15.24h-3.05v1.52h3.05v-1.52zM18.29 9.14h-1.53v3.05h1.53V9.14zM18.29 1.52h-1.53v1.53h1.53V1.52z"/><path d="M15.24 16.76v-1.52h-1.53v3.05h3.05v-1.53h-1.52zM16.76 12.19h-1.52v3.05h1.52v-3.05zM16.76 3.05h-1.52V6.1h1.52V3.05zM15.24 6.1h-1.53v3.04h1.53V6.1zM13.71 9.14h-1.52v6.1h1.52v-6.1z"/><path d="M9.14 18.29v-1.53H7.62v-1.52H6.1v-1.53H3.05v1.53H1.52v1.52H0v3.05h1.52v1.52h1.53v1.53H6.1v-1.53h1.52v-1.52h4.57v4.57h-1.52v1.53H9.14v3.04h1.53v1.53h1.52V32h3.05v-1.52h1.52v-1.53h1.53v-3.04h-1.53v-1.53h-1.52v-1.52h-1.53v-4.57H9.14zM6.1 19.81H3.05v-3.05H6.1v3.05zm9.14 6.1v3.04h-3.05v-3.04h3.05z"/></g><defs><clipPath id="prefix__clip0_1178_5299"><path fill="#fff" d="M0 0h32v32H0z"/></clipPath></defs></svg>