<svg xmlns="http://www.w3.org/2000/svg" xmlns:xlink="http://www.w3.org/1999/xlink" width="24" height="24"><defs><linearGradient x1="294.824" y1="7.453" x2="296.447" y2="9.922" id="prefix__d" xlink:href="#prefix__a" gradientUnits="userSpaceOnUse" gradientTransform="matrix(-1.6199 .6436 .87747 1.82997 548.24 -170.706)"/><linearGradient x1="292.972" y1="4.759" x2="296.94" y2="10.711" id="prefix__a" gradientUnits="userSpaceOnUse"><stop offset="0" stop-color="#e8e8e5"/><stop offset="1" stop-color="#f0f0f0"/></linearGradient><linearGradient x1="20.288" y1="6.46" x2="24.326" y2="23.943" id="prefix__e" xlink:href="#prefix__b" gradientUnits="userSpaceOnUse" gradientTransform="matrix(.30002 -.15886 .15903 .44281 66.323 29.079)"/><linearGradient id="prefix__b"><stop offset="0" stop-color="#e2e2e2"/><stop offset="1" stop-color="#d8d8d8"/></linearGradient><linearGradient x1="292.972" y1="4.759" x2="296.94" y2="10.711" id="prefix__f" xlink:href="#prefix__a" gradientUnits="userSpaceOnUse" gradientTransform="matrix(1.34325 -.7962 .98307 1.73449 -329.427 256.042)"/><linearGradient x1="21.054" y1="21.144" x2="24.948" y2="27.088" id="prefix__g" xlink:href="#prefix__b" gradientUnits="userSpaceOnUse" gradientTransform="matrix(.3243 -.18978 .23187 .40394 63.404 30.478)"/><linearGradient x1="22.225" y1="23.843" x2="24.19" y2="22.861" id="prefix__h" xlink:href="#prefix__c" gradientUnits="userSpaceOnUse" gradientTransform="matrix(.32937 -.1844 .22723 .42504 63.11 29.815)"/><linearGradient x1="68.175" y1="21.425" x2="74.587" y2="27.837" id="prefix__c" gradientUnits="userSpaceOnUse"><stop offset="0" stop-color="#babdb6"/><stop offset="1" stop-color="#eeeeec"/></linearGradient></defs><path d="M76.142 23.986c.098-.002 2.67 1.382 2.683 2.529-.148 3.419-.268 6.871-.394 10.308-.261.181-.54.334-.831.46a5.02 5.02 0 01-2.009.41c.169-4.57.334-9.149.551-13.707z" fill="url(#prefix__d)" stroke="#888a85" stroke-width="1.043" stroke-linecap="round" stroke-linejoin="round" transform="rotate(26.738 94.018 -111.448)"/><path d="M76.693 36.496c.022.122.561.736.847.43.14-3.35.162-6.756.298-10.106.041-.226-.525-.757-.812-1.016 0 0-.184 7.069-.333 10.692z" fill="url(#prefix__e)" transform="rotate(26.738 94.018 -111.448)"/><path transform="matrix(1.5056 .0872 -.0025 1.68913 -434.212 -33.61)" fill="#464646" stroke="#333" stroke-width=".646" stroke-linecap="round" stroke-linejoin="round" d="M295.133 14.719l-.401-1.046 1.015-1.713 1.297.34h0l-.645 1.085z"/><path d="M67.64 28.266c-.053.07-.296 2.773.597 3.469 2.762 1.937 5.534 3.915 8.298 5.879a4.041 4.041 0 002.153-1.55c-3.676-2.611-7.357-5.23-11.048-7.798z" fill="url(#prefix__f)" stroke="#888a85" stroke-width=".989" stroke-linecap="round" stroke-linejoin="round" transform="rotate(26.738 94.018 -111.448)"/><path d="M68.97 31.046c2.686 1.88 5.348 3.832 8.031 5.709.449-.123.942-.158.685-.384-2.786-1.915-6.157-4.302-8.935-6.231-.04-.059.027.37.22.906z" fill="url(#prefix__g)" transform="rotate(26.738 94.018 -111.448)"/><path d="M76.496 35.488c.124.231.079.5-.1.6-.179.1-.424-.006-.547-.237-.123-.23-.079-.5.1-.6.18-.1.424.007.547.237z" style="marker:none" fill="url(#prefix__h)" overflow="visible" transform="rotate(26.738 94.018 -111.448)"/><path d="M9.114 14.396c1.495.739 1.806 3.781.913 5.805-.892 2.025-2.38 2.89-3.875 2.156-1.496-.738-1.984-2.976-1.092-5 .892-2.024 2.56-3.693 4.054-2.96zm-.567 1.29c-.663-.326-1.586.95-2.185 2.311-.6 1.362-.306 2.746.356 3.071.664.329 1.408-.145 2.007-1.507.601-1.361.486-3.548-.178-3.874z" fill="#464646" stroke="#333" stroke-width=".976"/><path transform="matrix(1.3827 -.19392 .20897 1.73432 -400.983 50.085)" fill="#464646" stroke="#333" stroke-width=".633" stroke-linecap="round" stroke-linejoin="round" d="M299.268 13.673l-1.014-1.713-1.298.34h0l.644 1.085 1.267 1.334z"/><path d="M15.621 14.737c-1.313.839-1.569 3.199-.57 5.272.998 2.074 2.87 3.077 4.184 2.242 1.313-.838 1.568-3.197.57-5.27-.998-2.073-2.871-3.076-4.184-2.244zm.634 1.322c.583-.37 1.736.255 2.406 1.65.672 1.394.522 2.852-.06 3.222-.583.373-1.737-.255-2.407-1.65-.672-1.394-.521-2.851.061-3.222z" fill="#464646" stroke="#333" stroke-width=".996"/></svg>