<svg width="32" height="32" fill="none" xmlns="http://www.w3.org/2000/svg"><g clip-path="url(#prefix__clip0_1178_13336)" fill="#E6D4BF"><path d="M32 12.19h-1.53v7.62H32v-7.62zM30.47 19.81h-1.52v3.05h1.52v-3.05zM30.47 9.14h-1.52v3.05h1.52V9.14zM28.95 22.86h-1.52v3.04h1.52v-3.04zM28.95 6.09h-1.52v3.05h1.52V6.09z"/><path d="M30.47 4.57V3.05h-6.09v6.09h1.52V6.09h1.53V4.57h3.04zM27.43 25.9H25.9v1.53h1.53V25.9zM25.9 27.43h-3.05v1.52h3.05v-1.52zM22.85 19.81h-1.52v1.52h1.52v-1.52zM22.85 28.95h-3.04v1.53h3.04v-1.53zM19.81 19.81h-4.57v1.52h-1.53v1.53h-1.52v1.52h7.62v-1.52h1.52v-1.53h-1.52v-1.52zM19.81 30.48h-7.62V32h7.62v-1.52zM19.81 9.14V7.62h-7.62v1.52h4.57v1.53h-1.52v1.52h1.52v1.52h3.05v3.05h1.52v-1.52h1.52v4.57h1.53v-7.62h-1.53v-1.52h-1.52V9.14h-1.52zM19.81 0h-7.62v1.52h7.62V0z"/><path d="M13.71 18.28v-1.52h1.53v-3.05h-1.53v-3.04h-1.52V9.14h-1.53v1.53H9.14v1.52H7.62v7.62h1.52v1.52h1.52v1.53h1.53v-4.58h1.52zM12.19 1.52H9.14v1.53h3.05V1.52zM9.14 3.05H6.09v1.52h3.05V3.05zM1.52 27.43v1.52h6.1v-6.09H6.09v3.04H4.57v1.53H1.52zM6.09 4.57H4.57v1.52h1.52V4.57z"/><path d="M4.57 22.86H3.05v3.04h1.52v-3.04zM4.57 6.09H3.05v3.05h1.52V6.09zM3.05 19.81H1.52v3.05h1.53v-3.05zM3.05 9.14H1.52v3.05h1.53V9.14zM1.52 12.19H0v7.62h1.52v-7.62z"/></g><defs><clipPath id="prefix__clip0_1178_13336"><path fill="#fff" d="M0 0h32v32H0z"/></clipPath></defs></svg>