<svg width="32" height="32" fill="none" xmlns="http://www.w3.org/2000/svg"><g clip-path="url(#prefix__clip0_1178_12248)" fill="#E6D4BF"><path d="M31.24 8.38h-1.52V16h1.52V8.38zM29.72 16h-1.53v3.05h1.53V16zM29.72 5.33h-1.53v3.05h1.53V5.33zM28.19 19.05h-1.52v1.52h1.52v-1.52zM28.19 3.81h-1.52v1.52h1.52V3.81zM26.67 20.57h-1.53v1.53h1.53v-1.53zM26.67 11.43h-1.53v6.09h1.53v-6.09zM25.14 22.1h-1.52v1.52h1.52V22.1zM25.14 17.52h-1.52v1.53h1.52v-1.53zM26.67 2.29h-3.05v1.52h3.05V2.29zM23.62 23.62H22.1v1.52h1.52v-1.52zM23.62 19.05H22.1v1.52h1.52v-1.52zM25.14 9.91h-4.57v1.52h4.57V9.91zM22.1 25.14h-1.53v1.53h1.53v-1.53zM20.57 26.67h-1.52v1.52h1.52v-1.52zM22.1 20.57H16v1.53h6.1v-1.53zM20.57 11.43h-1.52v1.52h1.52v-1.52zM19.05 8.38h3.05V6.86h1.52V5.33H22.1V3.81h-3.05v1.52h-1.52v1.53h1.52v1.52zM19.05 28.19h-1.52v1.52h1.52v-1.52zM19.05 12.95h-1.52v1.53h1.52v-1.53zM17.53 14.48H16V16h1.53v-1.52zM17.53 29.71H8.38v1.53h9.15v-1.53zM16 16h-1.52v4.57H16V16zM23.62.76H12.95v1.53h10.67V.76zM14.48 22.1h-3.05v1.52H9.91v3.05h1.52v1.52h3.05v-1.52H16v-3.05h-1.52V22.1zM12.95 2.29H9.91v1.52h3.04V2.29zM9.91 12.95h3.04v-1.52h1.53V8.38h-1.53V6.86H9.91v1.52H8.38v3.05h1.53v1.52zM5.34 20.57h3.04v-1.52h1.53V16H8.38v-1.52H5.34V16H3.81v3.05h1.53v1.52zM9.91 3.81H6.86v1.52h3.05V3.81zM8.38 28.19H6.86v1.52h1.52v-1.52zM6.86 26.67H3.81v1.52h3.05v-1.52zM6.86 5.33H5.34v1.53h1.52V5.33zM5.34 6.86H3.81v3.05h1.53V6.86zM3.81 23.62H2.29v3.05h1.52v-3.05zM3.81 9.91H2.29v3.04h1.52V9.91zM2.29 12.95H.76v10.67h1.53V12.95z"/></g><defs><clipPath id="prefix__clip0_1178_12248"><path fill="#fff" d="M0 0h32v32H0z"/></clipPath></defs></svg>