<?xml version="1.0" encoding="UTF-8"?>
<svg version="1.1" viewBox="0 0 48 48" xmlns="http://www.w3.org/2000/svg" xmlns:cc="http://creativecommons.org/ns#" xmlns:dc="http://purl.org/dc/elements/1.1/" xmlns:rdf="http://www.w3.org/1999/02/22-rdf-syntax-ns#">
<metadata>
<rdf:RDF>
<cc:Work rdf:about="">
<dc:format>image/svg+xml</dc:format>
<dc:type rdf:resource="http://purl.org/dc/dcmitype/StillImage"/>
<dc:title/>
</cc:Work>
</rdf:RDF>
</metadata>
<circle transform="matrix(1.7583 0 0 1.7583 -18.159 -30.979)" cx="23.941" cy="31.535" r="13.233" fill="#8eacd8" opacity=".99"/>
<ellipse cx="23.936" cy="24.469" rx="20.299" ry="20.299" fill="#fff" fill-opacity=".31997" opacity=".99" stroke-width="1.534"/>
<path d="m23.715 5.3402-7.0579 7.9642 9.7686 4.7686-0.66108-3.073c1.5474-0.79154 12.319 0.66602 13.327 11.986 0.65288-5.338 0.44183-12.245-7.1317-16.607-2.0406-1.1754-4.5836-2.0261-7.7319-2.3576zm-5.3117 4.4948c-4.9493 2.1036-10.826 5.7401-10.817 14.48 0.00245 2.3549 0.53754 4.9825 1.8246 7.8748l-2.0653 1.7841 10.426 2.1298-0.75512-10.843-2.3308 2.1077c-1.4592-0.94435-5.5819-11.001 3.7175-17.534zm18.754 13.94-9.0126 6.076 2.991 0.96349c-0.08823 1.7359-6.7358 10.336-17.043 5.5486 4.2964 3.2344 10.383 6.5048 17.948 2.1271 2.0382-1.1795 4.0469-2.9574 5.9082-5.5182l2.5779 0.89711z" fill="#fcfcfc"/>
</svg>
