<svg xmlns="http://www.w3.org/2000/svg" xmlns:xlink="http://www.w3.org/1999/xlink" width="48" height="48"><defs><linearGradient x1="4.191" y1="11.113" x2="47.32" y2="56.052" id="prefix__a" gradientUnits="userSpaceOnUse"><stop offset="0" stop-color="#fff"/><stop offset="1" stop-color="#fff" stop-opacity="0"/></linearGradient><linearGradient x1="29.127" y1="19.788" x2="29.291" y2="57.567" id="prefix__h" xlink:href="#prefix__a" gradientUnits="userSpaceOnUse" gradientTransform="matrix(1.06153 0 -.00462 1.11171 -6.828 -19.998)"/><linearGradient id="prefix__b"><stop offset="0" stop-color="#edd563"/><stop offset="1" stop-color="#e08223"/></linearGradient><linearGradient id="prefix__c"><stop offset="0" stop-color="#bb5e12"/><stop offset="1" stop-color="#cd8033"/></linearGradient><linearGradient x1="24" y1="-3" x2="24" y2="47" id="prefix__f" xlink:href="#prefix__b" gradientUnits="userSpaceOnUse"/><linearGradient x1="20" y1="47" x2="20" y2="-3" id="prefix__g" xlink:href="#prefix__c" gradientUnits="userSpaceOnUse"/><filter x="-.028" y="-.416" width="1.057" height="1.831" color-interpolation-filters="sRGB" id="prefix__d"><feGaussianBlur stdDeviation=".52"/></filter><filter x="-.085" y="-1.247" width="1.17" height="3.494" color-interpolation-filters="sRGB" id="prefix__e"><feGaussianBlur stdDeviation="1.559"/></filter></defs><rect width="44" height="3" rx="3.25" ry="1.5" x="298" y="91" transform="matrix(1 0 0 1.33333 -296 -79.834)" opacity=".3" filter="url(#prefix__d)" enable-background="new"/><rect width="44" height="3" rx="3.25" ry="1.839" x="298" y="91" transform="matrix(1 0 0 1.29167 -296 -76.417)" opacity=".5" filter="url(#prefix__e)" enable-background="new"/><path d="M46.179 39.999L26.649 3.144C26.087 2.12 25.072 1.55 23.94 1.55c-1.131 0-2.152.683-2.722 1.706L1.833 40.113c-.456.91-.461 2.161.1 3.071.563.91 1.466 1.365 2.597 1.365h38.915c1.131 0 2.152-.569 2.608-1.479.57-.91.574-2.047.126-3.071z" fill="url(#prefix__f)" stroke="url(#prefix__g)"/><path d="M44.542 39.21L26.17 4.475C25.388 2.98 25.107 2.5 23.918 2.5c-1.023 0-1.558.7-2.297 2.111L3.453 39.316c-1.055 1.949-1.168 2.457-.66 3.314.507.858 1.16.811 3.568.867H42.07c2.243.028 2.748-.144 3.16-1.002.515-.857.296-1.538-.688-3.286z" opacity=".4" fill="none" stroke="url(#prefix__h)"/><g font-size="62.458" font-weight="400" font-family="Georgia"><path d="M21.687 14.123c.563 5.5 1.208 10.96 1.687 16.482h1.53c.397-5.302 1.039-10.572 1.501-15.867.236-1.254-.408-2.743-1.732-3.047-1.308-.383-2.77.564-2.944 1.918-.029.17-.042.342-.042.514zm-.167 22.359c-.06 1.637 1.742 2.92 3.28 2.4 1.49-.38 2.274-2.251 1.51-3.582-.683-1.376-2.687-1.83-3.84-.776-.582.478-.968 1.193-.95 1.958z" style="text-align:start;line-height:125%" opacity=".2"/><path d="M21.687 15.123c.563 5.5 1.208 10.961 1.687 16.482h1.53c.397-5.302 1.039-10.572 1.501-15.867.236-1.254-.408-2.742-1.732-3.047-1.308-.382-2.77.565-2.944 1.918-.029.17-.042.342-.042.514zm-.167 22.359c-.06 1.637 1.742 2.92 3.28 2.401 1.49-.38 2.274-2.252 1.51-3.583-.683-1.376-2.687-1.829-3.84-.776-.582.479-.968 1.193-.95 1.958z" style="text-align:start;line-height:125%" fill="#fff"/></g></svg>