<svg width="32" height="32" fill="none" xmlns="http://www.w3.org/2000/svg"><g clip-path="url(#prefix__clip0_1178_10150)" fill="#E6D4BF"><path d="M28.2 30.48V18.29h3.04V3.05H28.2V1.52h-1.53v28.96h1.53zm0-25.91h1.52v3.05H28.2V4.57zm0 4.57h1.52v3.05H28.2V9.14zm0 4.58h1.52v3.04H28.2v-3.04zM26.665 30.48H3.815V32h22.85v-1.52zM23.625 24.38h-1.53v1.53h1.53v-1.53zM23.625 27.43h-4.58v1.52h4.58v-1.52zM22.1 16.76v-1.52h1.53V7.62H22.1V6.1H9.9v1.52H8.385v7.62H9.9v1.52h12.2zM11.435 9.14h9.14v1.53h-9.14V9.14zm0 3.05h9.14v1.53h-9.14v-1.53zM20.575 24.38h-1.53v1.53h1.53v-1.53zM26.665 0H3.815v1.52h22.85V0zM5.335 27.43v-1.52h-1.52v-4.58h1.52v-1.52h-1.52v-3.05h1.52v-1.52h-1.52v-3.05h1.52v-1.52h-1.52V6.1h1.52V4.57h-1.52V1.52h-1.53v3.05H.765V6.1h1.52v4.57H.765v1.52h1.52v3.05H.765v1.52h1.52v3.05H.765v1.52h1.52v4.58H.765v1.52h1.52v3.05h1.53v-3.05h1.52z"/></g><defs><clipPath id="prefix__clip0_1178_10150"><path fill="#fff" d="M0 0h32v32H0z"/></clipPath></defs></svg>